<svg xmlns="http://www.w3.org/2000/svg" xmlns:xlink="http://www.w3.org/1999/xlink" width="500" zoomAndPan="magnify" viewBox="0 0 375 374.999991" height="500" preserveAspectRatio="xMidYMid meet" version="1.2"><defs><clipPath id="c24ff8e7dc"><path d="M 7 65.453125 L 368 65.453125 L 368 309 L 7 309 Z M 7 65.453125 "/></clipPath></defs><g id="13eb9ef201"><g clip-rule="nonzero" clip-path="url(#c24ff8e7dc)"><path style=" stroke:none;fill-rule:nonzero;fill:#01303f;fill-opacity:1;" d="M 356.296875 178.476562 C 340.609375 118.65625 322.535156 79.300781 280.898438 67.992188 C 274.542969 66.273438 268.558594 65.433594 262.601562 65.433594 C 250.039062 65.433594 239.929688 69.214844 230.128906 72.882812 C 221.117188 76.253906 211.050781 79.949219 197.125 81.199219 L 186.703125 81.503906 C 186.703125 81.5625 155.226562 76.949219 144.269531 72.84375 C 134.523438 69.1875 124.433594 65.410156 111.925781 65.410156 C 105.953125 65.410156 99.957031 66.25 93.609375 67.980469 C 51.9375 79.292969 33.867188 118.644531 18.214844 178.46875 C 0.0664062 247.765625 5.085938 294.214844 31.976562 305.925781 C 36.355469 307.84375 40.96875 308.816406 45.671875 308.816406 C 69.582031 308.816406 91.570312 283.679688 107.632812 265.304688 L 112.003906 260.238281 C 125.101562 244.921875 152.53125 236.140625 187.25 236.140625 C 225.007812 236.140625 248.214844 243.574219 262.484375 260.261719 L 266.859375 265.339844 C 282.90625 283.691406 304.878906 308.804688 328.808594 308.804688 C 333.539062 308.804688 338.136719 307.832031 342.484375 305.925781 C 369.378906 294.21875 374.40625 247.769531 356.296875 178.476562 Z M 130.109375 183.15625 L 112.15625 183.15625 L 112.15625 200.542969 C 112.15625 206.921875 106.546875 212.296875 99.90625 212.296875 C 93.253906 212.296875 87.640625 206.921875 87.640625 200.542969 L 87.640625 183.15625 L 70.777344 183.15625 C 64.417969 183.15625 59.03125 177.539062 59.03125 170.894531 C 59.03125 164.242188 64.410156 158.628906 70.777344 158.628906 L 87.640625 158.628906 L 87.640625 141.226562 C 87.640625 134.859375 93.257812 129.472656 99.90625 129.472656 C 106.546875 129.472656 112.15625 134.859375 112.15625 141.226562 L 112.15625 158.628906 L 130.109375 158.628906 C 136.464844 158.628906 141.855469 164.242188 141.855469 170.894531 C 141.863281 177.542969 136.46875 183.15625 130.109375 183.15625 Z M 257.59375 204.492188 C 247.652344 204.492188 239.570312 196.414062 239.570312 186.476562 C 239.570312 176.539062 247.667969 168.464844 257.59375 168.464844 C 267.519531 168.464844 275.589844 176.546875 275.589844 186.476562 C 275.589844 196.414062 267.515625 204.492188 257.59375 204.492188 Z M 291.203125 170.882812 C 281.265625 170.882812 273.195312 162.796875 273.195312 152.863281 C 273.195312 142.9375 281.277344 134.859375 291.203125 134.859375 C 301.128906 134.859375 309.214844 142.9375 309.21875 152.863281 C 309.21875 162.800781 301.128906 170.882812 291.203125 170.882812 Z M 291.203125 170.882812 "/></g></g></svg>