<svg xmlns="http://www.w3.org/2000/svg" xmlns:xlink="http://www.w3.org/1999/xlink" width="500" zoomAndPan="magnify" viewBox="0 0 375 374.999991" height="500" preserveAspectRatio="xMidYMid meet" version="1.2"><g id="c08a9533ef"><path style=" stroke:none;fill-rule:evenodd;fill:#01303f;fill-opacity:1;" d="M 272.878906 0.261719 C 273.273438 0.261719 273.667969 0.277344 274.058594 0.304688 C 274.796875 0.359375 275.53125 0.460938 276.253906 0.609375 C 277.183594 0.804688 278.09375 1.078125 278.976562 1.425781 C 279.925781 1.796875 280.835938 2.257812 281.699219 2.796875 C 282.582031 3.347656 283.414062 3.980469 284.179688 4.6875 C 285.046875 5.480469 285.824219 6.367188 286.507812 7.324219 C 287.144531 8.21875 287.691406 9.175781 288.140625 10.179688 C 288.589844 11.179688 288.941406 12.230469 289.183594 13.300781 C 289.355469 14.054688 289.476562 14.820312 289.542969 15.59375 C 289.578125 16.039062 289.601562 16.484375 289.601562 16.929688 C 290.128906 130.515625 290.128906 244.105469 289.601562 357.695312 C 289.601562 358.140625 289.578125 358.589844 289.542969 359.035156 C 289.476562 359.804688 289.355469 360.570312 289.183594 361.324219 C 288.964844 362.296875 288.65625 363.25 288.261719 364.167969 C 287.832031 365.179688 287.300781 366.148438 286.679688 367.054688 C 286.054688 367.96875 285.339844 368.820312 284.546875 369.59375 C 283.753906 370.367188 282.882812 371.0625 281.957031 371.667969 C 281.144531 372.191406 280.292969 372.648438 279.402344 373.027344 C 278.488281 373.417969 277.535156 373.726562 276.5625 373.949219 C 275.808594 374.121094 275.042969 374.238281 274.269531 374.304688 C 273.824219 374.34375 273.378906 374.363281 272.933594 374.367188 C 216.667969 374.628906 160.402344 374.628906 104.140625 374.367188 C 103.691406 374.363281 103.246094 374.34375 102.800781 374.304688 C 102.03125 374.238281 101.265625 374.121094 100.511719 373.949219 C 99.539062 373.726562 98.585938 373.417969 97.667969 373.027344 C 96.59375 372.570312 95.570312 372 94.613281 371.328125 C 93.710938 370.691406 92.867188 369.964844 92.101562 369.164062 C 91.359375 368.386719 90.695312 367.539062 90.113281 366.632812 C 89.574219 365.792969 89.109375 364.902344 88.730469 363.976562 C 88.363281 363.085938 88.070312 362.164062 87.863281 361.222656 C 87.695312 360.449219 87.578125 359.664062 87.519531 358.875 C 87.488281 358.484375 87.472656 358.089844 87.46875 357.695312 C 86.890625 244.109375 86.890625 130.519531 87.46875 16.933594 C 87.472656 16.539062 87.488281 16.144531 87.519531 15.753906 C 87.578125 14.964844 87.695312 14.179688 87.863281 13.40625 C 88.082031 12.414062 88.394531 11.445312 88.789062 10.507812 C 89.199219 9.542969 89.699219 8.613281 90.28125 7.742188 C 90.875 6.847656 91.558594 6.011719 92.3125 5.246094 C 93.066406 4.484375 93.894531 3.792969 94.78125 3.1875 C 95.660156 2.585938 96.597656 2.066406 97.574219 1.640625 C 98.554688 1.21875 99.570312 0.886719 100.613281 0.65625 C 101.367188 0.492188 102.136719 0.375 102.90625 0.316406 C 103.316406 0.28125 103.726562 0.265625 104.140625 0.261719 C 160.386719 -0.00390625 216.632812 0.171875 272.878906 0.261719 Z M 193.761719 342.042969 L 183.273438 342.042969 C 179.152344 342.042969 175.804688 345.386719 175.804688 349.507812 L 175.804688 359.996094 C 175.804688 364.117188 179.152344 367.464844 183.273438 367.464844 L 193.761719 367.464844 C 197.882812 367.464844 201.226562 364.117188 201.226562 359.996094 L 201.226562 349.507812 C 201.226562 345.386719 197.882812 342.042969 193.761719 342.042969 Z M 191.796875 346.804688 C 194.375 346.804688 196.464844 348.898438 196.464844 351.472656 L 196.464844 358.03125 C 196.464844 360.609375 194.375 362.703125 191.796875 362.703125 L 185.238281 362.703125 C 182.660156 362.703125 180.570312 360.609375 180.570312 358.03125 L 180.570312 351.472656 C 180.570312 348.898438 182.660156 346.804688 185.238281 346.804688 Z M 283.699219 26.226562 L 93.410156 26.226562 C 93.253906 129.371094 92.910156 232.503906 93.324219 335.648438 L 283.714844 335.648438 C 283.914062 232.507812 284.152344 129.375 283.714844 26.226562 Z M 221.816406 10.257812 L 155.222656 10.257812 C 154.433594 10.257812 153.792969 10.894531 153.792969 11.683594 L 153.792969 14.535156 C 153.792969 15.320312 154.433594 15.960938 155.222656 15.960938 L 221.816406 15.960938 C 222.601562 15.960938 223.242188 15.320312 223.242188 14.535156 L 223.242188 11.683594 C 223.242188 10.894531 222.601562 10.257812 221.816406 10.257812 Z M 221.816406 10.257812 "/></g></svg>