<svg xmlns="http://www.w3.org/2000/svg" xmlns:xlink="http://www.w3.org/1999/xlink" width="500" zoomAndPan="magnify" viewBox="0 0 375 374.999991" height="500" preserveAspectRatio="xMidYMid meet" version="1.2"><defs><clipPath id="0190a578f7"><path d="M 85.078125 80 L 289.828125 80 L 289.828125 295 L 85.078125 295 Z M 85.078125 80 "/></clipPath></defs><g id="7b376e7772"><path style=" stroke:none;fill-rule:nonzero;fill:#01303f;fill-opacity:1;" d="M 245.699219 75.59375 C 251.332031 75.59375 256.691406 76.710938 261.5625 78.730469 C 260.292969 76.820312 258.960938 74.589844 257.621094 72 C 251.6875 60.527344 244.667969 39.878906 244.890625 6.667969 C 244.890625 6.660156 244.894531 6.648438 244.894531 6.640625 C 244.894531 2.972656 217.335938 0 183.347656 0 C 149.355469 0 121.804688 2.972656 121.804688 6.640625 C 121.804688 6.664062 121.804688 6.695312 121.808594 6.722656 L 121.75 6.722656 C 122.371094 39.636719 115.542969 60.082031 109.707031 71.441406 C 108.296875 74.1875 106.875 76.546875 105.515625 78.554688 C 110.269531 76.644531 115.480469 75.59375 120.941406 75.59375 L 245.699219 75.59375 "/><path style=" stroke:none;fill-rule:nonzero;fill:#01303f;fill-opacity:1;" d="M 120.941406 299.464844 C 115.546875 299.464844 110.398438 298.4375 105.691406 296.574219 C 106.867188 298.378906 108.089844 300.449219 109.316406 302.824219 C 115.246094 314.296875 122.269531 334.945312 122.046875 368.152344 C 122.046875 368.160156 122.042969 368.175781 122.042969 368.183594 C 122.042969 371.851562 149.597656 374.824219 183.589844 374.824219 C 217.578125 374.824219 245.132812 371.851562 245.132812 368.183594 C 245.132812 368.160156 245.128906 368.128906 245.125 368.097656 L 245.183594 368.097656 C 244.5625 335.1875 251.390625 314.738281 257.230469 303.382812 C 258.601562 300.707031 259.988281 298.40625 261.3125 296.433594 C 256.507812 298.386719 251.230469 299.464844 245.699219 299.464844 L 120.941406 299.464844 "/><g clip-rule="nonzero" clip-path="url(#0190a578f7)"><path style=" stroke:none;fill-rule:nonzero;fill:#01303f;fill-opacity:1;" d="M 270.527344 259.363281 C 270.527344 272.292969 260.046875 282.773438 247.117188 282.773438 L 119.523438 282.773438 C 106.59375 282.773438 96.113281 272.292969 96.113281 259.363281 L 96.113281 115.695312 C 96.113281 102.765625 106.59375 92.285156 119.523438 92.285156 L 247.117188 92.285156 C 260.046875 92.285156 270.527344 102.765625 270.527344 115.695312 Z M 284.617188 124.046875 L 281.441406 124.046875 L 281.441406 114.460938 C 281.441406 95.542969 265.40625 80.15625 245.699219 80.15625 L 120.941406 80.15625 C 101.230469 80.15625 85.199219 95.542969 85.199219 114.460938 L 85.199219 260.597656 C 85.199219 279.515625 101.230469 294.902344 120.941406 294.902344 L 245.699219 294.902344 C 265.40625 294.902344 281.441406 279.515625 281.441406 260.597656 L 281.441406 175.703125 L 284.617188 175.703125 C 287.410156 175.703125 289.675781 173.4375 289.675781 170.644531 L 289.675781 129.105469 C 289.675781 126.3125 287.410156 124.046875 284.617188 124.046875 "/></g></g></svg>