<svg xmlns="http://www.w3.org/2000/svg" xmlns:xlink="http://www.w3.org/1999/xlink" width="500" zoomAndPan="magnify" viewBox="0 0 375 374.999991" height="500" preserveAspectRatio="xMidYMid meet" version="1.2"><defs><clipPath id="f938d46fdb"><path d="M 25 0 L 350.375 0 L 350.375 375 L 25 375 Z M 25 0 "/></clipPath></defs><g id="2564880613"><g clip-rule="nonzero" clip-path="url(#f938d46fdb)"><path style=" stroke:none;fill-rule:nonzero;fill:#fffefe;fill-opacity:1;" d="M 196.453125 0.0390625 C 216.941406 -0.273438 237.28125 -0.113281 257.605469 -0.273438 C 258.28125 25.144531 268.59375 48.023438 285 64.96875 L 284.976562 64.945312 C 302.636719 80.851562 325.613281 91.164062 350.945312 92.917969 L 351.296875 92.941406 L 351.296875 155.96875 C 327.367188 155.371094 304.863281 149.851562 284.578125 140.363281 L 285.601562 140.789062 C 275.789062 136.070312 267.492188 131.226562 259.609375 125.820312 L 260.257812 126.246094 C 260.109375 171.914062 260.410156 217.585938 259.945312 263.089844 C 258.65625 286.28125 250.945312 307.433594 238.582031 325.09375 L 238.832031 324.707031 C 218.15625 354.316406 184.664062 373.753906 146.578125 374.90625 L 146.402344 374.90625 C 144.863281 374.980469 143.050781 375.019531 141.222656 375.019531 C 119.570312 375.019531 99.332031 368.984375 82.085938 358.511719 L 82.585938 358.796875 C 51.199219 339.914062 29.546875 307.597656 25.539062 270.011719 L 25.492188 269.5 C 25.175781 261.675781 25.027344 253.855469 25.339844 246.195312 C 31.472656 186.382812 81.585938 140.113281 142.5 140.113281 C 149.34375 140.113281 156.054688 140.703125 162.574219 141.816406 L 161.875 141.714844 C 162.1875 164.855469 161.246094 188.011719 161.246094 211.152344 C 155.953125 209.238281 149.84375 208.121094 143.476562 208.121094 C 120.097656 208.121094 100.207031 223.066406 92.847656 243.929688 L 92.738281 244.304688 C 91.070312 249.648438 90.109375 255.792969 90.109375 262.152344 C 90.109375 264.730469 90.269531 267.285156 90.570312 269.789062 L 90.546875 269.488281 C 94.703125 295.09375 116.652344 314.417969 143.125 314.417969 C 143.886719 314.417969 144.640625 314.40625 145.390625 314.367188 L 145.277344 314.367188 C 163.585938 313.816406 179.484375 303.96875 188.46875 289.410156 L 188.59375 289.1875 C 191.9375 284.53125 194.226562 278.898438 194.988281 272.777344 L 195.003906 272.601562 C 196.566406 244.605469 195.941406 216.769531 196.089844 188.773438 C 196.242188 125.746094 195.941406 62.867188 196.402344 0 Z M 196.453125 0.0390625 "/></g></g></svg>