<svg xmlns="http://www.w3.org/2000/svg" xmlns:xlink="http://www.w3.org/1999/xlink" width="500" zoomAndPan="magnify" viewBox="0 0 375 374.999991" height="500" preserveAspectRatio="xMidYMid meet" version="1.2"><g id="4ce63c1164"><path style=" stroke:none;fill-rule:nonzero;fill:#01303f;fill-opacity:1;" d="M 187.5 210.9375 C 219.859375 210.9375 246.09375 184.703125 246.09375 152.34375 C 246.09375 119.984375 219.859375 93.75 187.5 93.75 C 155.140625 93.75 128.90625 119.984375 128.90625 152.34375 C 128.90625 184.703125 155.140625 210.9375 187.5 210.9375 Z M 187.5 210.9375 "/><path style=" stroke:none;fill-rule:evenodd;fill:#01303f;fill-opacity:1;" d="M 187.5 375 C 291.054688 375 375 291.054688 375 187.5 C 375 83.945312 291.054688 0 187.5 0 C 83.945312 0 0 83.945312 0 187.5 C 0 291.054688 83.945312 375 187.5 375 Z M 140.625 234.375 C 112.566406 234.375 88.347656 250.808594 77.070312 274.574219 C 58.160156 250.625 46.875 220.382812 46.875 187.5 C 46.875 109.835938 109.835938 46.875 187.5 46.875 C 265.164062 46.875 328.125 109.835938 328.125 187.5 C 328.125 220.382812 316.839844 250.625 297.929688 274.574219 C 286.648438 250.808594 262.433594 234.375 234.375 234.375 Z M 140.625 234.375 "/></g></svg>