<svg xmlns="http://www.w3.org/2000/svg" xmlns:xlink="http://www.w3.org/1999/xlink" width="500" zoomAndPan="magnify" viewBox="0 0 375 93.749996" height="125" preserveAspectRatio="xMidYMid meet" version="1.2"><defs><clipPath id="5352469840"><path d="M 1.347656 25 L 83 25 L 83 93.5 L 1.347656 93.5 Z M 1.347656 25 "/></clipPath><clipPath id="6973ea5861"><path d="M 84 18 L 94.101562 18 L 94.101562 29 L 84 29 Z M 84 18 "/></clipPath></defs><g id="7b880459e4"><g clip-rule="nonzero" clip-path="url(#5352469840)"><path style=" stroke:none;fill-rule:nonzero;fill:#02a9f7;fill-opacity:1;" d="M 56.683594 48.476562 L 47.9375 48.476562 L 47.9375 39.730469 L 56.683594 39.730469 Z M 32.550781 85.007812 C 34.414062 85.007812 35.921875 86.519531 35.921875 88.378906 C 35.921875 90.242188 34.414062 91.75 32.550781 91.75 C 30.691406 91.75 29.179688 90.242188 29.179688 88.378906 C 29.179688 86.519531 30.691406 85.007812 32.550781 85.007812 Z M 58.210938 85.007812 C 60.070312 85.007812 61.582031 86.519531 61.582031 88.378906 C 61.582031 90.242188 60.070312 91.75 58.210938 91.75 C 56.351562 91.75 54.835938 90.242188 54.835938 88.378906 C 54.835938 86.519531 56.351562 85.007812 58.210938 85.007812 Z M 75.894531 44.03125 L 75.894531 36.71875 L 71.621094 36.71875 L 71.621094 42.128906 L 60.546875 42.128906 L 60.546875 36.71875 L 21.273438 36.71875 L 17.738281 27.375 C 17.292969 26.203125 16.171875 25.429688 14.921875 25.429688 L 4.386719 25.429688 C 2.726562 25.429688 1.375 26.777344 1.375 28.441406 C 1.375 30.101562 2.726562 31.453125 4.386719 31.453125 L 12.839844 31.453125 L 14.835938 36.71875 L 14.117188 36.71875 C 12.457031 36.71875 11.105469 38.070312 11.105469 39.730469 C 11.105469 41.394531 12.457031 42.742188 14.117188 42.742188 L 17.117188 42.742188 L 26.761719 68.238281 L 23.117188 78.207031 C 22.78125 79.132812 22.910156 80.160156 23.476562 80.964844 C 23.945312 81.640625 24.671875 82.085938 25.476562 82.210938 C 24.035156 83.863281 23.160156 86.019531 23.160156 88.378906 C 23.160156 93.5625 27.371094 97.773438 32.550781 97.773438 C 37.730469 97.773438 41.945312 93.5625 41.945312 88.378906 C 41.945312 86.039062 41.085938 83.898438 39.664062 82.253906 L 51.101562 82.253906 C 49.679688 83.898438 48.816406 86.039062 48.816406 88.378906 C 48.816406 93.5625 53.03125 97.773438 58.210938 97.773438 C 63.390625 97.773438 67.605469 93.5625 67.605469 88.378906 C 67.605469 86.039062 66.742188 83.898438 65.324219 82.253906 L 67.605469 82.253906 C 69.265625 82.253906 70.617188 80.90625 70.617188 79.242188 C 70.617188 77.578125 69.265625 76.230469 67.605469 76.230469 L 30.25 76.230469 L 32.078125 71.230469 L 69.21875 71.230469 C 70.445312 71.230469 71.546875 70.488281 72.007812 69.351562 L 82.277344 44.03125 L 75.894531 44.03125 "/></g><path style=" stroke:none;fill-rule:nonzero;fill:#02a9f7;fill-opacity:1;" d="M 91.871094 11.035156 L 80.800781 11.035156 L 80.800781 -0.0390625 L 91.871094 -0.0390625 L 91.871094 11.035156 "/><path style=" stroke:none;fill-rule:nonzero;fill:#02a9f7;fill-opacity:1;" d="M 75.550781 19.582031 L 67.691406 19.582031 L 67.691406 11.722656 L 75.550781 11.722656 L 75.550781 19.582031 "/><path style=" stroke:none;fill-rule:nonzero;fill:#89d6fb;fill-opacity:1;" d="M 63.386719 29.734375 L 52.3125 29.734375 L 52.3125 18.664062 L 63.386719 18.664062 L 63.386719 29.734375 "/><g clip-rule="nonzero" clip-path="url(#6973ea5861)"><path style=" stroke:none;fill-rule:nonzero;fill:#89d6fb;fill-opacity:1;" d="M 94.074219 28.441406 L 84.292969 28.441406 L 84.292969 18.664062 L 94.074219 18.664062 L 94.074219 28.441406 "/></g><g style="fill:#02a9f7;fill-opacity:1;"><g transform="translate(91.938909, 84.664529)"><path style="stroke:none" d="M 29.128906 -29.015625 L 29.128906 -37.65625 L 0.847656 -37.65625 L 0.847656 -29.015625 L 10.332031 -29.015625 L 10.332031 0 L 19.757812 0 L 19.757812 -29.015625 Z M 29.128906 -29.015625 "/></g></g><g style="fill:#02a9f7;fill-opacity:1;"><g transform="translate(121.910173, 84.664529)"><path style="stroke:none" d="M 29.636719 0 L 29.636719 -8.582031 L 10.894531 -8.582031 L 10.894531 -14.789062 L 29.636719 -14.789062 L 29.636719 -23.089844 L 10.894531 -23.089844 L 10.894531 -29.015625 L 29.636719 -29.015625 L 29.636719 -37.65625 L 1.46875 -37.65625 L 1.46875 0 Z M 29.636719 0 "/></g></g><g style="fill:#02a9f7;fill-opacity:1;"><g transform="translate(153.010303, 84.664529)"><path style="stroke:none" d="M 29.75 0 L 29.75 -8.582031 L 10.894531 -8.582031 L 10.894531 -29.015625 L 29.75 -29.015625 L 29.75 -37.65625 L 1.46875 -37.65625 L 1.46875 0 Z M 29.75 0 "/></g></g><g style="fill:#02a9f7;fill-opacity:1;"><g transform="translate(183.884662, 84.664529)"><path style="stroke:none" d="M 29.75 0 L 29.75 -37.65625 L 20.324219 -37.65625 L 20.324219 -23.089844 L 10.894531 -23.089844 L 10.894531 -37.65625 L 1.46875 -37.65625 L 1.46875 0 L 10.894531 0 L 10.894531 -14.789062 L 20.324219 -14.789062 L 20.324219 0 Z M 29.75 0 "/></g></g><g style="fill:#02a9f7;fill-opacity:1;"><g transform="translate(215.097682, 84.664529)"><path style="stroke:none" d="M 29.75 0 L 29.75 -23.089844 L 10.894531 -23.089844 L 10.894531 -29.015625 L 29.75 -29.015625 L 29.75 -37.65625 L 1.46875 -37.65625 L 1.46875 -14.789062 L 20.324219 -14.789062 L 20.324219 -8.582031 L 1.46875 -8.582031 L 1.46875 0 Z M 29.75 0 "/></g></g><g style="fill:#02a9f7;fill-opacity:1;"><g transform="translate(246.254252, 84.664529)"><path style="stroke:none" d="M 29.128906 -29.015625 L 29.128906 -37.65625 L 0.847656 -37.65625 L 0.847656 -29.015625 L 10.332031 -29.015625 L 10.332031 0 L 19.757812 0 L 19.757812 -29.015625 Z M 29.128906 -29.015625 "/></g></g><g style="fill:#02a9f7;fill-opacity:1;"><g transform="translate(276.225516, 84.664529)"><path style="stroke:none" d="M 29.75 0 L 29.75 -37.65625 L 1.46875 -37.65625 L 1.46875 0 Z M 20.324219 -8.582031 L 10.894531 -8.582031 L 10.894531 -29.015625 L 20.324219 -29.015625 Z M 20.324219 -8.582031 "/></g></g><g style="fill:#02a9f7;fill-opacity:1;"><g transform="translate(307.438536, 84.664529)"><path style="stroke:none" d="M 29.75 0 L 29.75 -8.582031 L 10.894531 -8.582031 L 10.894531 -29.015625 L 29.75 -29.015625 L 29.75 -37.65625 L 1.46875 -37.65625 L 1.46875 0 Z M 29.75 0 "/></g></g><g style="fill:#02a9f7;fill-opacity:1;"><g transform="translate(338.312895, 84.664529)"><path style="stroke:none" d="M 29.75 -29.015625 L 29.75 -37.65625 L 20.324219 -37.65625 L 20.324219 -23.089844 L 10.894531 -23.089844 L 10.894531 -37.65625 L 1.46875 -37.65625 L 1.46875 0 L 10.894531 0 L 10.894531 -14.789062 L 14.902344 -14.789062 L 20.660156 0 L 29.636719 0 L 23.652344 -14.789062 L 27.886719 -14.789062 L 27.886719 -29.015625 Z M 29.75 -29.015625 "/></g></g></g></svg>