<svg xmlns="http://www.w3.org/2000/svg" xmlns:xlink="http://www.w3.org/1999/xlink" width="500" zoomAndPan="magnify" viewBox="0 0 375 374.999991" height="500" preserveAspectRatio="xMidYMid meet" version="1.2"><g id="79d1dd477b"><path style=" stroke:none;fill-rule:nonzero;fill:#01303f;fill-opacity:1;" d="M 341.25 109.726562 L 275.289062 109.726562 L 252.226562 67.085938 C 251.585938 65.910156 250.875 64.78125 250.082031 63.695312 C 249.292969 62.613281 248.4375 61.589844 247.511719 60.621094 C 246.582031 59.65625 245.597656 58.753906 244.546875 57.917969 C 243.5 57.082031 242.402344 56.320312 241.253906 55.632812 C 240.105469 54.945312 238.914062 54.335938 237.683594 53.808594 C 236.453125 53.28125 235.191406 52.835938 233.902344 52.476562 C 232.609375 52.117188 231.300781 51.84375 229.976562 51.660156 C 228.648438 51.476562 227.316406 51.378906 225.976562 51.375 L 149.398438 51.375 C 148.039062 51.378906 146.679688 51.472656 145.332031 51.660156 C 143.980469 51.847656 142.652344 52.125 141.339844 52.492188 C 140.027344 52.859375 138.746094 53.316406 137.496094 53.859375 C 136.246094 54.402344 135.039062 55.027344 133.875 55.734375 C 132.710938 56.441406 131.601562 57.222656 130.542969 58.082031 C 129.484375 58.941406 128.488281 59.867188 127.558594 60.863281 C 126.625 61.855469 125.765625 62.910156 124.976562 64.019531 C 124.1875 65.132812 123.480469 66.292969 122.851562 67.5 L 100.875 109.726562 L 86.25 109.726562 C 86.226562 109.121094 86.144531 108.527344 86.007812 107.941406 C 85.867188 107.355469 85.675781 106.789062 85.429688 106.238281 C 85.179688 105.6875 84.882812 105.167969 84.535156 104.675781 C 84.191406 104.183594 83.796875 103.726562 83.363281 103.308594 C 82.929688 102.894531 82.457031 102.519531 81.953125 102.195312 C 81.445312 101.867188 80.914062 101.589844 80.355469 101.367188 C 79.796875 101.140625 79.21875 100.972656 78.628906 100.859375 C 78.039062 100.742188 77.441406 100.6875 76.835938 100.6875 L 71.773438 100.6875 C 71.566406 100.171875 71.289062 99.695312 70.941406 99.261719 C 70.589844 98.832031 70.183594 98.457031 69.722656 98.148438 C 69.261719 97.835938 68.765625 97.601562 68.234375 97.4375 C 67.699219 97.277344 67.15625 97.199219 66.601562 97.199219 L 52.835938 97.199219 C 52.28125 97.199219 51.738281 97.28125 51.207031 97.445312 C 50.675781 97.605469 50.179688 97.84375 49.71875 98.152344 C 49.257812 98.464844 48.851562 98.835938 48.5 99.265625 C 48.152344 99.699219 47.871094 100.171875 47.664062 100.6875 L 42.75 100.6875 C 42.148438 100.6875 41.550781 100.742188 40.960938 100.859375 C 40.371094 100.972656 39.796875 101.140625 39.238281 101.367188 C 38.679688 101.59375 38.148438 101.867188 37.644531 102.195312 C 37.140625 102.523438 36.671875 102.894531 36.238281 103.3125 C 35.804688 103.730469 35.414062 104.1875 35.070312 104.679688 C 34.722656 105.171875 34.429688 105.691406 34.183594 106.242188 C 33.9375 106.789062 33.746094 107.359375 33.613281 107.945312 C 33.476562 108.53125 33.398438 109.125 33.375 109.726562 C 32.277344 109.738281 31.183594 109.804688 30.09375 109.921875 C 29 110.039062 27.917969 110.210938 26.84375 110.4375 C 25.769531 110.660156 24.707031 110.9375 23.660156 111.265625 C 22.613281 111.59375 21.585938 111.972656 20.574219 112.402344 C 19.5625 112.828125 18.578125 113.304688 17.613281 113.832031 C 16.648438 114.355469 15.710938 114.925781 14.804688 115.542969 C 13.894531 116.160156 13.019531 116.816406 12.175781 117.519531 C 11.332031 118.21875 10.523438 118.960938 9.753906 119.742188 C 8.980469 120.523438 8.25 121.339844 7.554688 122.191406 C 6.863281 123.042969 6.214844 123.925781 5.609375 124.839844 C 5.003906 125.753906 4.445312 126.699219 3.929688 127.667969 C 3.414062 128.636719 2.949219 129.628906 2.53125 130.644531 C 2.117188 131.660156 1.75 132.695312 1.433594 133.746094 C 1.117188 134.796875 0.851562 135.859375 0.640625 136.9375 C 0.425781 138.011719 0.265625 139.097656 0.160156 140.191406 C 0.0546875 141.28125 0 142.378906 0 143.476562 L 0 290.023438 C 0 291.128906 0.0546875 292.234375 0.164062 293.332031 C 0.269531 294.433594 0.433594 295.523438 0.648438 296.609375 C 0.863281 297.695312 1.132812 298.765625 1.453125 299.820312 C 1.773438 300.878906 2.144531 301.917969 2.570312 302.941406 C 2.992188 303.960938 3.464844 304.960938 3.984375 305.933594 C 4.507812 306.910156 5.074219 307.855469 5.6875 308.777344 C 6.300781 309.695312 6.960938 310.582031 7.660156 311.4375 C 8.363281 312.289062 9.105469 313.109375 9.886719 313.890625 C 10.667969 314.671875 11.484375 315.414062 12.339844 316.113281 C 13.195312 316.816406 14.082031 317.472656 15 318.085938 C 15.917969 318.703125 16.867188 319.269531 17.839844 319.789062 C 18.816406 320.3125 19.8125 320.78125 20.835938 321.207031 C 21.855469 321.628906 22.894531 322 23.953125 322.320312 C 25.011719 322.644531 26.082031 322.910156 27.164062 323.125 C 28.25 323.34375 29.34375 323.503906 30.441406 323.613281 C 31.542969 323.722656 32.644531 323.773438 33.75 323.773438 L 341.25 323.773438 C 342.355469 323.773438 343.457031 323.722656 344.558594 323.613281 C 345.65625 323.503906 346.75 323.34375 347.835938 323.125 C 348.917969 322.910156 349.988281 322.644531 351.046875 322.320312 C 352.105469 322 353.144531 321.628906 354.164062 321.207031 C 355.1875 320.78125 356.183594 320.3125 357.160156 319.789062 C 358.132812 319.269531 359.082031 318.703125 360 318.085938 C 360.917969 317.472656 361.804688 316.816406 362.660156 316.113281 C 363.515625 315.414062 364.332031 314.671875 365.113281 313.890625 C 365.894531 313.109375 366.636719 312.289062 367.339844 311.4375 C 368.039062 310.582031 368.699219 309.695312 369.3125 308.777344 C 369.925781 307.855469 370.492188 306.910156 371.015625 305.933594 C 371.535156 304.960938 372.007812 303.960938 372.429688 302.941406 C 372.855469 301.917969 373.226562 300.878906 373.546875 299.820312 C 373.867188 298.765625 374.136719 297.695312 374.351562 296.609375 C 374.566406 295.523438 374.730469 294.433594 374.835938 293.332031 C 374.945312 292.234375 375 291.128906 375 290.023438 L 375 143.289062 C 374.992188 142.1875 374.933594 141.085938 374.820312 139.992188 C 374.707031 138.898438 374.539062 137.808594 374.320312 136.730469 C 374.097656 135.652344 373.828125 134.585938 373.503906 133.53125 C 373.179688 132.480469 372.804688 131.445312 372.378906 130.429688 C 371.953125 129.414062 371.476562 128.421875 370.953125 127.453125 C 370.429688 126.484375 369.863281 125.539062 369.246094 124.628906 C 368.632812 123.714844 367.972656 122.832031 367.273438 121.984375 C 366.570312 121.132812 365.828125 120.320312 365.050781 119.542969 C 364.269531 118.765625 363.449219 118.03125 362.597656 117.332031 C 361.746094 116.636719 360.859375 115.984375 359.941406 115.375 C 359.023438 114.765625 358.082031 114.199219 357.109375 113.683594 C 356.136719 113.164062 355.140625 112.695312 354.121094 112.277344 C 353.105469 111.855469 352.066406 111.488281 351.015625 111.167969 C 349.960938 110.847656 348.890625 110.582031 347.8125 110.367188 C 346.730469 110.15625 345.644531 109.992188 344.546875 109.886719 C 343.449219 109.777344 342.351562 109.726562 341.25 109.726562 Z M 187.5 297.226562 C 186 297.226562 184.5 297.1875 183 297.117188 C 181.5 297.042969 180.003906 296.933594 178.511719 296.785156 C 177.019531 296.640625 175.53125 296.457031 174.046875 296.238281 C 172.5625 296.019531 171.082031 295.761719 169.609375 295.46875 C 168.136719 295.179688 166.675781 294.851562 165.21875 294.484375 C 163.761719 294.121094 162.316406 293.722656 160.878906 293.289062 C 159.445312 292.851562 158.019531 292.382812 156.605469 291.878906 C 155.195312 291.371094 153.792969 290.832031 152.40625 290.257812 C 151.019531 289.683594 149.648438 289.078125 148.292969 288.4375 C 146.933594 287.796875 145.59375 287.121094 144.269531 286.414062 C 142.945312 285.707031 141.640625 284.96875 140.355469 284.199219 C 139.066406 283.425781 137.800781 282.625 136.550781 281.792969 C 135.304688 280.957031 134.074219 280.09375 132.871094 279.199219 C 131.664062 278.308594 130.480469 277.386719 129.320312 276.433594 C 128.160156 275.480469 127.023438 274.503906 125.914062 273.496094 C 124.800781 272.488281 123.714844 271.453125 122.652344 270.390625 C 121.589844 269.332031 120.554688 268.246094 119.546875 267.132812 C 118.539062 266.023438 117.558594 264.886719 116.605469 263.726562 C 115.652344 262.566406 114.730469 261.386719 113.835938 260.179688 C 112.941406 258.976562 112.078125 257.75 111.242188 256.5 C 110.410156 255.253906 109.605469 253.984375 108.835938 252.699219 C 108.0625 251.414062 107.324219 250.105469 106.613281 248.785156 C 105.90625 247.460938 105.230469 246.121094 104.589844 244.765625 C 103.949219 243.410156 103.339844 242.035156 102.765625 240.652344 C 102.191406 239.265625 101.648438 237.863281 101.144531 236.453125 C 100.636719 235.039062 100.167969 233.613281 99.730469 232.179688 C 99.292969 230.742188 98.894531 229.296875 98.53125 227.84375 C 98.164062 226.386719 97.835938 224.921875 97.542969 223.449219 C 97.25 221.980469 96.992188 220.5 96.769531 219.015625 C 96.550781 217.53125 96.367188 216.042969 96.21875 214.550781 C 96.070312 213.058594 95.960938 211.5625 95.886719 210.0625 C 95.8125 208.5625 95.777344 207.0625 95.773438 205.5625 C 95.773438 204.0625 95.8125 202.5625 95.882812 201.0625 C 95.957031 199.5625 96.066406 198.066406 96.214844 196.574219 C 96.359375 195.082031 96.542969 193.59375 96.765625 192.109375 C 96.984375 190.625 97.238281 189.144531 97.53125 187.671875 C 97.824219 186.203125 98.152344 184.738281 98.515625 183.28125 C 98.882812 181.824219 99.28125 180.378906 99.714844 178.945312 C 100.152344 177.507812 100.621094 176.082031 101.128906 174.667969 C 101.632812 173.257812 102.171875 171.855469 102.746094 170.46875 C 103.320312 169.082031 103.925781 167.710938 104.570312 166.355469 C 105.210938 165 105.882812 163.660156 106.589844 162.335938 C 107.296875 161.011719 108.039062 159.707031 108.808594 158.417969 C 109.578125 157.132812 110.382812 155.863281 111.214844 154.617188 C 112.050781 153.367188 112.914062 152.140625 113.804688 150.933594 C 114.699219 149.730469 115.621094 148.546875 116.574219 147.386719 C 117.527344 146.226562 118.507812 145.089844 119.511719 143.976562 C 120.519531 142.867188 121.554688 141.777344 122.617188 140.71875 C 123.675781 139.65625 124.761719 138.621094 125.875 137.613281 C 126.988281 136.605469 128.121094 135.625 129.28125 134.671875 C 130.441406 133.722656 131.625 132.796875 132.832031 131.902344 C 134.035156 131.007812 135.261719 130.144531 136.507812 129.3125 C 137.757812 128.476562 139.023438 127.675781 140.3125 126.902344 C 141.597656 126.132812 142.902344 125.390625 144.226562 124.683594 C 145.550781 123.976562 146.890625 123.300781 148.246094 122.660156 C 149.601562 122.019531 150.972656 121.410156 152.359375 120.835938 C 153.746094 120.261719 155.148438 119.71875 156.558594 119.214844 C 157.972656 118.710938 159.398438 118.238281 160.832031 117.800781 C 162.269531 117.367188 163.714844 116.964844 165.171875 116.601562 C 166.625 116.238281 168.089844 115.90625 169.5625 115.613281 C 171.03125 115.320312 172.511719 115.066406 173.996094 114.84375 C 175.480469 114.625 176.96875 114.441406 178.460938 114.292969 C 179.957031 114.144531 181.453125 114.035156 182.949219 113.960938 C 184.449219 113.886719 185.949219 113.851562 187.449219 113.851562 C 188.949219 113.851562 190.449219 113.886719 191.949219 113.960938 C 193.449219 114.035156 194.945312 114.144531 196.4375 114.289062 C 197.929688 114.4375 199.421875 114.621094 200.90625 114.839844 C 202.390625 115.0625 203.867188 115.316406 205.339844 115.609375 C 206.8125 115.902344 208.273438 116.230469 209.730469 116.59375 C 211.1875 116.960938 212.632812 117.359375 214.066406 117.796875 C 215.503906 118.230469 216.929688 118.699219 218.34375 119.207031 C 219.753906 119.710938 221.15625 120.25 222.542969 120.824219 C 223.925781 121.398438 225.300781 122.007812 226.65625 122.648438 C 228.011719 123.289062 229.351562 123.964844 230.675781 124.671875 C 232 125.378906 233.304688 126.117188 234.59375 126.890625 C 235.878906 127.660156 237.148438 128.464844 238.394531 129.296875 C 239.644531 130.132812 240.871094 130.996094 242.074219 131.890625 C 243.28125 132.78125 244.460938 133.707031 245.621094 134.65625 C 246.78125 135.609375 247.917969 136.589844 249.03125 137.597656 C 250.144531 138.605469 251.230469 139.640625 252.289062 140.699219 C 253.351562 141.761719 254.386719 142.847656 255.394531 143.960938 C 256.402344 145.070312 257.382812 146.207031 258.335938 147.367188 C 259.285156 148.527344 260.210938 149.710938 261.105469 150.914062 C 261.996094 152.121094 262.863281 153.347656 263.695312 154.59375 C 264.527344 155.84375 265.332031 157.109375 266.101562 158.398438 C 266.875 159.683594 267.613281 160.988281 268.320312 162.3125 C 269.03125 163.636719 269.703125 164.976562 270.34375 166.332031 C 270.988281 167.6875 271.59375 169.0625 272.167969 170.449219 C 272.742188 171.832031 273.285156 173.234375 273.789062 174.644531 C 274.296875 176.058594 274.765625 177.484375 275.203125 178.917969 C 275.636719 180.355469 276.035156 181.800781 276.402344 183.257812 C 276.765625 184.714844 277.09375 186.175781 277.386719 187.648438 C 277.679688 189.121094 277.9375 190.597656 278.15625 192.082031 C 278.378906 193.566406 278.5625 195.054688 278.707031 196.550781 C 278.855469 198.042969 278.964844 199.539062 279.039062 201.039062 C 279.113281 202.535156 279.148438 204.035156 279.148438 205.539062 C 279.148438 207.039062 279.113281 208.535156 279.039062 210.035156 C 278.964844 211.535156 278.855469 213.027344 278.707031 214.523438 C 278.5625 216.015625 278.378906 217.503906 278.15625 218.988281 C 277.9375 220.472656 277.683594 221.949219 277.390625 223.421875 C 277.097656 224.890625 276.769531 226.355469 276.402344 227.808594 C 276.039062 229.265625 275.640625 230.710938 275.203125 232.144531 C 274.769531 233.582031 274.296875 235.003906 273.792969 236.417969 C 273.289062 237.832031 272.75 239.230469 272.175781 240.617188 C 271.601562 242.003906 270.992188 243.375 270.351562 244.730469 C 269.710938 246.085938 269.035156 247.425781 268.328125 248.75 C 267.621094 250.070312 266.882812 251.375 266.113281 252.664062 C 265.339844 253.949219 264.539062 255.21875 263.707031 256.464844 C 262.871094 257.710938 262.007812 258.9375 261.117188 260.144531 C 260.222656 261.347656 259.300781 262.53125 258.347656 263.691406 C 257.398438 264.851562 256.417969 265.988281 255.410156 267.097656 C 254.402344 268.210938 253.371094 269.296875 252.308594 270.355469 C 251.25 271.417969 250.164062 272.453125 249.050781 273.460938 C 247.941406 274.46875 246.804688 275.449219 245.644531 276.398438 C 244.484375 277.351562 243.304688 278.273438 242.097656 279.167969 C 240.894531 280.0625 239.667969 280.925781 238.421875 281.761719 C 237.171875 282.59375 235.90625 283.394531 234.621094 284.167969 C 233.332031 284.9375 232.027344 285.679688 230.707031 286.386719 C 229.382812 287.09375 228.042969 287.769531 226.6875 288.410156 C 225.332031 289.050781 223.960938 289.660156 222.574219 290.234375 C 221.191406 290.808594 219.789062 291.347656 218.378906 291.855469 C 216.964844 292.359375 215.542969 292.832031 214.105469 293.269531 C 212.671875 293.703125 211.226562 294.105469 209.769531 294.46875 C 208.316406 294.835938 206.851562 295.164062 205.382812 295.457031 C 203.910156 295.75 202.433594 296.007812 200.949219 296.226562 C 199.464844 296.449219 197.976562 296.632812 196.484375 296.78125 C 194.992188 296.925781 193.496094 297.039062 191.996094 297.113281 C 190.5 297.1875 189 297.222656 187.5 297.226562 Z M 340.273438 162.488281 C 339.269531 162.488281 338.273438 162.394531 337.285156 162.199219 C 336.300781 162.007812 335.339844 161.71875 334.410156 161.335938 C 333.480469 160.953125 332.597656 160.480469 331.761719 159.925781 C 330.921875 159.367188 330.148438 158.734375 329.4375 158.023438 C 328.722656 157.3125 328.089844 156.542969 327.527344 155.707031 C 326.96875 154.871094 326.496094 153.988281 326.109375 153.058594 C 325.722656 152.132812 325.433594 151.175781 325.234375 150.1875 C 325.039062 149.203125 324.9375 148.207031 324.9375 147.199219 C 324.9375 146.195312 325.035156 145.199219 325.230469 144.210938 C 325.425781 143.226562 325.714844 142.265625 326.101562 141.339844 C 326.484375 140.410156 326.957031 139.527344 327.515625 138.691406 C 328.074219 137.855469 328.707031 137.078125 329.417969 136.367188 C 330.128906 135.65625 330.902344 135.023438 331.738281 134.464844 C 332.578125 133.90625 333.457031 133.433594 334.386719 133.050781 C 335.316406 132.664062 336.273438 132.375 337.261719 132.179688 C 338.25 131.984375 339.246094 131.886719 340.25 131.886719 C 341.253906 131.886719 342.25 131.988281 343.238281 132.183594 C 344.222656 132.382812 345.179688 132.671875 346.109375 133.058594 C 347.039062 133.445312 347.921875 133.917969 348.757812 134.476562 C 349.589844 135.039062 350.363281 135.675781 351.074219 136.386719 C 351.785156 137.097656 352.417969 137.875 352.972656 138.710938 C 353.53125 139.546875 354 140.429688 354.382812 141.359375 C 354.769531 142.292969 355.054688 143.25 355.25 144.238281 C 355.445312 145.222656 355.539062 146.21875 355.539062 147.226562 C 355.539062 148.226562 355.441406 149.21875 355.246094 150.203125 C 355.046875 151.183594 354.757812 152.140625 354.375 153.066406 C 353.992188 153.992188 353.523438 154.871094 352.964844 155.703125 C 352.410156 156.539062 351.777344 157.308594 351.066406 158.015625 C 350.359375 158.726562 349.585938 159.359375 348.753906 159.914062 C 347.921875 160.472656 347.042969 160.941406 346.117188 161.324219 C 345.191406 161.710938 344.234375 162 343.253906 162.195312 C 342.269531 162.390625 341.277344 162.488281 340.273438 162.488281 Z M 340.273438 162.488281 "/><path style=" stroke:none;fill-rule:nonzero;fill:#01303f;fill-opacity:1;" d="M 251.398438 205.539062 C 251.398438 206.582031 251.375 207.628906 251.324219 208.671875 C 251.273438 209.71875 251.195312 210.761719 251.09375 211.800781 C 250.988281 212.839844 250.863281 213.878906 250.707031 214.914062 C 250.554688 215.949219 250.375 216.976562 250.171875 218.003906 C 249.96875 219.03125 249.738281 220.050781 249.484375 221.0625 C 249.230469 222.078125 248.953125 223.085938 248.648438 224.085938 C 248.34375 225.085938 248.015625 226.082031 247.664062 227.066406 C 247.3125 228.050781 246.9375 229.023438 246.535156 229.992188 C 246.136719 230.957031 245.710938 231.914062 245.265625 232.859375 C 244.816406 233.804688 244.347656 234.738281 243.855469 235.660156 C 243.363281 236.582031 242.847656 237.492188 242.308594 238.386719 C 241.769531 239.285156 241.210938 240.167969 240.632812 241.039062 C 240.050781 241.90625 239.449219 242.761719 238.824219 243.601562 C 238.203125 244.441406 237.558594 245.265625 236.894531 246.074219 C 236.230469 246.882812 235.550781 247.675781 234.847656 248.449219 C 234.144531 249.226562 233.421875 249.980469 232.683594 250.722656 C 231.945312 251.460938 231.1875 252.183594 230.414062 252.882812 C 229.636719 253.585938 228.847656 254.269531 228.039062 254.933594 C 227.230469 255.597656 226.40625 256.238281 225.566406 256.863281 C 224.726562 257.484375 223.871094 258.085938 223 258.667969 C 222.132812 259.25 221.25 259.808594 220.351562 260.347656 C 219.453125 260.882812 218.542969 261.398438 217.621094 261.890625 C 216.699219 262.386719 215.765625 262.855469 214.820312 263.300781 C 213.875 263.75 212.917969 264.171875 211.953125 264.574219 C 210.988281 264.972656 210.011719 265.351562 209.027344 265.703125 C 208.042969 266.054688 207.050781 266.382812 206.050781 266.6875 C 205.046875 266.988281 204.039062 267.269531 203.027344 267.523438 C 202.011719 267.777344 200.992188 268.003906 199.964844 268.210938 C 198.941406 268.414062 197.910156 268.59375 196.875 268.746094 C 195.839844 268.898438 194.804688 269.027344 193.761719 269.128906 C 192.722656 269.230469 191.679688 269.308594 190.636719 269.359375 C 189.589844 269.410156 188.546875 269.4375 187.5 269.4375 C 186.453125 269.4375 185.410156 269.410156 184.363281 269.359375 C 183.320312 269.308594 182.277344 269.230469 181.238281 269.128906 C 180.195312 269.027344 179.160156 268.898438 178.125 268.746094 C 177.089844 268.59375 176.058594 268.414062 175.035156 268.210938 C 174.007812 268.003906 172.988281 267.777344 171.972656 267.523438 C 170.960938 267.269531 169.953125 266.988281 168.949219 266.6875 C 167.949219 266.382812 166.957031 266.054688 165.972656 265.703125 C 164.988281 265.351562 164.011719 264.972656 163.046875 264.574219 C 162.082031 264.171875 161.125 263.75 160.179688 263.300781 C 159.234375 262.855469 158.300781 262.386719 157.378906 261.890625 C 156.457031 261.398438 155.546875 260.882812 154.648438 260.347656 C 153.75 259.808594 152.867188 259.25 152 258.667969 C 151.128906 258.085938 150.273438 257.484375 149.433594 256.863281 C 148.59375 256.238281 147.769531 255.597656 146.960938 254.933594 C 146.152344 254.269531 145.363281 253.585938 144.585938 252.882812 C 143.8125 252.183594 143.054688 251.460938 142.316406 250.722656 C 141.578125 249.980469 140.855469 249.226562 140.152344 248.449219 C 139.449219 247.675781 138.769531 246.882812 138.105469 246.074219 C 137.441406 245.265625 136.796875 244.441406 136.175781 243.601562 C 135.550781 242.761719 134.949219 241.90625 134.367188 241.039062 C 133.789062 240.167969 133.230469 239.285156 132.691406 238.386719 C 132.152344 237.492188 131.636719 236.582031 131.144531 235.660156 C 130.652344 234.738281 130.183594 233.804688 129.734375 232.859375 C 129.289062 231.914062 128.863281 230.957031 128.464844 229.992188 C 128.0625 229.023438 127.6875 228.050781 127.335938 227.066406 C 126.984375 226.082031 126.65625 225.085938 126.351562 224.085938 C 126.046875 223.085938 125.769531 222.078125 125.515625 221.0625 C 125.261719 220.050781 125.03125 219.03125 124.828125 218.003906 C 124.625 216.976562 124.445312 215.949219 124.292969 214.914062 C 124.136719 213.878906 124.011719 212.839844 123.90625 211.800781 C 123.804688 210.761719 123.726562 209.71875 123.675781 208.671875 C 123.625 207.628906 123.601562 206.582031 123.601562 205.539062 C 123.601562 204.492188 123.625 203.445312 123.675781 202.402344 C 123.726562 201.359375 123.804688 200.316406 123.90625 199.273438 C 124.011719 198.234375 124.136719 197.195312 124.292969 196.160156 C 124.445312 195.125 124.625 194.097656 124.828125 193.070312 C 125.03125 192.046875 125.261719 191.027344 125.515625 190.011719 C 125.769531 188.996094 126.046875 187.988281 126.351562 186.988281 C 126.65625 185.988281 126.984375 184.996094 127.335938 184.011719 C 127.6875 183.027344 128.0625 182.050781 128.464844 181.085938 C 128.863281 180.117188 129.289062 179.160156 129.734375 178.214844 C 130.183594 177.269531 130.652344 176.335938 131.144531 175.414062 C 131.636719 174.492188 132.152344 173.582031 132.691406 172.6875 C 133.230469 171.789062 133.789062 170.90625 134.367188 170.035156 C 134.949219 169.167969 135.550781 168.3125 136.175781 167.472656 C 136.796875 166.632812 137.441406 165.808594 138.105469 165 C 138.769531 164.191406 139.449219 163.398438 140.152344 162.625 C 140.855469 161.851562 141.578125 161.09375 142.316406 160.351562 C 143.054688 159.613281 143.8125 158.894531 144.585938 158.191406 C 145.363281 157.488281 146.152344 156.804688 146.960938 156.140625 C 147.769531 155.480469 148.59375 154.835938 149.433594 154.210938 C 150.273438 153.589844 151.128906 152.988281 152 152.40625 C 152.867188 151.824219 153.75 151.265625 154.648438 150.730469 C 155.546875 150.191406 156.457031 149.675781 157.378906 149.183594 C 158.300781 148.691406 159.234375 148.21875 160.179688 147.773438 C 161.125 147.324219 162.082031 146.902344 163.046875 146.5 C 164.011719 146.101562 164.988281 145.726562 165.972656 145.371094 C 166.957031 145.019531 167.949219 144.691406 168.949219 144.390625 C 169.953125 144.085938 170.960938 143.804688 171.972656 143.550781 C 172.988281 143.296875 174.007812 143.070312 175.035156 142.867188 C 176.058594 142.660156 177.089844 142.484375 178.125 142.328125 C 179.160156 142.175781 180.195312 142.046875 181.238281 141.945312 C 182.277344 141.84375 183.320312 141.765625 184.363281 141.714844 C 185.410156 141.664062 186.453125 141.636719 187.5 141.636719 C 188.546875 141.636719 189.589844 141.664062 190.636719 141.714844 C 191.679688 141.765625 192.722656 141.84375 193.761719 141.945312 C 194.804688 142.046875 195.839844 142.175781 196.875 142.328125 C 197.910156 142.484375 198.941406 142.660156 199.964844 142.867188 C 200.992188 143.070312 202.011719 143.296875 203.027344 143.550781 C 204.039062 143.804688 205.046875 144.085938 206.050781 144.390625 C 207.050781 144.691406 208.042969 145.019531 209.027344 145.371094 C 210.011719 145.726562 210.988281 146.101562 211.953125 146.5 C 212.917969 146.902344 213.875 147.324219 214.820312 147.773438 C 215.765625 148.21875 216.699219 148.691406 217.621094 149.183594 C 218.542969 149.675781 219.453125 150.191406 220.351562 150.730469 C 221.25 151.265625 222.132812 151.824219 223 152.40625 C 223.871094 152.988281 224.726562 153.589844 225.566406 154.210938 C 226.40625 154.835938 227.230469 155.480469 228.039062 156.140625 C 228.847656 156.804688 229.636719 157.488281 230.414062 158.191406 C 231.1875 158.894531 231.945312 159.613281 232.683594 160.351562 C 233.421875 161.09375 234.144531 161.851562 234.847656 162.625 C 235.550781 163.398438 236.230469 164.191406 236.894531 165 C 237.558594 165.808594 238.203125 166.632812 238.824219 167.472656 C 239.449219 168.3125 240.050781 169.167969 240.632812 170.035156 C 241.210938 170.90625 241.769531 171.789062 242.308594 172.6875 C 242.847656 173.582031 243.363281 174.492188 243.855469 175.414062 C 244.347656 176.335938 244.816406 177.269531 245.265625 178.214844 C 245.710938 179.160156 246.136719 180.117188 246.535156 181.085938 C 246.9375 182.050781 247.3125 183.027344 247.664062 184.011719 C 248.015625 184.996094 248.34375 185.988281 248.648438 186.988281 C 248.953125 187.988281 249.230469 188.996094 249.484375 190.011719 C 249.738281 191.027344 249.96875 192.046875 250.171875 193.070312 C 250.375 194.097656 250.554688 195.125 250.707031 196.160156 C 250.863281 197.195312 250.988281 198.234375 251.09375 199.273438 C 251.195312 200.316406 251.273438 201.359375 251.324219 202.402344 C 251.375 203.445312 251.398438 204.492188 251.398438 205.539062 Z M 251.398438 205.539062 "/></g></svg>