<svg xmlns="http://www.w3.org/2000/svg" xmlns:xlink="http://www.w3.org/1999/xlink" width="500" zoomAndPan="magnify" viewBox="0 0 375 374.999991" height="500" preserveAspectRatio="xMidYMid meet" version="1.2"><g id="a2f93085c2"><path style=" stroke:none;fill-rule:evenodd;fill:#02a9f7;fill-opacity:1;" d="M 257.8125 304.6875 C 270.75 304.6875 281.25 315.1875 281.25 328.125 C 281.25 341.0625 270.75 351.5625 257.8125 351.5625 C 244.875 351.5625 234.375 341.0625 234.375 328.125 C 234.375 315.1875 244.875 304.6875 257.8125 304.6875 Z M 210.9375 328.125 C 210.9375 354.011719 231.925781 375 257.8125 375 C 283.699219 375 304.6875 354.011719 304.6875 328.125 C 304.6875 302.238281 283.699219 281.25 257.8125 281.25 C 231.925781 281.25 210.9375 302.238281 210.9375 328.125 Z M 70.3125 70.3125 L 351.5625 70.3125 L 321.597656 190.183594 L 70.3125 210.9375 Z M 93.75 257.8125 C 80.8125 257.8125 70.3125 247.3125 70.3125 234.375 L 339.84375 210.9375 C 339.84375 210.9375 375 68.847656 375 58.59375 C 375 52.113281 369.761719 46.875 363.28125 46.875 L 70.3125 46.875 L 70.3125 23.4375 L 82.03125 23.4375 C 88.511719 23.4375 93.75 18.199219 93.75 11.71875 C 93.75 5.25 88.511719 0 82.03125 0 L 11.71875 0 C 5.238281 0 0 5.25 0 11.71875 C 0 18.199219 5.238281 23.4375 11.71875 23.4375 L 46.875 23.4375 L 46.875 234.375 C 46.875 260.261719 67.863281 281.25 93.75 281.25 L 363.28125 281.25 C 363.644531 281.25 363.28125 269.636719 363.28125 257.8125 Z M 117.1875 304.6875 C 130.125 304.6875 140.625 315.1875 140.625 328.125 C 140.625 341.0625 130.125 351.5625 117.1875 351.5625 C 104.25 351.5625 93.75 341.0625 93.75 328.125 C 93.75 315.1875 104.25 304.6875 117.1875 304.6875 Z M 70.3125 328.125 C 70.3125 354.011719 91.300781 375 117.1875 375 C 143.074219 375 164.0625 354.011719 164.0625 328.125 C 164.0625 302.238281 143.074219 281.25 117.1875 281.25 C 91.300781 281.25 70.3125 302.238281 70.3125 328.125 Z M 70.3125 328.125 "/></g></svg>