<svg xmlns="http://www.w3.org/2000/svg" xmlns:xlink="http://www.w3.org/1999/xlink" width="500" zoomAndPan="magnify" viewBox="0 0 375 374.999991" height="500" preserveAspectRatio="xMidYMid meet" version="1.2"><g id="a5ac185467"><path style=" stroke:none;fill-rule:nonzero;fill:#38ff5d;fill-opacity:1;" d="M 366.75 63.671875 C 361.5 51.25 354.003906 40.097656 344.441406 30.535156 C 334.878906 20.972656 323.726562 13.476562 311.304688 8.226562 C 298.460938 2.789062 284.824219 0.0234375 270.761719 0.0234375 L 104.191406 0.0234375 C 90.128906 0.0234375 76.492188 2.789062 63.601562 8.226562 C 51.179688 13.476562 40.027344 20.972656 30.464844 30.535156 C 20.902344 40.097656 13.40625 51.25 8.15625 63.671875 C 2.765625 76.515625 0 90.152344 0 104.214844 L 0 270.738281 C 0 284.800781 2.765625 298.4375 8.203125 311.328125 C 13.453125 323.75 20.949219 334.902344 30.511719 344.464844 C 40.074219 354.027344 51.226562 361.523438 63.648438 366.773438 C 76.492188 372.210938 90.175781 374.976562 104.238281 374.976562 L 270.761719 374.976562 C 284.824219 374.976562 298.460938 372.210938 311.351562 366.773438 C 323.773438 361.523438 334.925781 354.027344 344.488281 344.464844 C 354.050781 334.902344 361.546875 323.75 366.796875 311.328125 C 372.234375 298.484375 375 284.800781 375 270.738281 L 375 104.214844 C 374.953125 90.152344 372.1875 76.515625 366.75 63.671875 Z M 331.222656 270.785156 C 331.222656 304.109375 304.085938 331.246094 270.761719 331.246094 L 104.191406 331.246094 C 70.867188 331.246094 43.730469 304.109375 43.730469 270.785156 L 43.730469 104.214844 C 43.730469 70.890625 70.867188 43.753906 104.191406 43.753906 L 270.714844 43.753906 C 304.039062 43.753906 331.175781 70.890625 331.175781 104.214844 L 331.175781 270.785156 Z M 298.976562 127.648438 L 174.585938 275.519531 C 170.417969 280.441406 164.324219 283.300781 157.855469 283.300781 C 151.386719 283.300781 145.246094 280.441406 141.121094 275.472656 L 75.976562 197.90625 C 68.195312 188.671875 69.414062 174.84375 78.644531 167.113281 C 87.878906 159.332031 101.707031 160.550781 109.4375 169.785156 L 157.808594 227.433594 L 265.46875 99.480469 C 273.246094 90.246094 287.027344 89.027344 296.261719 96.808594 C 305.539062 104.589844 306.710938 118.414062 298.976562 127.648438 Z M 298.976562 127.648438 "/></g></svg>