<svg xmlns="http://www.w3.org/2000/svg" xmlns:xlink="http://www.w3.org/1999/xlink" width="500" zoomAndPan="magnify" viewBox="0 0 375 374.999991" height="500" preserveAspectRatio="xMidYMid meet" version="1.2"><g id="0270c8ed18"><path style=" stroke:none;fill-rule:nonzero;fill:#fffefe;fill-opacity:1;" d="M 373.828125 186.296875 C 373.394531 150.855469 362.839844 116.273438 343.40625 86.625 C 323.972656 56.976562 296.476562 33.5 264.148438 18.957031 C 231.820312 4.417969 196.011719 -0.585938 160.9375 4.542969 C 125.863281 9.671875 92.984375 24.714844 66.171875 47.902344 C 39.359375 71.089844 19.734375 101.457031 9.601562 135.425781 C -0.527344 169.394531 -0.742188 205.550781 8.988281 239.640625 C 18.71875 273.726562 37.984375 304.320312 64.519531 327.824219 C 91.054688 351.328125 123.753906 366.757812 158.765625 372.296875 L 158.765625 240.472656 L 112.265625 240.472656 L 112.265625 186.296875 L 158.765625 186.296875 L 158.765625 145.144531 C 157.691406 135.578125 158.726562 125.890625 161.804688 116.765625 C 164.882812 107.640625 169.925781 99.304688 176.578125 92.339844 C 183.230469 85.378906 191.328125 79.960938 200.304688 76.472656 C 209.277344 72.980469 218.910156 71.503906 228.515625 72.140625 C 242.460938 72.332031 256.375 73.578125 270.132812 75.863281 L 270.132812 122.363281 L 246.882812 122.363281 C 242.875 121.855469 238.800781 122.257812 234.972656 123.539062 C 231.136719 124.816406 227.640625 126.941406 224.738281 129.753906 C 221.835938 132.566406 219.605469 135.996094 218.207031 139.785156 C 216.808594 143.578125 216.28125 147.632812 216.660156 151.65625 L 216.660156 186.765625 L 268.273438 186.765625 L 259.90625 240.9375 L 216.890625 240.9375 L 216.890625 371.136719 C 260.832031 364.1875 300.828125 341.71875 329.621094 307.804688 C 358.414062 273.894531 374.097656 230.785156 373.828125 186.296875 Z M 373.828125 186.296875 "/></g></svg>