<svg xmlns="http://www.w3.org/2000/svg" xmlns:xlink="http://www.w3.org/1999/xlink" width="500" zoomAndPan="magnify" viewBox="0 0 375 374.999991" height="500" preserveAspectRatio="xMidYMid meet" version="1.2"><defs><clipPath id="c97e4a096c"><path d="M 8.863281 0 L 365.863281 0 L 365.863281 375 L 8.863281 375 Z M 8.863281 0 "/></clipPath></defs><g id="4176372a37"><g clip-rule="nonzero" clip-path="url(#c97e4a096c)"><path style=" stroke:none;fill-rule:evenodd;fill:#01303f;fill-opacity:1;" d="M 8.925781 17.84375 C 8.925781 7.988281 16.914062 0 26.769531 0 L 347.957031 0 C 357.8125 0 365.800781 7.988281 365.800781 17.84375 L 365.800781 71.375 C 365.800781 76.582031 363.523438 81.53125 359.570312 84.921875 L 240.894531 186.644531 L 240.894531 321.1875 C 240.894531 327.945312 237.074219 334.121094 231.03125 337.144531 L 159.65625 372.832031 C 154.167969 375.578125 147.65625 375.308594 142.414062 372.125 C 137.171875 368.941406 133.929688 363.285156 133.835938 357.152344 L 131.171875 186.632812 L 15.007812 84.792969 C 11.144531 81.402344 8.925781 76.515625 8.925781 71.375 Z M 44.613281 35.6875 L 44.613281 63.289062 L 160.652344 165.019531 C 164.445312 168.34375 166.652344 173.117188 166.730469 178.160156 L 169.074219 328.222656 L 205.207031 310.160156 L 205.207031 178.4375 C 205.207031 173.226562 207.484375 168.277344 211.4375 164.886719 L 330.113281 63.167969 L 330.113281 35.6875 Z M 44.613281 35.6875 "/></g></g></svg>