<svg xmlns="http://www.w3.org/2000/svg" xmlns:xlink="http://www.w3.org/1999/xlink" width="500" zoomAndPan="magnify" viewBox="0 0 375 374.999991" height="500" preserveAspectRatio="xMidYMid meet" version="1.2"><defs><clipPath id="da90cb4d65"><path d="M 10 37.5 L 269 37.5 L 269 251 L 10 251 Z M 10 37.5 "/></clipPath><clipPath id="94800bdfe2"><path d="M 0 317 L 279 317 L 279 321.75 L 0 321.75 Z M 0 317 "/></clipPath><clipPath id="c43df2f490"><path d="M 284 37.5 L 375 37.5 L 375 320 L 284 320 Z M 284 37.5 "/></clipPath></defs><g id="7b8ec81276"><g clip-rule="nonzero" clip-path="url(#da90cb4d65)"><path style=" stroke:none;fill-rule:nonzero;fill:#01303f;fill-opacity:1;" d="M 18.714844 218.121094 L 119.761719 218.121094 L 119.761719 237.621094 L 105.683594 237.621094 C 98.828125 237.621094 93.273438 243.179688 93.273438 250.03125 L 185.386719 250.03125 C 185.386719 243.179688 179.828125 237.621094 172.976562 237.621094 L 158.898438 237.621094 L 158.898438 218.121094 L 259.941406 218.121094 C 264.578125 218.121094 268.328125 214.371094 268.328125 209.734375 L 268.328125 45.964844 C 268.328125 41.328125 264.578125 37.578125 259.941406 37.578125 L 18.714844 37.578125 C 14.078125 37.578125 10.328125 41.328125 10.328125 45.964844 L 10.328125 209.734375 C 10.328125 214.339844 14.078125 218.121094 18.714844 218.121094 Z M 237.921875 207.589844 C 237.066406 207.589844 236.421875 206.90625 236.421875 206.089844 C 236.421875 205.269531 237.101562 204.589844 237.921875 204.589844 C 238.738281 204.589844 239.421875 205.269531 239.421875 206.089844 C 239.421875 206.90625 238.773438 207.589844 237.921875 207.589844 Z M 247.328125 209.089844 C 245.660156 209.089844 244.296875 207.722656 244.296875 206.054688 C 244.296875 204.382812 245.660156 203.019531 247.328125 203.019531 C 249 203.019531 250.363281 204.382812 250.363281 206.054688 C 250.363281 207.722656 249 209.089844 247.328125 209.089844 Z M 139.363281 39.382812 C 140.351562 39.382812 141.136719 40.167969 141.136719 41.15625 C 141.136719 42.144531 140.351562 42.929688 139.363281 42.929688 C 138.375 42.929688 137.589844 42.144531 137.589844 41.15625 C 137.589844 40.167969 138.375 39.382812 139.363281 39.382812 Z M 17.726562 48.792969 C 17.726562 46.644531 19.464844 44.941406 21.578125 44.941406 L 257.113281 44.941406 C 259.261719 44.941406 260.964844 46.679688 260.964844 48.792969 L 260.964844 191.972656 C 260.964844 194.121094 259.226562 195.828125 257.113281 195.828125 L 21.578125 195.828125 C 19.433594 195.828125 17.726562 194.089844 17.726562 191.972656 Z M 17.726562 48.792969 "/></g><path style=" stroke:none;fill-rule:nonzero;fill:#01303f;fill-opacity:1;" d="M 27.203125 259.304688 L 0 315.214844 L 278.691406 315.214844 L 251.488281 259.304688 Z M 10.328125 309.996094 L 32.453125 264.484375 L 246.203125 264.484375 L 268.328125 309.996094 Z M 10.328125 309.996094 "/><path style=" stroke:none;fill-rule:nonzero;fill:#01303f;fill-opacity:1;" d="M 52.839844 266.804688 L 41.316406 266.804688 L 38.761719 272.054688 L 50.285156 272.054688 Z M 52.839844 266.804688 "/><path style=" stroke:none;fill-rule:nonzero;fill:#01303f;fill-opacity:1;" d="M 48.476562 275.703125 L 36.988281 275.703125 L 34.398438 280.953125 L 45.921875 280.953125 Z M 48.476562 275.703125 "/><path style=" stroke:none;fill-rule:nonzero;fill:#01303f;fill-opacity:1;" d="M 32.625 284.632812 L 30.066406 289.882812 L 41.558594 289.882812 L 44.148438 284.632812 Z M 32.625 284.632812 "/><path style=" stroke:none;fill-rule:nonzero;fill:#01303f;fill-opacity:1;" d="M 25.703125 298.78125 L 37.226562 298.78125 L 39.785156 293.53125 L 28.261719 293.53125 Z M 25.703125 298.78125 "/><path style=" stroke:none;fill-rule:nonzero;fill:#01303f;fill-opacity:1;" d="M 21.375 307.714844 L 32.863281 307.714844 L 35.421875 302.464844 L 23.933594 302.464844 Z M 21.375 307.714844 "/><path style=" stroke:none;fill-rule:nonzero;fill:#01303f;fill-opacity:1;" d="M 71.25 266.804688 L 59.761719 266.804688 L 57.75 272.054688 L 69.238281 272.054688 Z M 71.25 266.804688 "/><path style=" stroke:none;fill-rule:nonzero;fill:#01303f;fill-opacity:1;" d="M 67.839844 275.703125 L 56.351562 275.703125 L 54.339844 280.953125 L 65.863281 280.953125 Z M 67.839844 275.703125 "/><path style=" stroke:none;fill-rule:nonzero;fill:#01303f;fill-opacity:1;" d="M 52.941406 284.632812 L 50.933594 289.882812 L 62.453125 289.882812 L 64.464844 284.632812 Z M 52.941406 284.632812 "/><path style=" stroke:none;fill-rule:nonzero;fill:#01303f;fill-opacity:1;" d="M 47.523438 298.78125 L 59.046875 298.78125 L 61.058594 293.53125 L 49.535156 293.53125 Z M 47.523438 298.78125 "/><path style=" stroke:none;fill-rule:nonzero;fill:#01303f;fill-opacity:1;" d="M 44.148438 307.714844 L 55.636719 307.714844 L 57.648438 302.464844 L 46.125 302.464844 Z M 44.148438 307.714844 "/><path style=" stroke:none;fill-rule:nonzero;fill:#01303f;fill-opacity:1;" d="M 89.183594 266.804688 L 77.691406 266.804688 L 75.988281 272.054688 L 87.476562 272.054688 Z M 89.183594 266.804688 "/><path style=" stroke:none;fill-rule:nonzero;fill:#01303f;fill-opacity:1;" d="M 86.285156 275.703125 L 74.796875 275.703125 L 73.089844 280.953125 L 84.578125 280.953125 Z M 86.285156 275.703125 "/><path style=" stroke:none;fill-rule:nonzero;fill:#01303f;fill-opacity:1;" d="M 81.714844 289.882812 L 83.421875 284.632812 L 71.898438 284.632812 L 70.191406 289.882812 Z M 81.714844 289.882812 "/><path style=" stroke:none;fill-rule:nonzero;fill:#01303f;fill-opacity:1;" d="M 67.296875 298.78125 L 78.816406 298.78125 L 80.523438 293.53125 L 69 293.53125 Z M 67.296875 298.78125 "/><path style=" stroke:none;fill-rule:nonzero;fill:#01303f;fill-opacity:1;" d="M 108.375 266.804688 L 96.851562 266.804688 L 95.453125 272.054688 L 106.941406 272.054688 Z M 108.375 266.804688 "/><path style=" stroke:none;fill-rule:nonzero;fill:#01303f;fill-opacity:1;" d="M 105.953125 275.703125 L 94.464844 275.703125 L 93.035156 280.953125 L 104.558594 280.953125 Z M 105.953125 275.703125 "/><path style=" stroke:none;fill-rule:nonzero;fill:#01303f;fill-opacity:1;" d="M 103.566406 284.632812 L 92.046875 284.632812 L 90.648438 289.882812 L 102.136719 289.882812 Z M 103.566406 284.632812 "/><path style=" stroke:none;fill-rule:nonzero;fill:#01303f;fill-opacity:1;" d="M 99.714844 298.78125 L 101.148438 293.53125 L 89.625 293.53125 L 88.226562 298.78125 Z M 99.714844 298.78125 "/><path style=" stroke:none;fill-rule:nonzero;fill:#01303f;fill-opacity:1;" d="M 126.613281 266.804688 L 115.089844 266.804688 L 114.613281 272.054688 L 126.101562 272.054688 Z M 126.613281 266.804688 "/><path style=" stroke:none;fill-rule:nonzero;fill:#01303f;fill-opacity:1;" d="M 125.761719 275.703125 L 114.238281 275.703125 L 113.761719 280.953125 L 125.25 280.953125 Z M 125.761719 275.703125 "/><path style=" stroke:none;fill-rule:nonzero;fill:#01303f;fill-opacity:1;" d="M 124.910156 284.632812 L 113.386719 284.632812 L 112.910156 289.882812 L 124.398438 289.882812 Z M 124.910156 284.632812 "/><path style=" stroke:none;fill-rule:nonzero;fill:#01303f;fill-opacity:1;" d="M 124.058594 293.53125 L 112.535156 293.53125 L 112.058594 298.78125 L 123.546875 298.78125 Z M 124.058594 293.53125 "/><path style=" stroke:none;fill-rule:nonzero;fill:#01303f;fill-opacity:1;" d="M 133.601562 266.804688 L 145.125 266.804688 L 145.125 272.054688 L 133.601562 272.054688 Z M 133.601562 266.804688 "/><path style=" stroke:none;fill-rule:nonzero;fill:#01303f;fill-opacity:1;" d="M 133.601562 275.703125 L 145.125 275.703125 L 145.125 280.953125 L 133.601562 280.953125 Z M 133.601562 275.703125 "/><path style=" stroke:none;fill-rule:nonzero;fill:#01303f;fill-opacity:1;" d="M 133.601562 284.632812 L 145.125 284.632812 L 145.125 289.882812 L 133.601562 289.882812 Z M 133.601562 284.632812 "/><path style=" stroke:none;fill-rule:nonzero;fill:#01303f;fill-opacity:1;" d="M 133.601562 293.53125 L 145.125 293.53125 L 145.125 298.78125 L 133.601562 298.78125 Z M 133.601562 293.53125 "/><path style=" stroke:none;fill-rule:nonzero;fill:#01303f;fill-opacity:1;" d="M 240.066406 272.054688 L 237.511719 266.804688 L 225.988281 266.804688 L 228.546875 272.054688 Z M 240.066406 272.054688 "/><path style=" stroke:none;fill-rule:nonzero;fill:#01303f;fill-opacity:1;" d="M 232.910156 280.953125 L 244.398438 280.953125 L 241.839844 275.703125 L 230.351562 275.703125 Z M 232.910156 280.953125 "/><path style=" stroke:none;fill-rule:nonzero;fill:#01303f;fill-opacity:1;" d="M 234.683594 284.632812 L 237.238281 289.882812 L 248.761719 289.882812 L 246.203125 284.632812 Z M 234.683594 284.632812 "/><path style=" stroke:none;fill-rule:nonzero;fill:#01303f;fill-opacity:1;" d="M 241.601562 298.78125 L 253.125 298.78125 L 250.566406 293.53125 L 239.046875 293.53125 Z M 241.601562 298.78125 "/><path style=" stroke:none;fill-rule:nonzero;fill:#01303f;fill-opacity:1;" d="M 245.964844 307.714844 L 257.453125 307.714844 L 254.898438 302.464844 L 243.410156 302.464844 Z M 245.964844 307.714844 "/><path style=" stroke:none;fill-rule:nonzero;fill:#01303f;fill-opacity:1;" d="M 221.078125 272.054688 L 219.066406 266.804688 L 207.578125 266.804688 L 209.558594 272.054688 Z M 221.078125 272.054688 "/><path style=" stroke:none;fill-rule:nonzero;fill:#01303f;fill-opacity:1;" d="M 212.964844 280.953125 L 224.488281 280.953125 L 222.476562 275.703125 L 210.953125 275.703125 Z M 212.964844 280.953125 "/><path style=" stroke:none;fill-rule:nonzero;fill:#01303f;fill-opacity:1;" d="M 225.886719 284.632812 L 214.363281 284.632812 L 216.375 289.882812 L 227.898438 289.882812 Z M 225.886719 284.632812 "/><path style=" stroke:none;fill-rule:nonzero;fill:#01303f;fill-opacity:1;" d="M 229.296875 293.53125 L 217.773438 293.53125 L 219.785156 298.78125 L 231.273438 298.78125 Z M 229.296875 293.53125 "/><path style=" stroke:none;fill-rule:nonzero;fill:#01303f;fill-opacity:1;" d="M 221.183594 302.464844 L 223.191406 307.714844 L 234.683594 307.714844 L 232.703125 302.464844 Z M 221.183594 302.464844 "/><path style=" stroke:none;fill-rule:nonzero;fill:#01303f;fill-opacity:1;" d="M 202.839844 272.054688 L 201.136719 266.804688 L 189.648438 266.804688 L 191.316406 272.054688 Z M 202.839844 272.054688 "/><path style=" stroke:none;fill-rule:nonzero;fill:#01303f;fill-opacity:1;" d="M 194.214844 280.953125 L 205.738281 280.953125 L 204.035156 275.703125 L 192.511719 275.703125 Z M 194.214844 280.953125 "/><path style=" stroke:none;fill-rule:nonzero;fill:#01303f;fill-opacity:1;" d="M 197.113281 289.882812 L 208.636719 289.882812 L 206.933594 284.632812 L 195.410156 284.632812 Z M 197.113281 289.882812 "/><path style=" stroke:none;fill-rule:nonzero;fill:#01303f;fill-opacity:1;" d="M 198.308594 293.53125 L 200.011719 298.78125 L 211.535156 298.78125 L 209.828125 293.53125 Z M 198.308594 293.53125 "/><path style=" stroke:none;fill-rule:nonzero;fill:#01303f;fill-opacity:1;" d="M 212.386719 302.464844 L 66.101562 302.464844 L 64.398438 307.714844 L 214.398438 307.714844 L 212.691406 302.464844 Z M 212.386719 302.464844 "/><path style=" stroke:none;fill-rule:nonzero;fill:#01303f;fill-opacity:1;" d="M 183.375 272.054688 L 181.941406 266.804688 L 170.453125 266.804688 L 171.851562 272.054688 Z M 183.375 272.054688 "/><path style=" stroke:none;fill-rule:nonzero;fill:#01303f;fill-opacity:1;" d="M 174.273438 280.953125 L 185.796875 280.953125 L 184.363281 275.703125 L 172.839844 275.703125 Z M 174.273438 280.953125 "/><path style=" stroke:none;fill-rule:nonzero;fill:#01303f;fill-opacity:1;" d="M 176.691406 289.882812 L 188.183594 289.882812 L 186.785156 284.632812 L 175.261719 284.632812 Z M 176.691406 289.882812 "/><path style=" stroke:none;fill-rule:nonzero;fill:#01303f;fill-opacity:1;" d="M 179.078125 298.78125 L 190.601562 298.78125 L 189.171875 293.53125 L 177.683594 293.53125 Z M 179.078125 298.78125 "/><path style=" stroke:none;fill-rule:nonzero;fill:#01303f;fill-opacity:1;" d="M 164.214844 272.054688 L 163.703125 266.804688 L 152.214844 266.804688 L 152.691406 272.054688 Z M 164.214844 272.054688 "/><path style=" stroke:none;fill-rule:nonzero;fill:#01303f;fill-opacity:1;" d="M 153.578125 280.953125 L 165.066406 280.953125 L 164.558594 275.703125 L 153.066406 275.703125 Z M 153.578125 280.953125 "/><path style=" stroke:none;fill-rule:nonzero;fill:#01303f;fill-opacity:1;" d="M 154.433594 289.882812 L 165.921875 289.882812 L 165.410156 284.632812 L 153.921875 284.632812 Z M 154.433594 289.882812 "/><path style=" stroke:none;fill-rule:nonzero;fill:#01303f;fill-opacity:1;" d="M 155.285156 298.78125 L 166.773438 298.78125 L 166.296875 293.53125 L 154.773438 293.53125 Z M 155.285156 298.78125 "/><g clip-rule="nonzero" clip-path="url(#94800bdfe2)"><path style=" stroke:none;fill-rule:nonzero;fill:#01303f;fill-opacity:1;" d="M 0 317.429688 L 278.691406 317.429688 L 278.691406 321.519531 L 0 321.519531 Z M 0 317.429688 "/></g><g clip-rule="nonzero" clip-path="url(#c43df2f490)"><path style=" stroke:none;fill-rule:nonzero;fill:#01303f;fill-opacity:1;" d="M 368.078125 37.542969 L 290.964844 37.542969 C 287.148438 37.542969 284.046875 40.644531 284.046875 44.464844 L 284.046875 312.519531 C 284.046875 316.339844 287.148438 319.441406 290.964844 319.441406 L 368.078125 319.441406 C 371.898438 319.441406 375 316.339844 375 312.519531 L 375 44.496094 C 375 40.644531 371.898438 37.542969 368.078125 37.542969 Z M 329.523438 291.484375 C 327.238281 291.484375 325.363281 289.609375 325.363281 287.328125 C 325.363281 285.042969 327.238281 283.167969 329.523438 283.167969 C 331.808594 283.167969 333.683594 285.042969 333.683594 287.328125 C 333.683594 289.609375 331.808594 291.484375 329.523438 291.484375 Z M 329.523438 269.121094 C 324.921875 269.121094 321.203125 265.40625 321.203125 260.804688 C 321.203125 256.203125 324.921875 252.484375 329.523438 252.484375 C 334.125 252.484375 337.839844 256.203125 337.839844 260.804688 C 337.839844 265.40625 334.089844 269.121094 329.523438 269.121094 Z M 362.691406 164.804688 L 296.351562 164.804688 C 294.273438 164.804688 292.566406 163.097656 292.566406 161.019531 C 292.566406 158.941406 294.273438 157.234375 296.351562 157.234375 L 362.691406 157.234375 C 364.773438 157.234375 366.476562 158.941406 366.476562 161.019531 C 366.476562 163.097656 364.773438 164.804688 362.691406 164.804688 Z M 362.691406 151.371094 L 296.351562 151.371094 C 294.273438 151.371094 292.566406 149.667969 292.566406 147.589844 C 292.566406 145.507812 294.273438 143.804688 296.351562 143.804688 L 362.691406 143.804688 C 364.773438 143.804688 366.476562 145.507812 366.476562 147.589844 C 366.476562 149.667969 364.773438 151.371094 362.691406 151.371094 Z M 362.691406 137.941406 L 296.351562 137.941406 C 294.273438 137.941406 292.566406 136.234375 292.566406 134.15625 C 292.566406 132.078125 294.273438 130.371094 296.351562 130.371094 L 362.691406 130.371094 C 364.773438 130.371094 366.476562 132.078125 366.476562 134.15625 C 366.476562 136.234375 364.773438 137.941406 362.691406 137.941406 Z M 362.691406 124.542969 L 296.351562 124.542969 C 294.273438 124.542969 292.566406 122.839844 292.566406 120.757812 C 292.566406 118.679688 294.273438 116.972656 296.351562 116.972656 L 362.691406 116.972656 C 364.773438 116.972656 366.476562 118.679688 366.476562 120.757812 C 366.476562 122.839844 364.773438 124.542969 362.691406 124.542969 Z M 364.566406 70.40625 L 294.441406 70.40625 C 293.386719 70.40625 292.535156 69.554688 292.535156 68.496094 C 292.535156 67.441406 293.386719 66.589844 294.441406 66.589844 L 364.566406 66.589844 C 365.625 66.589844 366.476562 67.441406 366.476562 68.496094 C 366.476562 69.554688 365.625 70.40625 364.566406 70.40625 Z M 364.566406 59.292969 L 294.441406 59.292969 C 293.386719 59.292969 292.535156 58.441406 292.535156 57.382812 C 292.535156 56.328125 293.386719 55.472656 294.441406 55.472656 L 364.566406 55.472656 C 365.625 55.472656 366.476562 56.328125 366.476562 57.382812 C 366.476562 58.441406 365.625 59.292969 364.566406 59.292969 Z M 364.566406 59.292969 "/></g></g></svg>