<svg xmlns="http://www.w3.org/2000/svg" xmlns:xlink="http://www.w3.org/1999/xlink" width="500" zoomAndPan="magnify" viewBox="0 0 375 374.999991" height="500" preserveAspectRatio="xMidYMid meet" version="1.2"><defs><clipPath id="2c29be7c50"><path d="M 0 61.640625 L 375 61.640625 L 375 313.640625 L 0 313.640625 Z M 0 61.640625 "/></clipPath></defs><g id="29bfbe0cf0"><g clip-rule="nonzero" clip-path="url(#2c29be7c50)"><path style=" stroke:none;fill-rule:nonzero;fill:#01303f;fill-opacity:1;" d="M 34.445312 61.640625 C 27.375 61.640625 21.472656 67.441406 21.472656 74.527344 L 21.472656 136.621094 L 5.40625 136.621094 C 5.054688 136.621094 4.707031 136.65625 4.359375 136.722656 C 4.015625 136.792969 3.679688 136.894531 3.355469 137.027344 C 3.03125 137.164062 2.722656 137.328125 2.429688 137.523438 C 2.136719 137.71875 1.867188 137.941406 1.617188 138.191406 C 1.371094 138.4375 1.148438 138.707031 0.953125 139 C 0.757812 139.292969 0.59375 139.601562 0.457031 139.925781 C 0.324219 140.25 0.222656 140.585938 0.152344 140.929688 C 0.0859375 141.277344 0.0507812 141.625 0.0507812 141.976562 L 0.0507812 195.535156 C 0.0507812 195.886719 0.0859375 196.234375 0.152344 196.578125 C 0.222656 196.921875 0.324219 197.257812 0.457031 197.582031 C 0.59375 197.90625 0.757812 198.214844 0.953125 198.507812 C 1.148438 198.800781 1.371094 199.070312 1.617188 199.320312 C 1.867188 199.570312 2.136719 199.792969 2.429688 199.988281 C 2.722656 200.183594 3.03125 200.347656 3.355469 200.480469 C 3.679688 200.617188 4.015625 200.71875 4.359375 200.785156 C 4.707031 200.855469 5.054688 200.890625 5.40625 200.890625 L 21.472656 200.890625 L 21.472656 227.667969 L 10.761719 227.667969 C 10.410156 227.667969 10.0625 227.703125 9.714844 227.769531 C 9.371094 227.839844 9.035156 227.941406 8.710938 228.074219 C 8.386719 228.210938 8.078125 228.375 7.785156 228.570312 C 7.492188 228.765625 7.222656 228.988281 6.972656 229.238281 C 6.726562 229.484375 6.503906 229.753906 6.308594 230.046875 C 6.113281 230.339844 5.949219 230.648438 5.8125 230.972656 C 5.679688 231.300781 5.578125 231.632812 5.507812 231.980469 C 5.441406 232.324219 5.40625 232.671875 5.40625 233.023438 L 5.40625 281.226562 C 5.40625 281.578125 5.441406 281.925781 5.507812 282.269531 C 5.578125 282.613281 5.679688 282.949219 5.8125 283.273438 C 5.949219 283.597656 6.113281 283.90625 6.308594 284.199219 C 6.503906 284.492188 6.726562 284.761719 6.972656 285.011719 C 7.222656 285.261719 7.492188 285.484375 7.785156 285.679688 C 8.078125 285.875 8.386719 286.039062 8.710938 286.171875 C 9.035156 286.308594 9.371094 286.410156 9.714844 286.476562 C 10.0625 286.546875 10.410156 286.582031 10.761719 286.582031 L 21.472656 286.582031 L 21.472656 300.472656 C 21.472656 307.558594 27.375 313.359375 34.445312 313.359375 L 353.527344 313.359375 C 353.878906 313.359375 354.226562 313.324219 354.570312 313.257812 C 354.917969 313.1875 355.25 313.085938 355.578125 312.953125 C 355.902344 312.816406 356.210938 312.652344 356.503906 312.457031 C 356.796875 312.261719 357.066406 312.039062 357.3125 311.789062 C 357.5625 311.542969 357.785156 311.269531 357.980469 310.980469 C 358.175781 310.6875 358.339844 310.378906 358.476562 310.054688 C 358.609375 309.726562 358.710938 309.394531 358.78125 309.046875 C 358.847656 308.703125 358.882812 308.355469 358.882812 308.003906 L 358.882812 294.152344 L 373.382812 279.65625 C 373.882812 279.152344 374.269531 278.574219 374.542969 277.917969 C 374.8125 277.261719 374.949219 276.578125 374.949219 275.871094 L 374.949219 142.3125 C 374.949219 141.597656 374.8125 140.90625 374.535156 140.25 C 374.261719 139.589844 373.867188 139.007812 373.359375 138.503906 L 359.71875 125.007812 L 359.71875 82.050781 C 359.71875 81.316406 359.574219 80.609375 359.28125 79.9375 C 358.992188 79.261719 358.578125 78.671875 358.046875 78.167969 L 342.179688 63.117188 C 341.144531 62.132812 339.917969 61.644531 338.496094 61.640625 Z M 34.445312 72.351562 L 336.363281 72.351562 L 349.007812 84.351562 L 349.007812 127.238281 C 349.007812 127.953125 349.144531 128.644531 349.421875 129.304688 C 349.695312 129.96875 350.089844 130.550781 350.597656 131.054688 L 364.238281 144.539062 L 364.238281 273.652344 L 349.742188 288.148438 C 349.238281 288.652344 348.851562 289.230469 348.578125 289.886719 C 348.308594 290.542969 348.171875 291.226562 348.171875 291.9375 L 348.171875 302.648438 L 34.445312 302.648438 C 33.105469 302.648438 32.183594 301.699219 32.183594 300.472656 L 32.183594 286.582031 L 69.675781 286.582031 C 70.027344 286.582031 70.375 286.546875 70.71875 286.476562 C 71.0625 286.410156 71.398438 286.308594 71.722656 286.171875 C 72.046875 286.039062 72.355469 285.875 72.648438 285.679688 C 72.941406 285.484375 73.210938 285.261719 73.460938 285.011719 C 73.710938 284.761719 73.933594 284.492188 74.128906 284.199219 C 74.324219 283.90625 74.488281 283.597656 74.621094 283.273438 C 74.757812 282.949219 74.859375 282.613281 74.925781 282.269531 C 74.996094 281.925781 75.03125 281.578125 75.03125 281.226562 L 75.03125 233.023438 C 75.03125 232.671875 74.996094 232.324219 74.925781 231.980469 C 74.859375 231.632812 74.757812 231.300781 74.621094 230.972656 C 74.488281 230.648438 74.324219 230.339844 74.128906 230.046875 C 73.933594 229.753906 73.710938 229.484375 73.460938 229.238281 C 73.210938 228.988281 72.941406 228.765625 72.648438 228.570312 C 72.355469 228.375 72.046875 228.210938 71.722656 228.074219 C 71.398438 227.941406 71.0625 227.839844 70.71875 227.769531 C 70.375 227.703125 70.027344 227.667969 69.675781 227.667969 L 32.183594 227.667969 L 32.183594 200.890625 L 69.675781 200.890625 C 70.027344 200.890625 70.375 200.855469 70.71875 200.785156 C 71.0625 200.71875 71.398438 200.617188 71.722656 200.480469 C 72.046875 200.347656 72.355469 200.183594 72.648438 199.988281 C 72.941406 199.792969 73.210938 199.570312 73.460938 199.320312 C 73.710938 199.070312 73.933594 198.800781 74.128906 198.507812 C 74.324219 198.214844 74.488281 197.90625 74.621094 197.582031 C 74.757812 197.257812 74.859375 196.921875 74.925781 196.578125 C 74.996094 196.234375 75.03125 195.886719 75.03125 195.535156 L 75.03125 141.976562 C 75.03125 141.625 74.996094 141.277344 74.925781 140.929688 C 74.859375 140.585938 74.757812 140.25 74.621094 139.925781 C 74.488281 139.601562 74.324219 139.292969 74.128906 139 C 73.933594 138.707031 73.710938 138.4375 73.460938 138.191406 C 73.210938 137.941406 72.941406 137.71875 72.648438 137.523438 C 72.355469 137.328125 72.046875 137.164062 71.722656 137.027344 C 71.398438 136.894531 71.0625 136.792969 70.71875 136.722656 C 70.375 136.65625 70.027344 136.621094 69.675781 136.621094 L 32.183594 136.621094 L 32.183594 74.527344 C 32.183594 73.300781 33.105469 72.351562 34.445312 72.351562 Z M 56.285156 88.417969 C 51.851562 88.417969 48.25 92.019531 48.25 96.453125 L 48.25 112.519531 C 48.25 116.953125 51.851562 120.554688 56.285156 120.554688 L 72.351562 120.554688 C 76.785156 120.554688 80.386719 116.953125 80.386719 112.519531 L 80.386719 96.453125 C 80.386719 92.019531 76.785156 88.417969 72.351562 88.417969 Z M 104.488281 88.417969 C 103.957031 88.417969 103.4375 88.46875 102.917969 88.574219 C 102.402344 88.675781 101.898438 88.828125 101.410156 89.03125 C 100.925781 89.234375 100.460938 89.480469 100.023438 89.773438 C 99.585938 90.066406 99.179688 90.398438 98.804688 90.773438 C 98.433594 91.144531 98.101562 91.550781 97.808594 91.988281 C 97.511719 92.429688 97.265625 92.890625 97.0625 93.378906 C 96.863281 93.867188 96.710938 94.367188 96.605469 94.886719 C 96.503906 95.402344 96.453125 95.925781 96.453125 96.453125 C 96.453125 96.980469 96.503906 97.503906 96.605469 98.019531 C 96.710938 98.539062 96.863281 99.039062 97.0625 99.527344 C 97.265625 100.015625 97.511719 100.476562 97.808594 100.914062 C 98.101562 101.355469 98.433594 101.761719 98.804688 102.132812 C 99.179688 102.507812 99.585938 102.839844 100.023438 103.132812 C 100.460938 103.425781 100.925781 103.671875 101.410156 103.875 C 101.898438 104.078125 102.402344 104.230469 102.917969 104.332031 C 103.4375 104.433594 103.957031 104.488281 104.488281 104.488281 C 105.015625 104.488281 105.535156 104.433594 106.054688 104.332031 C 106.570312 104.230469 107.074219 104.078125 107.5625 103.875 C 108.046875 103.671875 108.511719 103.425781 108.949219 103.132812 C 109.386719 102.839844 109.792969 102.507812 110.167969 102.132812 C 110.539062 101.761719 110.871094 101.355469 111.167969 100.914062 C 111.460938 100.476562 111.707031 100.015625 111.910156 99.527344 C 112.109375 99.039062 112.261719 98.539062 112.367188 98.019531 C 112.46875 97.503906 112.519531 96.980469 112.519531 96.453125 C 112.519531 95.925781 112.46875 95.402344 112.367188 94.886719 C 112.261719 94.367188 112.109375 93.867188 111.910156 93.378906 C 111.707031 92.890625 111.460938 92.429688 111.164062 91.988281 C 110.871094 91.550781 110.539062 91.144531 110.167969 90.773438 C 109.792969 90.398438 109.386719 90.066406 108.949219 89.773438 C 108.511719 89.480469 108.046875 89.234375 107.5625 89.03125 C 107.074219 88.828125 106.570312 88.675781 106.054688 88.574219 C 105.535156 88.46875 105.015625 88.417969 104.488281 88.417969 Z M 133.941406 93.773438 C 133.589844 93.769531 133.234375 93.800781 132.886719 93.863281 C 132.539062 93.929688 132.199219 94.027344 131.871094 94.160156 C 131.539062 94.292969 131.226562 94.457031 130.929688 94.652344 C 130.632812 94.84375 130.359375 95.066406 130.105469 95.316406 C 129.855469 95.566406 129.628906 95.835938 129.429688 96.132812 C 129.230469 96.425781 129.0625 96.734375 128.925781 97.0625 C 128.789062 97.390625 128.683594 97.726562 128.617188 98.078125 C 128.546875 98.425781 128.511719 98.777344 128.511719 99.128906 C 128.511719 99.484375 128.546875 99.835938 128.617188 100.183594 C 128.683594 100.53125 128.789062 100.871094 128.925781 101.199219 C 129.0625 101.523438 129.230469 101.835938 129.429688 102.128906 C 129.628906 102.425781 129.855469 102.695312 130.105469 102.945312 C 130.359375 103.195312 130.632812 103.414062 130.929688 103.609375 C 131.226562 103.804688 131.539062 103.96875 131.871094 104.101562 C 132.199219 104.234375 132.539062 104.332031 132.886719 104.398438 C 133.234375 104.460938 133.589844 104.492188 133.941406 104.488281 C 134.296875 104.492188 134.648438 104.460938 135 104.398438 C 135.347656 104.332031 135.6875 104.234375 136.015625 104.101562 C 136.34375 103.96875 136.65625 103.804688 136.953125 103.609375 C 137.25 103.414062 137.527344 103.195312 137.777344 102.945312 C 138.03125 102.695312 138.257812 102.425781 138.457031 102.128906 C 138.65625 101.835938 138.824219 101.523438 138.960938 101.199219 C 139.097656 100.871094 139.199219 100.53125 139.269531 100.183594 C 139.339844 99.835938 139.375 99.484375 139.375 99.128906 C 139.375 98.777344 139.339844 98.425781 139.269531 98.078125 C 139.199219 97.726562 139.097656 97.390625 138.960938 97.0625 C 138.824219 96.734375 138.65625 96.425781 138.457031 96.132812 C 138.257812 95.835938 138.03125 95.566406 137.777344 95.316406 C 137.527344 95.066406 137.25 94.84375 136.953125 94.652344 C 136.65625 94.457031 136.34375 94.292969 136.015625 94.160156 C 135.6875 94.027344 135.347656 93.929688 135 93.863281 C 134.648438 93.800781 134.296875 93.769531 133.941406 93.773438 Z M 153.222656 93.773438 L 148.933594 95.929688 L 148.085938 100.648438 L 151.371094 104.152344 L 153.222656 104.488281 L 157.511719 102.332031 L 158.355469 97.613281 L 155.082031 94.109375 Z M 172.5 93.773438 L 168.210938 95.929688 L 167.363281 100.648438 L 170.648438 104.152344 L 172.5 104.488281 L 176.800781 102.332031 L 177.636719 97.613281 L 174.363281 94.109375 Z M 191.789062 93.773438 L 187.488281 95.929688 L 186.652344 100.648438 L 189.925781 104.152344 L 191.789062 104.488281 L 196.078125 102.332031 L 196.925781 97.613281 L 193.640625 94.109375 Z M 211.066406 93.773438 L 206.777344 95.929688 L 205.929688 100.648438 L 209.207031 104.152344 L 211.066406 104.488281 L 215.355469 102.332031 L 216.203125 97.613281 L 212.917969 94.109375 Z M 230.347656 93.773438 C 229.992188 93.769531 229.640625 93.800781 229.289062 93.863281 C 228.941406 93.929688 228.601562 94.027344 228.273438 94.160156 C 227.945312 94.292969 227.628906 94.457031 227.332031 94.652344 C 227.035156 94.84375 226.761719 95.066406 226.507812 95.316406 C 226.257812 95.566406 226.03125 95.835938 225.832031 96.132812 C 225.632812 96.425781 225.464844 96.734375 225.328125 97.0625 C 225.191406 97.390625 225.089844 97.726562 225.019531 98.078125 C 224.949219 98.425781 224.914062 98.777344 224.914062 99.128906 C 224.914062 99.484375 224.949219 99.835938 225.019531 100.183594 C 225.089844 100.53125 225.191406 100.871094 225.328125 101.199219 C 225.464844 101.523438 225.632812 101.835938 225.832031 102.128906 C 226.03125 102.425781 226.257812 102.695312 226.507812 102.945312 C 226.761719 103.195312 227.035156 103.414062 227.332031 103.609375 C 227.628906 103.804688 227.945312 103.96875 228.273438 104.101562 C 228.601562 104.234375 228.941406 104.332031 229.289062 104.398438 C 229.640625 104.460938 229.992188 104.492188 230.347656 104.488281 Z M 262.480469 93.773438 L 262.480469 104.488281 C 262.835938 104.492188 263.1875 104.460938 263.535156 104.398438 C 263.882812 104.332031 264.222656 104.234375 264.554688 104.101562 C 264.882812 103.96875 265.195312 103.804688 265.492188 103.609375 C 265.789062 103.414062 266.0625 103.195312 266.316406 102.945312 C 266.570312 102.695312 266.792969 102.425781 266.992188 102.128906 C 267.191406 101.835938 267.359375 101.523438 267.496094 101.199219 C 267.632812 100.871094 267.738281 100.53125 267.808594 100.183594 C 267.878906 99.835938 267.910156 99.484375 267.910156 99.128906 C 267.910156 98.777344 267.878906 98.425781 267.808594 98.078125 C 267.738281 97.726562 267.632812 97.390625 267.496094 97.0625 C 267.359375 96.734375 267.191406 96.425781 266.992188 96.132812 C 266.792969 95.835938 266.570312 95.566406 266.316406 95.316406 C 266.0625 95.066406 265.789062 94.84375 265.492188 94.652344 C 265.195312 94.457031 264.882812 94.292969 264.554688 94.160156 C 264.222656 94.027344 263.882812 93.929688 263.535156 93.863281 C 263.1875 93.800781 262.835938 93.769531 262.480469 93.773438 Z M 283.902344 93.773438 L 279.613281 95.929688 L 278.765625 100.648438 L 282.039062 104.152344 L 283.902344 104.488281 L 288.191406 102.332031 L 289.039062 97.613281 L 285.765625 94.109375 Z M 305.324219 93.773438 L 301.035156 95.929688 L 300.191406 100.648438 L 303.464844 104.152344 L 305.324219 104.488281 L 309.613281 102.332031 L 310.460938 97.613281 L 307.1875 94.109375 Z M 326.75 93.773438 C 326.394531 93.769531 326.042969 93.800781 325.691406 93.863281 C 325.34375 93.929688 325.003906 94.027344 324.675781 94.160156 C 324.347656 94.292969 324.035156 94.457031 323.738281 94.652344 C 323.441406 94.84375 323.164062 95.066406 322.914062 95.316406 C 322.660156 95.566406 322.433594 95.835938 322.234375 96.132812 C 322.035156 96.425781 321.867188 96.734375 321.730469 97.0625 C 321.59375 97.390625 321.492188 97.726562 321.421875 98.078125 C 321.351562 98.425781 321.316406 98.777344 321.316406 99.128906 C 321.316406 99.484375 321.351562 99.835938 321.421875 100.183594 C 321.492188 100.53125 321.59375 100.871094 321.730469 101.199219 C 321.867188 101.523438 322.035156 101.835938 322.234375 102.128906 C 322.433594 102.425781 322.660156 102.695312 322.914062 102.945312 C 323.164062 103.195312 323.441406 103.414062 323.738281 103.609375 C 324.035156 103.804688 324.347656 103.96875 324.675781 104.101562 C 325.003906 104.234375 325.34375 104.332031 325.691406 104.398438 C 326.042969 104.460938 326.394531 104.492188 326.75 104.488281 Z M 206.476562 120.554688 C 193.136719 120.554688 182.144531 131.375 182.144531 144.652344 C 182.144531 157.933594 193.136719 168.753906 206.476562 168.753906 C 221.34375 168.753906 228.640625 160.695312 233.023438 154.152344 C 237.40625 160.695312 244.703125 168.753906 259.570312 168.753906 C 272.914062 168.753906 283.902344 157.933594 283.902344 144.652344 C 283.902344 131.375 272.914062 120.554688 259.570312 120.554688 C 244.703125 120.554688 237.40625 128.613281 233.023438 135.15625 C 228.640625 128.613281 221.34375 120.554688 206.476562 120.554688 Z M 206.476562 131.265625 C 219.894531 131.265625 225.304688 141.613281 226.746094 144.652344 C 225.304688 147.691406 219.894531 158.042969 206.476562 158.042969 C 198.851562 158.042969 192.855469 152.078125 192.855469 144.652344 C 192.855469 137.230469 198.851562 131.265625 206.476562 131.265625 Z M 259.570312 131.265625 C 267.195312 131.265625 273.191406 137.230469 273.191406 144.652344 C 273.191406 152.078125 267.195312 158.042969 259.570312 158.042969 C 246.144531 158.042969 240.742188 147.691406 239.300781 144.652344 C 240.742188 141.613281 246.152344 131.265625 259.570312 131.265625 Z M 10.761719 147.332031 L 64.320312 147.332031 L 64.320312 190.179688 L 10.761719 190.179688 Z M 340.136719 152.6875 C 335.703125 152.6875 332.105469 156.285156 332.105469 160.722656 C 332.105469 165.15625 335.703125 168.753906 340.136719 168.753906 C 344.574219 168.753906 348.171875 165.15625 348.171875 160.722656 C 348.171875 156.285156 344.574219 152.6875 340.136719 152.6875 Z M 101.808594 158.042969 C 101.457031 158.042969 101.109375 158.078125 100.765625 158.148438 C 100.417969 158.214844 100.082031 158.316406 99.757812 158.453125 C 99.433594 158.585938 99.125 158.75 98.832031 158.945312 C 98.539062 159.140625 98.269531 159.363281 98.023438 159.613281 C 97.773438 159.859375 97.550781 160.132812 97.355469 160.425781 C 97.160156 160.714844 96.996094 161.023438 96.859375 161.351562 C 96.726562 161.675781 96.625 162.007812 96.554688 162.355469 C 96.488281 162.699219 96.453125 163.046875 96.453125 163.398438 L 96.453125 195.535156 C 96.453125 195.886719 96.488281 196.234375 96.554688 196.578125 C 96.625 196.921875 96.726562 197.257812 96.859375 197.582031 C 96.996094 197.90625 97.160156 198.214844 97.355469 198.507812 C 97.550781 198.800781 97.773438 199.070312 98.023438 199.320312 C 98.269531 199.570312 98.539062 199.792969 98.832031 199.988281 C 99.125 200.183594 99.433594 200.347656 99.757812 200.480469 C 100.082031 200.617188 100.417969 200.71875 100.765625 200.785156 C 101.109375 200.855469 101.457031 200.890625 101.808594 200.890625 L 133.941406 200.890625 C 134.292969 200.890625 134.644531 200.855469 134.988281 200.785156 C 135.332031 200.71875 135.667969 200.617188 135.992188 200.480469 C 136.316406 200.347656 136.625 200.183594 136.917969 199.988281 C 137.210938 199.792969 137.480469 199.570312 137.730469 199.320312 C 137.976562 199.070312 138.199219 198.800781 138.394531 198.507812 C 138.589844 198.214844 138.757812 197.90625 138.890625 197.582031 C 139.023438 197.257812 139.125 196.921875 139.195312 196.578125 C 139.265625 196.234375 139.296875 195.886719 139.296875 195.535156 L 139.296875 163.398438 C 139.296875 163.046875 139.265625 162.699219 139.195312 162.355469 C 139.125 162.007812 139.023438 161.675781 138.890625 161.351562 C 138.757812 161.023438 138.589844 160.714844 138.394531 160.425781 C 138.199219 160.132812 137.976562 159.859375 137.730469 159.613281 C 137.480469 159.363281 137.210938 159.140625 136.917969 158.945312 C 136.625 158.75 136.316406 158.585938 135.992188 158.453125 C 135.667969 158.316406 135.332031 158.214844 134.988281 158.148438 C 134.644531 158.078125 134.292969 158.042969 133.941406 158.042969 Z M 107.164062 168.753906 L 128.585938 168.753906 L 128.585938 190.179688 L 107.164062 190.179688 Z M 171.433594 190.179688 C 171.082031 190.179688 170.734375 190.210938 170.386719 190.28125 C 170.042969 190.347656 169.707031 190.449219 169.382812 190.585938 C 169.058594 190.71875 168.75 190.886719 168.457031 191.082031 C 168.164062 191.277344 167.894531 191.496094 167.644531 191.746094 C 167.398438 191.996094 167.175781 192.265625 166.980469 192.558594 C 166.785156 192.851562 166.621094 193.160156 166.484375 193.484375 C 166.351562 193.808594 166.25 194.144531 166.179688 194.488281 C 166.113281 194.832031 166.078125 195.183594 166.078125 195.535156 L 166.078125 233.023438 C 166.078125 233.375 166.113281 233.722656 166.179688 234.070312 C 166.25 234.414062 166.351562 234.75 166.484375 235.074219 C 166.621094 235.398438 166.785156 235.707031 166.980469 236 C 167.175781 236.292969 167.398438 236.5625 167.644531 236.808594 C 167.894531 237.058594 168.164062 237.28125 168.457031 237.476562 C 168.75 237.671875 169.058594 237.835938 169.382812 237.972656 C 169.707031 238.105469 170.042969 238.207031 170.386719 238.277344 C 170.734375 238.34375 171.082031 238.378906 171.433594 238.378906 L 337.460938 238.378906 C 337.8125 238.378906 338.160156 238.34375 338.503906 238.277344 C 338.851562 238.207031 339.183594 238.105469 339.507812 237.972656 C 339.835938 237.835938 340.144531 237.671875 340.433594 237.476562 C 340.726562 237.28125 341 237.058594 341.246094 236.808594 C 341.496094 236.5625 341.71875 236.292969 341.914062 236 C 342.109375 235.707031 342.273438 235.398438 342.40625 235.074219 C 342.542969 234.75 342.644531 234.414062 342.710938 234.070312 C 342.78125 233.722656 342.816406 233.375 342.816406 233.023438 L 342.816406 195.535156 C 342.816406 195.183594 342.78125 194.832031 342.710938 194.488281 C 342.644531 194.144531 342.542969 193.808594 342.40625 193.484375 C 342.273438 193.160156 342.109375 192.851562 341.914062 192.558594 C 341.71875 192.265625 341.496094 191.996094 341.246094 191.746094 C 341 191.496094 340.726562 191.277344 340.433594 191.082031 C 340.144531 190.886719 339.835938 190.71875 339.507812 190.585938 C 339.183594 190.449219 338.851562 190.347656 338.503906 190.28125 C 338.160156 190.210938 337.8125 190.179688 337.460938 190.179688 Z M 176.789062 200.890625 L 332.105469 200.890625 L 332.105469 227.667969 L 176.789062 227.667969 Z M 101.808594 227.667969 C 101.105469 227.667969 100.410156 227.738281 99.71875 227.875 C 99.027344 228.011719 98.359375 228.214844 97.710938 228.484375 C 97.058594 228.753906 96.441406 229.082031 95.859375 229.472656 C 95.273438 229.863281 94.730469 230.308594 94.234375 230.804688 C 93.738281 231.300781 93.292969 231.84375 92.902344 232.429688 C 92.511719 233.011719 92.179688 233.628906 91.914062 234.28125 C 91.644531 234.929688 91.441406 235.601562 91.304688 236.289062 C 91.164062 236.980469 91.097656 237.675781 91.097656 238.378906 C 91.097656 239.082031 91.164062 239.777344 91.304688 240.46875 C 91.441406 241.160156 91.644531 241.828125 91.914062 242.476562 C 92.179688 243.128906 92.511719 243.746094 92.902344 244.332031 C 93.292969 244.914062 93.738281 245.457031 94.234375 245.953125 C 94.730469 246.449219 95.273438 246.894531 95.859375 247.285156 C 96.441406 247.675781 97.058594 248.007812 97.710938 248.273438 C 98.359375 248.542969 99.027344 248.746094 99.71875 248.886719 C 100.410156 249.023438 101.105469 249.089844 101.808594 249.089844 C 102.511719 249.089844 103.207031 249.023438 103.898438 248.886719 C 104.589844 248.746094 105.257812 248.542969 105.90625 248.273438 C 106.558594 248.007812 107.175781 247.675781 107.757812 247.285156 C 108.34375 246.894531 108.886719 246.449219 109.382812 245.953125 C 109.878906 245.457031 110.324219 244.914062 110.714844 244.332031 C 111.105469 243.746094 111.433594 243.128906 111.703125 242.476562 C 111.972656 241.828125 112.175781 241.160156 112.3125 240.46875 C 112.453125 239.777344 112.519531 239.082031 112.519531 238.378906 C 112.519531 237.675781 112.453125 236.980469 112.3125 236.289062 C 112.175781 235.601562 111.972656 234.929688 111.703125 234.28125 C 111.433594 233.628906 111.105469 233.011719 110.714844 232.429688 C 110.324219 231.84375 109.878906 231.300781 109.382812 230.804688 C 108.886719 230.308594 108.34375 229.863281 107.757812 229.472656 C 107.175781 229.082031 106.558594 228.753906 105.90625 228.484375 C 105.257812 228.214844 104.589844 228.011719 103.898438 227.875 C 103.207031 227.738281 102.511719 227.667969 101.808594 227.667969 Z M 139.296875 227.667969 C 138.59375 227.667969 137.898438 227.738281 137.207031 227.875 C 136.519531 228.011719 135.847656 228.214844 135.199219 228.484375 C 134.550781 228.753906 133.933594 229.082031 133.347656 229.472656 C 132.761719 229.863281 132.222656 230.308594 131.722656 230.804688 C 131.226562 231.300781 130.78125 231.84375 130.390625 232.429688 C 130 233.011719 129.671875 233.628906 129.402344 234.28125 C 129.132812 234.929688 128.929688 235.601562 128.792969 236.289062 C 128.65625 236.980469 128.585938 237.675781 128.585938 238.378906 C 128.585938 239.082031 128.65625 239.777344 128.792969 240.46875 C 128.929688 241.160156 129.132812 241.828125 129.402344 242.476562 C 129.671875 243.128906 130 243.746094 130.390625 244.332031 C 130.78125 244.914062 131.226562 245.457031 131.722656 245.953125 C 132.222656 246.449219 132.761719 246.894531 133.347656 247.285156 C 133.933594 247.675781 134.550781 248.007812 135.199219 248.273438 C 135.847656 248.542969 136.519531 248.746094 137.207031 248.886719 C 137.898438 249.023438 138.59375 249.089844 139.296875 249.089844 C 140 249.089844 140.699219 249.023438 141.386719 248.886719 C 142.078125 248.746094 142.746094 248.542969 143.398438 248.273438 C 144.046875 248.007812 144.664062 247.675781 145.25 247.285156 C 145.835938 246.894531 146.375 246.449219 146.871094 245.953125 C 147.371094 245.457031 147.8125 244.914062 148.203125 244.332031 C 148.59375 243.746094 148.925781 243.128906 149.195312 242.476562 C 149.464844 241.828125 149.667969 241.160156 149.804688 240.46875 C 149.941406 239.777344 150.011719 239.082031 150.011719 238.378906 C 150.011719 237.675781 149.941406 236.980469 149.804688 236.289062 C 149.667969 235.601562 149.464844 234.929688 149.195312 234.28125 C 148.925781 233.628906 148.59375 233.011719 148.203125 232.429688 C 147.8125 231.84375 147.371094 231.300781 146.871094 230.804688 C 146.375 230.308594 145.835938 229.863281 145.25 229.472656 C 144.664062 229.082031 144.046875 228.753906 143.398438 228.484375 C 142.746094 228.214844 142.078125 228.011719 141.386719 227.875 C 140.699219 227.738281 140 227.667969 139.296875 227.667969 Z M 16.117188 238.378906 L 64.320312 238.378906 L 64.320312 275.871094 L 16.117188 275.871094 Z M 340.136719 254.445312 C 335.703125 254.445312 332.105469 258.046875 332.105469 262.480469 C 332.105469 266.914062 335.703125 270.511719 340.136719 270.511719 C 344.574219 270.511719 348.171875 266.914062 348.171875 262.480469 C 348.171875 258.046875 344.574219 254.445312 340.136719 254.445312 Z M 104.488281 270.511719 C 103.957031 270.511719 103.4375 270.566406 102.917969 270.667969 C 102.402344 270.769531 101.898438 270.921875 101.410156 271.125 C 100.925781 271.328125 100.460938 271.574219 100.023438 271.867188 C 99.585938 272.160156 99.179688 272.492188 98.804688 272.867188 C 98.433594 273.238281 98.101562 273.644531 97.808594 274.082031 C 97.511719 274.523438 97.265625 274.984375 97.0625 275.472656 C 96.863281 275.960938 96.710938 276.460938 96.605469 276.980469 C 96.503906 277.496094 96.453125 278.019531 96.453125 278.546875 C 96.453125 279.074219 96.503906 279.597656 96.605469 280.113281 C 96.710938 280.632812 96.863281 281.132812 97.0625 281.621094 C 97.265625 282.109375 97.511719 282.570312 97.808594 283.011719 C 98.101562 283.449219 98.433594 283.855469 98.804688 284.226562 C 99.179688 284.601562 99.585938 284.933594 100.023438 285.226562 C 100.460938 285.519531 100.925781 285.765625 101.410156 285.96875 C 101.898438 286.171875 102.402344 286.324219 102.917969 286.425781 C 103.4375 286.53125 103.957031 286.582031 104.488281 286.582031 C 105.015625 286.582031 105.535156 286.53125 106.054688 286.425781 C 106.570312 286.324219 107.074219 286.171875 107.5625 285.96875 C 108.046875 285.765625 108.511719 285.519531 108.949219 285.226562 C 109.386719 284.933594 109.792969 284.601562 110.167969 284.226562 C 110.539062 283.855469 110.871094 283.449219 111.167969 283.011719 C 111.460938 282.570312 111.707031 282.109375 111.910156 281.621094 C 112.109375 281.132812 112.261719 280.632812 112.367188 280.113281 C 112.46875 279.597656 112.519531 279.074219 112.519531 278.546875 C 112.519531 278.019531 112.46875 277.496094 112.367188 276.980469 C 112.261719 276.460938 112.109375 275.960938 111.910156 275.472656 C 111.707031 274.984375 111.460938 274.523438 111.164062 274.082031 C 110.871094 273.644531 110.539062 273.238281 110.167969 272.867188 C 109.792969 272.492188 109.386719 272.160156 108.949219 271.867188 C 108.511719 271.574219 108.046875 271.328125 107.5625 271.125 C 107.074219 270.921875 106.570312 270.769531 106.054688 270.667969 C 105.535156 270.566406 105.015625 270.511719 104.488281 270.511719 Z M 155.367188 275.871094 L 155.367188 286.582031 C 155.71875 286.585938 156.074219 286.554688 156.421875 286.492188 C 156.769531 286.425781 157.109375 286.328125 157.4375 286.195312 C 157.769531 286.0625 158.082031 285.898438 158.378906 285.703125 C 158.675781 285.511719 158.949219 285.289062 159.203125 285.039062 C 159.453125 284.789062 159.679688 284.519531 159.878906 284.222656 C 160.078125 283.929688 160.246094 283.621094 160.382812 283.292969 C 160.519531 282.964844 160.625 282.628906 160.691406 282.28125 C 160.761719 281.929688 160.796875 281.578125 160.796875 281.226562 C 160.796875 280.871094 160.761719 280.519531 160.691406 280.171875 C 160.625 279.824219 160.519531 279.484375 160.382812 279.15625 C 160.246094 278.832031 160.078125 278.519531 159.878906 278.226562 C 159.679688 277.929688 159.453125 277.660156 159.203125 277.410156 C 158.949219 277.160156 158.675781 276.941406 158.378906 276.746094 C 158.082031 276.550781 157.769531 276.386719 157.4375 276.253906 C 157.109375 276.121094 156.769531 276.023438 156.421875 275.960938 C 156.074219 275.894531 155.71875 275.863281 155.367188 275.871094 Z M 175.449219 275.871094 L 171.160156 278.023438 L 170.3125 282.742188 L 173.585938 286.246094 L 175.449219 286.582031 L 179.738281 284.425781 L 180.585938 279.707031 L 177.3125 276.203125 Z M 195.535156 275.871094 L 191.246094 278.023438 L 190.398438 282.742188 L 193.671875 286.246094 L 195.535156 286.582031 L 199.824219 284.425781 L 200.667969 279.707031 L 197.394531 276.203125 Z M 215.617188 275.871094 L 211.328125 278.023438 L 210.480469 282.742188 L 213.753906 286.246094 L 215.617188 286.582031 L 219.90625 284.425781 L 220.753906 279.707031 L 217.480469 276.203125 Z M 235.703125 275.871094 C 235.347656 275.863281 234.996094 275.894531 234.644531 275.960938 C 234.296875 276.023438 233.957031 276.121094 233.628906 276.253906 C 233.300781 276.386719 232.984375 276.550781 232.6875 276.746094 C 232.390625 276.941406 232.117188 277.160156 231.863281 277.410156 C 231.613281 277.660156 231.386719 277.929688 231.1875 278.226562 C 230.988281 278.519531 230.820312 278.832031 230.683594 279.15625 C 230.546875 279.484375 230.445312 279.824219 230.375 280.171875 C 230.304688 280.519531 230.269531 280.871094 230.269531 281.226562 C 230.269531 281.578125 230.304688 281.929688 230.375 282.28125 C 230.445312 282.628906 230.546875 282.964844 230.683594 283.292969 C 230.820312 283.621094 230.988281 283.929688 231.1875 284.222656 C 231.386719 284.519531 231.613281 284.789062 231.863281 285.039062 C 232.117188 285.289062 232.390625 285.511719 232.6875 285.703125 C 232.984375 285.898438 233.300781 286.0625 233.628906 286.195312 C 233.957031 286.328125 234.296875 286.425781 234.644531 286.492188 C 234.996094 286.554688 235.347656 286.585938 235.703125 286.582031 Z M 267.835938 275.871094 L 267.835938 286.582031 C 268.191406 286.585938 268.542969 286.554688 268.890625 286.492188 C 269.242188 286.425781 269.578125 286.328125 269.910156 286.195312 C 270.238281 286.0625 270.550781 285.898438 270.847656 285.703125 C 271.144531 285.511719 271.417969 285.289062 271.671875 285.039062 C 271.925781 284.789062 272.152344 284.519531 272.347656 284.222656 C 272.546875 283.929688 272.714844 283.621094 272.851562 283.292969 C 272.988281 282.964844 273.09375 282.628906 273.164062 282.28125 C 273.234375 281.929688 273.269531 281.578125 273.269531 281.226562 C 273.269531 280.871094 273.234375 280.519531 273.164062 280.171875 C 273.09375 279.824219 272.988281 279.484375 272.851562 279.15625 C 272.714844 278.832031 272.546875 278.519531 272.347656 278.226562 C 272.152344 277.929688 271.925781 277.660156 271.671875 277.410156 C 271.417969 277.160156 271.144531 276.941406 270.847656 276.746094 C 270.550781 276.550781 270.238281 276.386719 269.910156 276.253906 C 269.578125 276.121094 269.242188 276.023438 268.890625 275.960938 C 268.542969 275.894531 268.191406 275.863281 267.835938 275.871094 Z M 289.257812 275.871094 L 284.96875 278.023438 L 284.121094 282.742188 L 287.398438 286.246094 L 289.257812 286.582031 L 293.546875 284.425781 L 294.394531 279.707031 L 291.121094 276.203125 Z M 310.679688 275.871094 C 310.328125 275.863281 309.976562 275.894531 309.625 275.960938 C 309.277344 276.023438 308.9375 276.121094 308.609375 276.253906 C 308.277344 276.386719 307.964844 276.550781 307.667969 276.746094 C 307.371094 276.941406 307.097656 277.160156 306.84375 277.410156 C 306.59375 277.660156 306.367188 277.929688 306.167969 278.226562 C 305.96875 278.519531 305.800781 278.832031 305.664062 279.15625 C 305.527344 279.484375 305.421875 279.824219 305.355469 280.171875 C 305.285156 280.519531 305.25 280.871094 305.25 281.226562 C 305.25 281.578125 305.285156 281.929688 305.355469 282.28125 C 305.421875 282.628906 305.527344 282.964844 305.664062 283.292969 C 305.800781 283.621094 305.96875 283.929688 306.167969 284.222656 C 306.367188 284.519531 306.59375 284.789062 306.84375 285.039062 C 307.097656 285.289062 307.371094 285.511719 307.667969 285.703125 C 307.964844 285.898438 308.277344 286.0625 308.609375 286.195312 C 308.9375 286.328125 309.277344 286.425781 309.625 286.492188 C 309.976562 286.554688 310.328125 286.585938 310.679688 286.582031 C 311.035156 286.585938 311.386719 286.554688 311.738281 286.492188 C 312.085938 286.425781 312.425781 286.328125 312.753906 286.195312 C 313.082031 286.0625 313.398438 285.898438 313.695312 285.703125 C 313.992188 285.511719 314.265625 285.289062 314.519531 285.039062 C 314.769531 284.789062 314.996094 284.519531 315.195312 284.222656 C 315.394531 283.929688 315.5625 283.621094 315.699219 283.292969 C 315.835938 282.964844 315.9375 282.628906 316.007812 282.28125 C 316.078125 281.929688 316.113281 281.578125 316.113281 281.226562 C 316.113281 280.871094 316.078125 280.519531 316.007812 280.171875 C 315.9375 279.824219 315.835938 279.484375 315.699219 279.15625 C 315.5625 278.832031 315.394531 278.519531 315.195312 278.226562 C 314.996094 277.929688 314.769531 277.660156 314.519531 277.410156 C 314.265625 277.160156 313.992188 276.941406 313.695312 276.746094 C 313.398438 276.550781 313.082031 276.386719 312.753906 276.253906 C 312.425781 276.121094 312.085938 276.023438 311.738281 275.960938 C 311.386719 275.894531 311.035156 275.863281 310.679688 275.871094 Z M 310.679688 275.871094 "/></g></g></svg>