<svg xmlns="http://www.w3.org/2000/svg" xmlns:xlink="http://www.w3.org/1999/xlink" width="500" zoomAndPan="magnify" viewBox="0 0 375 374.999991" height="500" preserveAspectRatio="xMidYMid meet" version="1.2"><defs><clipPath id="af0550a032"><path d="M 0 0.648438 L 375 0.648438 L 375 374 L 0 374 Z M 0 0.648438 "/></clipPath><clipPath id="b8baee5d7d"><path d="M 110 73 L 272 73 L 272 374.148438 L 110 374.148438 Z M 110 73 "/></clipPath></defs><g id="431a06dd16"><g clip-rule="nonzero" clip-path="url(#af0550a032)"><path style=" stroke:none;fill-rule:nonzero;fill:#1877f2;fill-opacity:1;" d="M 375.140625 188.039062 C 375.140625 184.972656 375.066406 181.90625 374.917969 178.84375 C 374.765625 175.78125 374.539062 172.722656 374.238281 169.671875 C 373.9375 166.621094 373.5625 163.578125 373.113281 160.546875 C 372.664062 157.511719 372.140625 154.492188 371.542969 151.484375 C 370.945312 148.476562 370.273438 145.488281 369.527344 142.511719 C 368.78125 139.539062 367.964844 136.585938 367.074219 133.648438 C 366.183594 130.714844 365.222656 127.804688 364.191406 124.917969 C 363.15625 122.03125 362.054688 119.171875 360.878906 116.339844 C 359.707031 113.503906 358.464844 110.703125 357.152344 107.929688 C 355.84375 105.160156 354.464844 102.421875 353.019531 99.71875 C 351.574219 97.011719 350.0625 94.34375 348.484375 91.714844 C 346.910156 89.085938 345.269531 86.496094 343.566406 83.945312 C 341.863281 81.398438 340.097656 78.890625 338.269531 76.425781 C 336.445312 73.964844 334.558594 71.546875 332.613281 69.179688 C 330.667969 66.808594 328.664062 64.488281 326.605469 62.214844 C 324.546875 59.941406 322.433594 57.722656 320.265625 55.554688 C 318.097656 53.386719 315.878906 51.273438 313.605469 49.214844 C 311.332031 47.152344 309.011719 45.152344 306.640625 43.207031 C 304.273438 41.261719 301.855469 39.375 299.390625 37.550781 C 296.929688 35.722656 294.421875 33.957031 291.875 32.253906 C 289.324219 30.550781 286.734375 28.910156 284.105469 27.332031 C 281.472656 25.757812 278.808594 24.246094 276.101562 22.800781 C 273.398438 21.355469 270.660156 19.976562 267.890625 18.667969 C 265.117188 17.355469 262.316406 16.113281 259.480469 14.941406 C 256.648438 13.765625 253.789062 12.664062 250.902344 11.628906 C 248.015625 10.597656 245.105469 9.636719 242.171875 8.746094 C 239.234375 7.855469 236.28125 7.039062 233.308594 6.292969 C 230.332031 5.546875 227.34375 4.875 224.335938 4.277344 C 221.328125 3.679688 218.308594 3.15625 215.273438 2.707031 C 212.242188 2.257812 209.199219 1.878906 206.148438 1.582031 C 203.09375 1.28125 200.039062 1.054688 196.976562 0.902344 C 193.914062 0.753906 190.847656 0.679688 187.78125 0.679688 C 184.867188 0.675781 181.953125 0.742188 179.042969 0.875 C 176.128906 1.007812 173.222656 1.207031 170.320312 1.476562 C 167.417969 1.746094 164.523438 2.082031 161.636719 2.488281 C 158.75 2.890625 155.875 3.363281 153.011719 3.898438 C 150.144531 4.4375 147.296875 5.042969 144.457031 5.714844 C 141.621094 6.386719 138.800781 7.125 136 7.925781 C 133.199219 8.730469 130.417969 9.597656 127.65625 10.53125 C 124.894531 11.460938 122.15625 12.460938 119.441406 13.519531 C 116.726562 14.582031 114.035156 15.703125 111.375 16.890625 C 108.710938 18.074219 106.078125 19.324219 103.472656 20.632812 C 100.867188 21.941406 98.296875 23.308594 95.753906 24.738281 C 93.214844 26.167969 90.707031 27.65625 88.238281 29.203125 C 85.765625 30.746094 83.332031 32.351562 80.9375 34.011719 C 78.539062 35.667969 76.183594 37.382812 73.867188 39.152344 C 71.550781 40.921875 69.277344 42.746094 67.046875 44.621094 C 64.816406 46.496094 62.628906 48.425781 60.488281 50.402344 C 58.347656 52.378906 56.253906 54.40625 54.207031 56.480469 C 52.160156 58.558594 50.160156 60.679688 48.214844 62.847656 C 46.265625 65.015625 44.371094 67.230469 42.527344 69.484375 C 40.683594 71.742188 38.890625 74.042969 37.152344 76.382812 C 35.417969 78.722656 33.734375 81.105469 32.109375 83.523438 C 30.484375 85.941406 28.914062 88.398438 27.402344 90.890625 C 25.890625 93.382812 24.441406 95.910156 23.046875 98.46875 C 21.652344 101.03125 20.320312 103.621094 19.046875 106.242188 C 17.773438 108.867188 16.5625 111.515625 15.414062 114.195312 C 14.265625 116.875 13.179688 119.578125 12.15625 122.308594 C 11.136719 125.039062 10.175781 127.789062 9.28125 130.5625 C 8.390625 133.339844 7.558594 136.132812 6.796875 138.945312 C 6.03125 141.757812 5.335938 144.585938 4.703125 147.433594 C 4.070312 150.277344 3.507812 153.136719 3.007812 156.007812 C 2.507812 158.882812 2.078125 161.761719 1.714844 164.65625 C 1.351562 167.546875 1.054688 170.445312 0.828125 173.351562 C 0.597656 176.257812 0.4375 179.167969 0.34375 182.082031 C 0.253906 184.996094 0.226562 187.910156 0.269531 190.824219 C 0.3125 193.738281 0.425781 196.648438 0.605469 199.558594 C 0.785156 202.46875 1.03125 205.371094 1.347656 208.269531 C 1.660156 211.167969 2.042969 214.054688 2.492188 216.9375 C 2.941406 219.816406 3.457031 222.683594 4.042969 225.539062 C 4.625 228.394531 5.273438 231.238281 5.992188 234.0625 C 6.707031 236.886719 7.488281 239.695312 8.335938 242.484375 C 9.183594 245.273438 10.09375 248.042969 11.070312 250.789062 C 12.046875 253.535156 13.085938 256.257812 14.191406 258.953125 C 15.292969 261.652344 16.460938 264.324219 17.6875 266.96875 C 18.914062 269.609375 20.203125 272.222656 21.554688 274.808594 C 22.902344 277.390625 24.3125 279.941406 25.78125 282.460938 C 27.25 284.976562 28.777344 287.457031 30.363281 289.90625 C 31.949219 292.351562 33.589844 294.757812 35.285156 297.128906 C 36.984375 299.5 38.734375 301.828125 40.539062 304.117188 C 42.347656 306.402344 44.203125 308.648438 46.117188 310.851562 C 48.027344 313.050781 49.988281 315.207031 52 317.316406 C 54.011719 319.425781 56.070312 321.488281 58.175781 323.503906 C 60.285156 325.515625 62.4375 327.480469 64.636719 329.390625 C 66.835938 331.304688 69.078125 333.167969 71.363281 334.976562 C 73.652344 336.785156 75.976562 338.539062 78.34375 340.238281 C 80.714844 341.9375 83.121094 343.582031 85.5625 345.167969 C 88.007812 346.757812 90.488281 348.285156 93.003906 349.757812 C 95.519531 351.230469 98.070312 352.640625 100.652344 353.996094 C 103.234375 355.347656 105.84375 356.640625 108.488281 357.871094 C 111.128906 359.101562 113.800781 360.269531 116.496094 361.375 C 119.191406 362.484375 121.914062 363.527344 124.660156 364.503906 C 127.40625 365.484375 130.171875 366.398438 132.960938 367.25 C 135.746094 368.097656 138.554688 368.882812 141.378906 369.601562 C 144.203125 370.324219 147.042969 370.976562 149.898438 371.5625 C 152.753906 372.148438 155.621094 372.667969 158.5 373.121094 L 158.5 242.183594 L 110.964844 242.183594 L 110.964844 188.039062 L 158.527344 188.039062 L 158.527344 146.765625 C 158.527344 99.816406 186.496094 73.855469 229.296875 73.855469 C 249.796875 73.855469 271.238281 77.523438 271.238281 77.523438 L 271.238281 123.640625 L 247.605469 123.640625 C 224.316406 123.640625 217.089844 138.09375 217.089844 152.894531 L 217.089844 188.039062 L 269.042969 188.039062 L 260.746094 242.183594 L 217.0625 242.183594 L 217.0625 373.121094 C 219.789062 372.691406 222.503906 372.199219 225.210938 371.648438 C 227.914062 371.09375 230.605469 370.484375 233.28125 369.8125 C 235.960938 369.144531 238.621094 368.414062 241.265625 367.625 C 243.910156 366.835938 246.539062 365.992188 249.144531 365.085938 C 251.753906 364.183594 254.339844 363.222656 256.90625 362.203125 C 259.46875 361.183594 262.011719 360.109375 264.527344 358.980469 C 267.046875 357.847656 269.539062 356.660156 272.003906 355.421875 C 274.46875 354.179688 276.90625 352.886719 279.3125 351.535156 C 281.722656 350.1875 284.097656 348.789062 286.445312 347.332031 C 288.792969 345.878906 291.105469 344.375 293.382812 342.820312 C 295.664062 341.261719 297.910156 339.65625 300.117188 338.003906 C 302.328125 336.347656 304.496094 334.644531 306.632812 332.894531 C 308.765625 331.144531 310.859375 329.347656 312.914062 327.503906 C 314.964844 325.660156 316.980469 323.769531 318.949219 321.839844 C 320.921875 319.90625 322.847656 317.929688 324.730469 315.914062 C 326.613281 313.898438 328.453125 311.839844 330.246094 309.738281 C 332.039062 307.640625 333.78125 305.503906 335.480469 303.328125 C 337.179688 301.152344 338.828125 298.941406 340.429688 296.691406 C 342.027344 294.441406 343.578125 292.160156 345.078125 289.84375 C 346.578125 287.523438 348.023438 285.175781 349.421875 282.792969 C 350.816406 280.414062 352.160156 278.003906 353.449219 275.5625 C 354.738281 273.121094 355.972656 270.652344 357.152344 268.160156 C 358.332031 265.664062 359.457031 263.144531 360.523438 260.597656 C 361.59375 258.054688 362.605469 255.488281 363.5625 252.898438 C 364.515625 250.308594 365.414062 247.699219 366.253906 245.070312 C 367.09375 242.441406 367.875 239.792969 368.597656 237.128906 C 369.320312 234.46875 369.984375 231.789062 370.589844 229.09375 C 371.195312 226.402344 371.738281 223.699219 372.222656 220.980469 C 372.710938 218.261719 373.132812 215.535156 373.5 212.800781 C 373.863281 210.066406 374.167969 207.324219 374.410156 204.574219 C 374.65625 201.824219 374.835938 199.070312 374.960938 196.3125 C 375.082031 193.554688 375.140625 190.796875 375.140625 188.039062 Z M 375.140625 188.039062 "/></g><g clip-rule="nonzero" clip-path="url(#b8baee5d7d)"><path style=" stroke:none;fill-rule:nonzero;fill:#ffffff;fill-opacity:1;" d="M 260.71875 242.183594 L 269.015625 188.039062 L 217.0625 188.039062 L 217.0625 152.894531 C 217.0625 138.09375 224.289062 123.640625 247.578125 123.640625 L 271.210938 123.640625 L 271.210938 77.496094 C 271.210938 77.496094 249.773438 73.828125 229.269531 73.828125 C 186.445312 73.828125 158.5 99.792969 158.5 146.738281 L 158.5 188.039062 L 110.964844 188.039062 L 110.964844 242.183594 L 158.527344 242.183594 L 158.527344 373.121094 C 178.050781 376.195312 197.570312 376.195312 217.089844 373.121094 L 217.089844 242.183594 Z M 260.71875 242.183594 "/></g></g></svg>