<svg xmlns="http://www.w3.org/2000/svg" xmlns:xlink="http://www.w3.org/1999/xlink" width="500" zoomAndPan="magnify" viewBox="0 0 375 374.999991" height="500" preserveAspectRatio="xMidYMid meet" version="1.2"><g id="902f928b8f"><path style=" stroke:none;fill-rule:nonzero;fill:#01303f;fill-opacity:1;" d="M 187.546875 34.429688 C 163.75 34.609375 140.769531 38.933594 118.777344 48.308594 C 104.175781 54.4375 90.839844 62.546875 78.671875 72.730469 C 51.542969 95.445312 34.238281 124.195312 25.226562 158.261719 C 20.179688 177.640625 18.195312 197.378906 19.1875 217.296875 C 21.171875 259.296875 33.878906 297.6875 59.113281 331.578125 C 59.203125 331.757812 59.382812 331.847656 59.476562 332.027344 C 59.65625 332.929688 59.746094 333.828125 59.925781 334.730469 C 59.113281 334.550781 57.941406 334.550781 57.402344 333.921875 C 53.257812 329.414062 49.019531 324.996094 45.144531 320.222656 C 24.144531 294.355469 10.714844 264.972656 4.40625 232.347656 C 3.324219 226.488281 3.054688 220.449219 2.152344 214.503906 C 0.261719 202.335938 0.441406 190.078125 1.523438 177.910156 C 3.324219 155.289062 8.734375 133.476562 18.105469 112.75 C 34.78125 75.707031 60.195312 46.324219 95.074219 25.324219 C 117.15625 11.988281 141.039062 3.515625 166.816406 1.082031 C 177 0.0898438 187.363281 0 197.640625 0.359375 C 231.257812 1.441406 261.898438 12.257812 289.386719 31.183594 C 331.566406 60.203125 357.886719 100.132812 369.421875 149.882812 C 373.117188 165.742188 374.738281 181.785156 374.378906 198.007812 C 373.835938 221.800781 369.511719 244.964844 360.859375 267.226562 C 351.304688 291.921875 337.335938 313.730469 319.128906 332.75 C 318.859375 333.019531 318.679688 333.378906 318.320312 333.558594 C 317.328125 334.011719 316.335938 334.371094 315.34375 334.730469 C 315.523438 333.648438 315.523438 332.476562 316.15625 331.578125 C 335.714844 305.351562 347.789062 275.96875 353.289062 243.792969 C 356.261719 226.308594 356.984375 208.734375 355.542969 190.980469 C 352.835938 158.441406 343.015625 128.339844 323.726562 101.753906 C 302.90625 73.003906 275.328125 53.445312 241.441406 42.71875 C 226.390625 37.945312 210.886719 35.148438 195.027344 34.789062 C 192.59375 34.789062 190.070312 34.609375 187.546875 34.429688 Z M 72.632812 191.96875 C 63.078125 194.3125 53.527344 196.65625 44.0625 199.089844 C 40.910156 199.902344 38.925781 201.972656 37.84375 204.859375 C 36.671875 208.011719 37.484375 210.988281 38.925781 213.960938 C 51.003906 239.378906 62.988281 264.703125 75.066406 290.027344 C 86.421875 313.910156 97.6875 337.707031 109.042969 361.589844 C 112.648438 369.070312 118.777344 370.601562 125.359375 365.644531 C 129.953125 362.21875 134.550781 358.707031 139.058594 355.191406 C 143.832031 351.496094 145.003906 347.53125 142.660156 342.03125 C 131.035156 313.820312 119.320312 285.523438 107.601562 257.3125 C 99.582031 237.933594 91.558594 218.46875 83.539062 199 C 81.828125 194.765625 78.941406 192.152344 74.34375 191.878906 C 73.804688 191.878906 73.265625 191.878906 72.632812 191.96875 Z M 291.640625 198.910156 C 280.828125 225.136719 270.011719 251.453125 259.105469 277.679688 C 250.273438 299.132812 241.351562 320.671875 232.519531 342.121094 C 230.535156 346.988281 231.078125 351.042969 234.679688 354.019531 C 240.179688 358.523438 245.855469 362.851562 251.714844 366.996094 C 256.222656 370.152344 262.710938 368.347656 265.144531 363.660156 C 266.136719 361.769531 267.035156 359.875 267.9375 357.894531 C 278.574219 335.542969 289.117188 313.28125 299.664062 291.019531 C 312.101562 264.792969 324.628906 238.65625 336.976562 212.429688 C 339.859375 206.480469 336.433594 200.261719 329.855469 198.730469 C 325.4375 197.648438 321.023438 196.566406 316.605469 195.574219 C 311.378906 194.3125 306.152344 193.050781 301.917969 192.058594 C 296.777344 191.878906 293.535156 194.3125 291.640625 198.910156 Z M 347.070312 208.554688 C 344.636719 208.734375 343.644531 210.445312 342.742188 212.339844 C 327.332031 244.425781 311.921875 276.597656 296.417969 308.683594 C 287.136719 328.0625 277.851562 347.4375 268.480469 366.816406 C 267.308594 369.25 267.035156 371.414062 269.019531 373.484375 C 271.09375 375.46875 273.527344 375.46875 275.960938 374.117188 C 283.621094 369.972656 291.28125 365.824219 298.851562 361.589844 C 300.113281 360.867188 301.375 359.605469 302.007812 358.253906 C 305.070312 352.214844 308.042969 346.175781 310.839844 340.046875 C 311.378906 338.785156 311.019531 337.253906 311.199219 335.902344 C 311.378906 334.101562 311.199219 331.757812 312.191406 330.496094 C 321.382812 318.6875 328.054688 305.53125 334.363281 292.011719 C 345.808594 267.765625 350.765625 241.992188 352.027344 216.484375 C 352.207031 210.085938 350.765625 208.191406 347.070312 208.554688 Z M 107.152344 367.71875 C 105.347656 363.570312 103.277344 359.515625 101.292969 355.460938 C 86.332031 324.367188 71.371094 293.273438 56.410156 262.269531 C 48.390625 245.597656 40.457031 228.832031 32.4375 212.070312 C 30.996094 209.003906 29.011719 207.921875 26.308594 208.644531 C 23.332031 209.453125 22.972656 211.707031 23.152344 214.320312 C 23.785156 230.542969 25.855469 246.496094 30.09375 262.179688 C 36.761719 286.695312 47.578125 309.226562 62.71875 329.683594 C 64.070312 331.488281 64.703125 333.289062 64.25 335.632812 C 63.890625 337.164062 64.070312 339.148438 64.613281 340.589844 C 67.226562 346.449219 70.019531 352.214844 72.992188 357.804688 C 73.804688 359.335938 75.246094 360.777344 76.6875 361.679688 C 84.078125 365.824219 91.648438 369.878906 99.21875 373.9375 C 100.300781 374.476562 101.472656 374.746094 101.925781 374.929688 C 106.429688 374.835938 108.773438 371.234375 107.152344 367.71875 Z M 107.152344 367.71875 "/></g></svg>