<svg xmlns="http://www.w3.org/2000/svg" xmlns:xlink="http://www.w3.org/1999/xlink" width="500" zoomAndPan="magnify" viewBox="0 0 375 374.999991" height="500" preserveAspectRatio="xMidYMid meet" version="1.2"><g id="49edc4750e"><path style=" stroke:none;fill-rule:evenodd;fill:#01303f;fill-opacity:1;" d="M 187.496094 148.207031 C 209.195312 148.207031 226.785156 165.796875 226.785156 187.496094 C 226.785156 209.195312 209.195312 226.785156 187.496094 226.785156 C 165.796875 226.785156 148.207031 209.195312 148.207031 187.496094 C 148.207031 165.796875 165.796875 148.207031 187.496094 148.207031 Z M 187.496094 170.953125 C 196.632812 170.953125 204.039062 178.359375 204.039062 187.496094 C 204.039062 196.632812 196.632812 204.039062 187.496094 204.039062 C 178.359375 204.039062 170.953125 196.632812 170.953125 187.496094 C 170.953125 178.359375 178.359375 170.953125 187.496094 170.953125 Z M 187.496094 170.953125 "/><path style=" stroke:none;fill-rule:evenodd;fill:#01303f;fill-opacity:1;" d="M 30.609375 -0.00390625 L 344.386719 -0.00390625 C 361.222656 -0.00390625 374.996094 13.773438 374.996094 30.609375 L 374.996094 344.386719 C 374.996094 361.222656 361.222656 374.996094 344.386719 374.996094 L 30.609375 374.996094 C 13.773438 374.996094 -0.00390625 361.222656 -0.00390625 344.386719 L -0.00390625 30.609375 C -0.00390625 13.773438 13.773438 -0.00390625 30.609375 -0.00390625 Z M 187.496094 21.042969 C 279.425781 21.042969 353.949219 95.566406 353.949219 187.496094 C 353.949219 279.425781 279.425781 353.949219 187.496094 353.949219 C 95.566406 353.949219 21.042969 279.425781 21.042969 187.496094 C 21.042969 95.566406 95.566406 21.042969 187.496094 21.042969 Z M 341.515625 330.992188 C 347.328125 330.992188 352.039062 335.703125 352.039062 341.515625 C 352.039062 347.328125 347.328125 352.039062 341.515625 352.039062 C 335.703125 352.039062 330.992188 347.328125 330.992188 341.515625 C 330.992188 335.703125 335.703125 330.992188 341.515625 330.992188 Z M 33.480469 330.992188 C 39.289062 330.992188 44 335.703125 44 341.515625 C 44 347.328125 39.289062 352.039062 33.480469 352.039062 C 27.667969 352.039062 22.957031 347.328125 22.957031 341.515625 C 22.957031 335.703125 27.667969 330.992188 33.480469 330.992188 Z M 33.480469 22.957031 C 39.289062 22.957031 44 27.667969 44 33.480469 C 44 39.292969 39.289062 44.003906 33.480469 44.003906 C 27.667969 44.003906 22.957031 39.292969 22.957031 33.480469 C 22.957031 27.667969 27.667969 22.957031 33.480469 22.957031 Z M 341.515625 22.957031 C 347.328125 22.957031 352.039062 27.667969 352.039062 33.480469 C 352.039062 39.292969 347.328125 44.003906 341.515625 44.003906 C 335.703125 44.003906 330.992188 39.292969 330.992188 33.480469 C 330.992188 27.667969 335.703125 22.957031 341.515625 22.957031 Z M 341.515625 22.957031 "/><path style=" stroke:none;fill-rule:evenodd;fill:#01303f;fill-opacity:1;" d="M 152.300781 56.152344 C 125.660156 93.929688 148.691406 136.882812 158.429688 151.867188 C 166.351562 145.394531 176.46875 141.511719 187.496094 141.511719 C 189.042969 141.511719 190.574219 141.589844 192.082031 141.738281 C 187.019531 101.832031 214.371094 56.171875 214.371094 56.171875 C 182.476562 47.308594 152.300781 56.152344 152.300781 56.152344 Z M 152.300781 56.152344 "/><path style=" stroke:none;fill-rule:evenodd;fill:#01303f;fill-opacity:1;" d="M 283.648438 91.34375 C 237.609375 87.160156 211.933594 128.578125 203.824219 144.5 C 215.207031 148.828125 224.433594 157.542969 229.421875 168.585938 C 261.449219 144.25 314.664062 145.105469 314.664062 145.105469 C 306.390625 113.058594 283.648438 91.347656 283.648438 91.347656 Z M 283.648438 91.34375 "/><path style=" stroke:none;fill-rule:evenodd;fill:#01303f;fill-opacity:1;" d="M 224.824219 214.351562 C 261.914062 229.917969 287.789062 276.429688 287.789062 276.429688 C 311.410156 253.242188 318.839844 222.691406 318.839844 222.691406 C 299.445312 180.726562 250.734375 179.199219 232.890625 180.136719 C 233.277344 182.535156 233.480469 184.992188 233.480469 187.496094 C 233.480469 197.519531 230.269531 206.796875 224.824219 214.351562 Z M 224.824219 214.351562 "/><path style=" stroke:none;fill-rule:evenodd;fill:#01303f;fill-opacity:1;" d="M 60.328125 229.886719 C 68.601562 261.9375 91.347656 283.648438 91.347656 283.648438 C 137.382812 287.832031 163.058594 246.417969 171.167969 230.496094 C 159.785156 226.167969 150.558594 217.449219 145.570312 206.410156 C 113.542969 230.746094 60.328125 229.886719 60.328125 229.886719 Z M 60.328125 229.886719 "/><path style=" stroke:none;fill-rule:evenodd;fill:#01303f;fill-opacity:1;" d="M 56.152344 152.304688 C 75.546875 194.265625 124.257812 195.792969 142.101562 194.855469 C 141.714844 192.460938 141.511719 190 141.511719 187.496094 C 141.511719 177.472656 144.722656 168.199219 150.167969 160.644531 C 113.074219 145.078125 87.203125 98.5625 87.203125 98.5625 C 63.582031 121.75 56.152344 152.304688 56.152344 152.304688 Z M 56.152344 152.304688 "/><path style=" stroke:none;fill-rule:evenodd;fill:#01303f;fill-opacity:1;" d="M 182.910156 233.253906 C 187.972656 273.160156 160.625 318.820312 160.625 318.820312 C 192.515625 327.683594 222.691406 318.839844 222.691406 318.839844 C 249.335938 281.0625 226.300781 238.113281 216.5625 223.125 C 208.640625 229.597656 198.523438 233.480469 187.496094 233.480469 C 185.949219 233.480469 184.417969 233.402344 182.910156 233.253906 Z M 182.910156 233.253906 "/></g></svg>