<svg xmlns="http://www.w3.org/2000/svg" xmlns:xlink="http://www.w3.org/1999/xlink" width="500" zoomAndPan="magnify" viewBox="0 0 375 374.999991" height="500" preserveAspectRatio="xMidYMid meet" version="1.2"><g id="600045cbdb"><path style=" stroke:none;fill-rule:nonzero;fill:#01303f;fill-opacity:1;" d="M 100 256.125 L 100 243.75 L 275 243.75 L 275 256.125 C 274.132812 254.949219 273.140625 253.890625 272.027344 252.945312 C 270.914062 252 269.703125 251.199219 268.402344 250.535156 C 267.101562 249.875 265.738281 249.371094 264.320312 249.027344 C 262.902344 248.683594 261.460938 248.507812 260 248.5 L 115 248.5 C 113.539062 248.507812 112.097656 248.683594 110.679688 249.027344 C 109.261719 249.371094 107.898438 249.875 106.597656 250.535156 C 105.296875 251.199219 104.085938 252 102.972656 252.945312 C 101.859375 253.886719 100.867188 254.949219 100 256.125 Z M 0 206.25 L 0 287.5 C 0 288.113281 0.03125 288.726562 0.09375 289.335938 C 0.152344 289.949219 0.242188 290.554688 0.363281 291.15625 C 0.484375 291.757812 0.632812 292.351562 0.8125 292.941406 C 0.992188 293.527344 1.199219 294.105469 1.433594 294.671875 C 1.667969 295.238281 1.929688 295.792969 2.21875 296.335938 C 2.507812 296.875 2.824219 297.402344 3.167969 297.910156 C 3.507812 298.421875 3.871094 298.914062 4.261719 299.390625 C 4.652344 299.863281 5.0625 300.316406 5.496094 300.753906 C 5.933594 301.1875 6.386719 301.597656 6.859375 301.988281 C 7.335938 302.378906 7.828125 302.742188 8.339844 303.082031 C 8.847656 303.425781 9.375 303.742188 9.914062 304.03125 C 10.457031 304.320312 11.011719 304.582031 11.578125 304.816406 C 12.144531 305.050781 12.722656 305.257812 13.308594 305.4375 C 13.898438 305.617188 14.492188 305.765625 15.09375 305.886719 C 15.695312 306.007812 16.300781 306.097656 16.914062 306.15625 C 17.523438 306.21875 18.136719 306.25 18.75 306.25 L 87.5 306.25 L 87.5 237.5 C 87.5 237.089844 87.539062 236.683594 87.621094 236.28125 C 87.699219 235.878906 87.820312 235.488281 87.976562 235.109375 C 88.132812 234.730469 88.324219 234.367188 88.554688 234.027344 C 88.78125 233.6875 89.039062 233.371094 89.332031 233.082031 C 89.621094 232.789062 89.9375 232.53125 90.277344 232.304688 C 90.617188 232.074219 90.980469 231.882812 91.359375 231.726562 C 91.738281 231.570312 92.128906 231.449219 92.53125 231.371094 C 92.933594 231.289062 93.339844 231.25 93.75 231.25 L 281.25 231.25 C 281.660156 231.25 282.066406 231.289062 282.46875 231.371094 C 282.871094 231.449219 283.261719 231.570312 283.640625 231.726562 C 284.019531 231.882812 284.382812 232.074219 284.722656 232.304688 C 285.0625 232.53125 285.378906 232.789062 285.667969 233.082031 C 285.960938 233.371094 286.21875 233.6875 286.445312 234.027344 C 286.675781 234.367188 286.867188 234.730469 287.023438 235.109375 C 287.179688 235.488281 287.300781 235.878906 287.378906 236.28125 C 287.460938 236.683594 287.5 237.089844 287.5 237.5 L 287.5 306.25 L 356.25 306.25 C 356.863281 306.25 357.476562 306.21875 358.085938 306.15625 C 358.699219 306.097656 359.304688 306.007812 359.90625 305.886719 C 360.507812 305.765625 361.101562 305.617188 361.691406 305.4375 C 362.277344 305.257812 362.855469 305.050781 363.421875 304.816406 C 363.988281 304.582031 364.542969 304.320312 365.085938 304.03125 C 365.625 303.742188 366.152344 303.425781 366.660156 303.082031 C 367.171875 302.742188 367.664062 302.378906 368.140625 301.988281 C 368.613281 301.597656 369.066406 301.1875 369.503906 300.753906 C 369.9375 300.316406 370.347656 299.863281 370.738281 299.390625 C 371.128906 298.914062 371.492188 298.421875 371.832031 297.910156 C 372.175781 297.402344 372.492188 296.875 372.78125 296.335938 C 373.070312 295.792969 373.332031 295.238281 373.566406 294.671875 C 373.800781 294.105469 374.007812 293.527344 374.1875 292.941406 C 374.367188 292.351562 374.515625 291.757812 374.636719 291.15625 C 374.757812 290.554688 374.847656 289.949219 374.90625 289.335938 C 374.96875 288.726562 375 288.113281 375 287.5 L 375 206.25 Z M 280.683594 367.863281 C 280.746094 368.308594 280.757812 368.75 280.722656 369.195312 C 280.6875 369.640625 280.609375 370.078125 280.480469 370.507812 C 280.351562 370.9375 280.183594 371.34375 279.96875 371.738281 C 279.75 372.128906 279.5 372.492188 279.207031 372.832031 C 278.914062 373.167969 278.589844 373.472656 278.230469 373.738281 C 277.875 374.007812 277.492188 374.234375 277.085938 374.421875 C 276.679688 374.609375 276.257812 374.75 275.824219 374.847656 C 275.386719 374.945312 274.945312 374.996094 274.5 375 L 100.5 375 C 100.054688 374.996094 99.613281 374.945312 99.175781 374.847656 C 98.742188 374.75 98.320312 374.609375 97.914062 374.421875 C 97.507812 374.234375 97.125 374.007812 96.769531 373.738281 C 96.410156 373.472656 96.085938 373.167969 95.792969 372.832031 C 95.5 372.492188 95.246094 372.128906 95.03125 371.738281 C 94.816406 371.34375 94.648438 370.9375 94.519531 370.507812 C 94.390625 370.078125 94.3125 369.640625 94.277344 369.195312 C 94.242188 368.75 94.253906 368.308594 94.316406 367.863281 L 108.8125 266.363281 C 108.867188 265.996094 108.953125 265.632812 109.070312 265.277344 C 109.1875 264.925781 109.335938 264.582031 109.511719 264.257812 C 109.691406 263.929688 109.898438 263.621094 110.132812 263.328125 C 110.367188 263.039062 110.625 262.769531 110.90625 262.527344 C 111.1875 262.28125 111.488281 262.066406 111.808594 261.875 C 112.128906 261.683594 112.464844 261.523438 112.8125 261.394531 C 113.164062 261.261719 113.523438 261.164062 113.890625 261.097656 C 114.257812 261.03125 114.625 261 115 261 L 260 261 C 260.375 261 260.742188 261.03125 261.109375 261.097656 C 261.476562 261.164062 261.835938 261.261719 262.1875 261.394531 C 262.535156 261.523438 262.871094 261.683594 263.191406 261.875 C 263.511719 262.066406 263.8125 262.28125 264.09375 262.527344 C 264.375 262.769531 264.632812 263.039062 264.867188 263.328125 C 265.101562 263.621094 265.308594 263.929688 265.488281 264.257812 C 265.664062 264.582031 265.8125 264.925781 265.929688 265.277344 C 266.046875 265.632812 266.132812 265.996094 266.1875 266.363281 Z M 136.75 300 L 238.25 300 C 238.65625 299.992188 239.054688 299.945312 239.453125 299.859375 C 239.847656 299.773438 240.230469 299.648438 240.605469 299.488281 C 240.976562 299.328125 241.328125 299.132812 241.664062 298.902344 C 241.996094 298.675781 242.304688 298.414062 242.589844 298.125 C 242.875 297.835938 243.125 297.523438 243.347656 297.183594 C 243.570312 296.84375 243.757812 296.488281 243.914062 296.113281 C 244.066406 295.738281 244.183594 295.351562 244.261719 294.953125 C 244.335938 294.554688 244.375 294.15625 244.375 293.75 C 244.375 293.34375 244.335938 292.945312 244.261719 292.546875 C 244.183594 292.148438 244.066406 291.761719 243.914062 291.386719 C 243.757812 291.011719 243.570312 290.65625 243.347656 290.316406 C 243.125 289.976562 242.875 289.664062 242.589844 289.375 C 242.304688 289.085938 241.996094 288.824219 241.664062 288.597656 C 241.328125 288.367188 240.976562 288.171875 240.605469 288.011719 C 240.230469 287.851562 239.847656 287.726562 239.453125 287.640625 C 239.054688 287.554688 238.65625 287.507812 238.25 287.5 L 136.75 287.5 C 136.34375 287.507812 135.945312 287.554688 135.546875 287.640625 C 135.152344 287.726562 134.769531 287.851562 134.394531 288.011719 C 134.023438 288.171875 133.671875 288.367188 133.335938 288.597656 C 133.003906 288.824219 132.695312 289.085938 132.410156 289.375 C 132.125 289.664062 131.875 289.976562 131.652344 290.316406 C 131.429688 290.65625 131.242188 291.011719 131.085938 291.386719 C 130.933594 291.761719 130.820312 292.148438 130.742188 292.546875 C 130.664062 292.941406 130.625 293.34375 130.625 293.75 C 130.625 294.15625 130.664062 294.554688 130.742188 294.953125 C 130.820312 295.351562 130.933594 295.738281 131.085938 296.113281 C 131.242188 296.488281 131.429688 296.84375 131.652344 297.183594 C 131.875 297.523438 132.125 297.835938 132.410156 298.125 C 132.695312 298.414062 133.003906 298.675781 133.335938 298.902344 C 133.671875 299.132812 134.023438 299.328125 134.394531 299.488281 C 134.769531 299.648438 135.152344 299.773438 135.546875 299.859375 C 135.945312 299.945312 136.34375 299.992188 136.75 300 Z M 133.125 325 L 241.875 325 C 242.28125 324.992188 242.683594 324.945312 243.078125 324.859375 C 243.472656 324.773438 243.859375 324.648438 244.230469 324.488281 C 244.601562 324.328125 244.953125 324.132812 245.289062 323.902344 C 245.621094 323.675781 245.933594 323.414062 246.214844 323.125 C 246.5 322.835938 246.753906 322.523438 246.976562 322.183594 C 247.199219 321.84375 247.386719 321.488281 247.539062 321.113281 C 247.691406 320.738281 247.808594 320.351562 247.886719 319.953125 C 247.964844 319.554688 248.003906 319.15625 248.003906 318.75 C 248.003906 318.34375 247.964844 317.945312 247.886719 317.546875 C 247.808594 317.148438 247.691406 316.761719 247.539062 316.386719 C 247.386719 316.011719 247.199219 315.65625 246.976562 315.316406 C 246.753906 314.976562 246.5 314.664062 246.214844 314.375 C 245.933594 314.085938 245.621094 313.824219 245.289062 313.597656 C 244.953125 313.367188 244.601562 313.171875 244.230469 313.011719 C 243.859375 312.851562 243.472656 312.726562 243.078125 312.640625 C 242.683594 312.554688 242.28125 312.507812 241.875 312.5 L 133.125 312.5 C 132.71875 312.511719 132.320312 312.558594 131.929688 312.648438 C 131.535156 312.738281 131.152344 312.863281 130.785156 313.023438 C 130.414062 313.183594 130.0625 313.382812 129.730469 313.609375 C 129.402344 313.839844 129.09375 314.101562 128.8125 314.390625 C 128.53125 314.679688 128.28125 314.992188 128.058594 315.328125 C 127.839844 315.667969 127.652344 316.023438 127.5 316.398438 C 127.347656 316.769531 127.234375 317.15625 127.15625 317.550781 C 127.082031 317.945312 127.042969 318.347656 127.042969 318.75 C 127.042969 319.152344 127.082031 319.554688 127.15625 319.949219 C 127.234375 320.34375 127.347656 320.730469 127.5 321.101562 C 127.652344 321.476562 127.839844 321.832031 128.058594 322.171875 C 128.28125 322.507812 128.53125 322.820312 128.8125 323.109375 C 129.09375 323.398438 129.402344 323.660156 129.730469 323.890625 C 130.0625 324.117188 130.414062 324.3125 130.785156 324.476562 C 131.152344 324.636719 131.535156 324.761719 131.929688 324.851562 C 132.320312 324.9375 132.71875 324.988281 133.125 325 Z M 245.5 337.5 L 129.5 337.5 C 129.097656 337.507812 128.695312 337.554688 128.300781 337.640625 C 127.902344 337.726562 127.519531 337.851562 127.148438 338.011719 C 126.777344 338.171875 126.421875 338.367188 126.089844 338.597656 C 125.753906 338.824219 125.445312 339.085938 125.160156 339.375 C 124.878906 339.664062 124.625 339.976562 124.402344 340.316406 C 124.179688 340.65625 123.992188 341.011719 123.839844 341.386719 C 123.6875 341.761719 123.570312 342.148438 123.492188 342.546875 C 123.414062 342.941406 123.375 343.34375 123.375 343.75 C 123.375 344.15625 123.414062 344.554688 123.492188 344.953125 C 123.570312 345.351562 123.683594 345.738281 123.839844 346.113281 C 123.992188 346.488281 124.179688 346.84375 124.402344 347.183594 C 124.625 347.523438 124.878906 347.835938 125.160156 348.125 C 125.445312 348.414062 125.753906 348.675781 126.089844 348.902344 C 126.421875 349.132812 126.777344 349.328125 127.148438 349.488281 C 127.519531 349.648438 127.902344 349.773438 128.300781 349.859375 C 128.695312 349.945312 129.097656 349.992188 129.5 350 L 245.5 350 C 245.902344 349.992188 246.304688 349.945312 246.699219 349.859375 C 247.097656 349.773438 247.480469 349.648438 247.851562 349.488281 C 248.222656 349.328125 248.578125 349.132812 248.910156 348.902344 C 249.246094 348.675781 249.554688 348.414062 249.839844 348.125 C 250.121094 347.835938 250.375 347.523438 250.597656 347.183594 C 250.820312 346.84375 251.007812 346.488281 251.160156 346.113281 C 251.316406 345.738281 251.429688 345.351562 251.507812 344.953125 C 251.585938 344.554688 251.625 344.15625 251.625 343.75 C 251.625 343.34375 251.585938 342.941406 251.507812 342.546875 C 251.429688 342.148438 251.316406 341.761719 251.160156 341.386719 C 251.007812 341.011719 250.820312 340.65625 250.597656 340.316406 C 250.375 339.976562 250.121094 339.664062 249.839844 339.375 C 249.554688 339.085938 249.246094 338.824219 248.910156 338.597656 C 248.578125 338.367188 248.222656 338.171875 247.851562 338.011719 C 247.480469 337.851562 247.097656 337.726562 246.699219 337.640625 C 246.304688 337.554688 245.902344 337.507812 245.5 337.5 Z M 337.5 162.5 C 337.089844 162.5 336.683594 162.539062 336.28125 162.621094 C 335.878906 162.699219 335.488281 162.820312 335.109375 162.976562 C 334.730469 163.132812 334.367188 163.324219 334.027344 163.554688 C 333.6875 163.78125 333.371094 164.042969 333.082031 164.332031 C 332.789062 164.621094 332.53125 164.9375 332.304688 165.277344 C 332.074219 165.621094 331.882812 165.980469 331.726562 166.359375 C 331.570312 166.738281 331.449219 167.128906 331.371094 167.53125 C 331.289062 167.933594 331.25 168.339844 331.25 168.75 C 331.25 169.160156 331.289062 169.566406 331.371094 169.96875 C 331.449219 170.371094 331.570312 170.761719 331.726562 171.140625 C 331.882812 171.519531 332.074219 171.882812 332.304688 172.222656 C 332.53125 172.5625 332.792969 172.878906 333.082031 173.167969 C 333.371094 173.460938 333.6875 173.71875 334.027344 173.945312 C 334.371094 174.175781 334.730469 174.367188 335.109375 174.523438 C 335.488281 174.679688 335.878906 174.800781 336.28125 174.878906 C 336.683594 174.960938 337.089844 175 337.5 175 C 337.910156 175 338.316406 174.960938 338.71875 174.878906 C 339.121094 174.800781 339.511719 174.679688 339.890625 174.523438 C 340.269531 174.367188 340.632812 174.171875 340.972656 173.945312 C 341.3125 173.71875 341.628906 173.457031 341.917969 173.167969 C 342.210938 172.878906 342.46875 172.5625 342.695312 172.222656 C 342.925781 171.878906 343.117188 171.519531 343.273438 171.140625 C 343.429688 170.761719 343.550781 170.371094 343.628906 169.96875 C 343.710938 169.566406 343.75 169.160156 343.75 168.75 C 343.75 168.339844 343.710938 167.933594 343.628906 167.53125 C 343.550781 167.128906 343.429688 166.738281 343.273438 166.359375 C 343.117188 165.980469 342.921875 165.617188 342.695312 165.277344 C 342.46875 164.9375 342.207031 164.621094 341.917969 164.332031 C 341.628906 164.039062 341.3125 163.78125 340.972656 163.554688 C 340.628906 163.324219 340.269531 163.132812 339.890625 162.976562 C 339.511719 162.820312 339.121094 162.699219 338.71875 162.621094 C 338.316406 162.539062 337.910156 162.5 337.5 162.5 Z M 375 150 L 375 193.75 L 0 193.75 L 0 150 C 0 149.386719 0.03125 148.773438 0.09375 148.164062 C 0.152344 147.550781 0.242188 146.945312 0.363281 146.34375 C 0.484375 145.742188 0.632812 145.148438 0.8125 144.558594 C 0.992188 143.972656 1.199219 143.394531 1.433594 142.828125 C 1.667969 142.261719 1.929688 141.707031 2.21875 141.164062 C 2.507812 140.625 2.824219 140.097656 3.167969 139.589844 C 3.507812 139.078125 3.871094 138.585938 4.261719 138.109375 C 4.652344 137.636719 5.0625 137.183594 5.496094 136.746094 C 5.933594 136.3125 6.386719 135.902344 6.859375 135.511719 C 7.335938 135.121094 7.828125 134.757812 8.339844 134.417969 C 8.847656 134.074219 9.375 133.757812 9.914062 133.46875 C 10.457031 133.179688 11.011719 132.917969 11.578125 132.683594 C 12.144531 132.449219 12.722656 132.242188 13.308594 132.0625 C 13.898438 131.882812 14.492188 131.734375 15.09375 131.613281 C 15.695312 131.492188 16.300781 131.402344 16.914062 131.34375 C 17.523438 131.28125 18.136719 131.25 18.75 131.25 L 356.25 131.25 C 356.863281 131.25 357.476562 131.28125 358.085938 131.34375 C 358.699219 131.402344 359.304688 131.492188 359.90625 131.613281 C 360.507812 131.734375 361.101562 131.882812 361.691406 132.0625 C 362.277344 132.242188 362.855469 132.449219 363.421875 132.683594 C 363.988281 132.917969 364.542969 133.179688 365.085938 133.46875 C 365.625 133.757812 366.152344 134.074219 366.660156 134.417969 C 367.171875 134.757812 367.664062 135.121094 368.140625 135.511719 C 368.613281 135.902344 369.066406 136.3125 369.503906 136.746094 C 369.9375 137.183594 370.347656 137.636719 370.738281 138.109375 C 371.128906 138.585938 371.492188 139.078125 371.832031 139.585938 C 372.175781 140.097656 372.492188 140.625 372.78125 141.164062 C 373.070312 141.707031 373.332031 142.261719 373.566406 142.828125 C 373.800781 143.394531 374.007812 143.972656 374.1875 144.558594 C 374.367188 145.148438 374.515625 145.742188 374.636719 146.34375 C 374.757812 146.945312 374.847656 147.550781 374.90625 148.164062 C 374.96875 148.773438 375 149.386719 375 150 Z M 337.5 150.003906 C 312.5 149.660156 312.5 187.835938 337.5 187.496094 C 362.5 187.839844 362.5 149.664062 337.5 150.003906 Z M 81.75 56.25 L 56.25 56.25 C 55.636719 56.25 55.023438 56.28125 54.414062 56.34375 C 53.800781 56.402344 53.195312 56.492188 52.59375 56.613281 C 51.992188 56.734375 51.398438 56.882812 50.808594 57.0625 C 50.222656 57.242188 49.644531 57.449219 49.078125 57.683594 C 48.511719 57.917969 47.957031 58.179688 47.414062 58.46875 C 46.875 58.757812 46.347656 59.074219 45.839844 59.417969 C 45.328125 59.757812 44.835938 60.121094 44.359375 60.511719 C 43.886719 60.902344 43.433594 61.3125 42.996094 61.746094 C 42.5625 62.183594 42.152344 62.636719 41.761719 63.109375 C 41.371094 63.585938 41.007812 64.078125 40.667969 64.585938 C 40.324219 65.097656 40.007812 65.625 39.71875 66.164062 C 39.429688 66.707031 39.167969 67.261719 38.933594 67.828125 C 38.699219 68.394531 38.492188 68.972656 38.3125 69.558594 C 38.132812 70.148438 37.984375 70.742188 37.863281 71.34375 C 37.742188 71.945312 37.652344 72.550781 37.59375 73.164062 C 37.53125 73.773438 37.5 74.386719 37.5 75 L 37.5 118.75 L 81.75 118.75 Z M 262 0 L 113 0 C 112.386719 0 111.773438 0.03125 111.164062 0.09375 C 110.550781 0.152344 109.945312 0.242188 109.34375 0.363281 C 108.742188 0.484375 108.148438 0.632812 107.558594 0.8125 C 106.972656 0.992188 106.394531 1.199219 105.828125 1.433594 C 105.261719 1.667969 104.707031 1.929688 104.164062 2.21875 C 103.625 2.507812 103.097656 2.824219 102.589844 3.167969 C 102.078125 3.507812 101.585938 3.871094 101.109375 4.261719 C 100.636719 4.652344 100.183594 5.0625 99.75 5.496094 C 99.3125 5.933594 98.902344 6.386719 98.511719 6.859375 C 98.125 7.335938 97.757812 7.828125 97.417969 8.339844 C 97.074219 8.847656 96.761719 9.375 96.46875 9.914062 C 96.179688 10.457031 95.917969 11.011719 95.683594 11.578125 C 95.449219 12.144531 95.242188 12.722656 95.0625 13.308594 C 94.882812 13.898438 94.734375 14.492188 94.613281 15.09375 C 94.492188 15.695312 94.402344 16.300781 94.34375 16.914062 C 94.28125 17.523438 94.25 18.136719 94.25 18.75 L 94.25 118.75 L 280.75 118.75 L 280.75 18.75 C 280.75 18.136719 280.71875 17.523438 280.65625 16.914062 C 280.597656 16.300781 280.507812 15.695312 280.386719 15.09375 C 280.265625 14.492188 280.117188 13.898438 279.9375 13.308594 C 279.757812 12.722656 279.550781 12.144531 279.316406 11.578125 C 279.082031 11.011719 278.820312 10.457031 278.53125 9.914062 C 278.238281 9.375 277.925781 8.847656 277.582031 8.339844 C 277.242188 7.828125 276.875 7.335938 276.488281 6.859375 C 276.097656 6.386719 275.6875 5.933594 275.25 5.496094 C 274.816406 5.0625 274.363281 4.652344 273.890625 4.261719 C 273.414062 3.871094 272.921875 3.507812 272.410156 3.167969 C 271.902344 2.824219 271.375 2.507812 270.835938 2.21875 C 270.292969 1.929688 269.738281 1.667969 269.171875 1.433594 C 268.605469 1.199219 268.027344 0.992188 267.441406 0.8125 C 266.851562 0.632812 266.257812 0.484375 265.65625 0.363281 C 265.054688 0.242188 264.449219 0.152344 263.835938 0.09375 C 263.226562 0.03125 262.613281 0 262 0 Z M 318.75 56.25 L 293.25 56.25 L 293.25 118.75 L 337.5 118.75 L 337.5 75 C 337.5 74.386719 337.46875 73.773438 337.40625 73.164062 C 337.347656 72.550781 337.257812 71.945312 337.136719 71.34375 C 337.015625 70.742188 336.867188 70.148438 336.6875 69.558594 C 336.507812 68.972656 336.300781 68.394531 336.066406 67.828125 C 335.832031 67.261719 335.570312 66.707031 335.28125 66.164062 C 334.992188 65.625 334.675781 65.097656 334.332031 64.585938 C 333.992188 64.078125 333.628906 63.585938 333.238281 63.109375 C 332.847656 62.636719 332.4375 62.183594 332.003906 61.746094 C 331.566406 61.3125 331.113281 60.902344 330.640625 60.511719 C 330.164062 60.121094 329.671875 59.757812 329.160156 59.417969 C 328.652344 59.074219 328.125 58.757812 327.585938 58.46875 C 327.042969 58.179688 326.488281 57.917969 325.921875 57.683594 C 325.355469 57.449219 324.777344 57.242188 324.191406 57.0625 C 323.601562 56.882812 323.007812 56.734375 322.40625 56.613281 C 321.804688 56.492188 321.199219 56.402344 320.585938 56.34375 C 319.976562 56.28125 319.363281 56.25 318.75 56.25 Z M 318.75 56.25 "/></g></svg>