<svg xmlns="http://www.w3.org/2000/svg" xmlns:xlink="http://www.w3.org/1999/xlink" width="500" zoomAndPan="magnify" viewBox="0 0 375 374.999991" height="500" preserveAspectRatio="xMidYMid meet" version="1.2"><g id="3533c64402"><path style=" stroke:none;fill-rule:nonzero;fill:#ff6969;fill-opacity:1;" d="M 366.75 63.671875 C 361.5 51.25 354.003906 40.097656 344.441406 30.535156 C 334.878906 20.972656 323.726562 13.476562 311.304688 8.226562 C 298.460938 2.789062 284.824219 0.0234375 270.761719 0.0234375 L 104.191406 0.0234375 C 90.128906 0.0234375 76.492188 2.789062 63.601562 8.226562 C 51.179688 13.476562 40.027344 20.972656 30.464844 30.535156 C 20.902344 40.097656 13.40625 51.25 8.15625 63.671875 C 2.765625 76.515625 0 90.152344 0 104.214844 L 0 270.738281 C 0 284.800781 2.765625 298.4375 8.203125 311.328125 C 13.453125 323.75 20.949219 334.902344 30.511719 344.464844 C 40.074219 354.027344 51.226562 361.523438 63.648438 366.773438 C 76.492188 372.210938 90.175781 374.976562 104.238281 374.976562 L 270.761719 374.976562 C 284.824219 374.976562 298.460938 372.210938 311.351562 366.773438 C 323.773438 361.523438 334.925781 354.027344 344.488281 344.464844 C 354.050781 334.902344 361.546875 323.75 366.796875 311.328125 C 372.234375 298.484375 375 284.800781 375 270.738281 L 375 104.214844 C 374.953125 90.152344 372.1875 76.515625 366.75 63.671875 Z M 331.222656 270.785156 C 331.222656 304.109375 304.085938 331.246094 270.761719 331.246094 L 104.191406 331.246094 C 70.867188 331.246094 43.730469 304.109375 43.730469 270.785156 L 43.730469 104.214844 C 43.730469 70.890625 70.867188 43.753906 104.191406 43.753906 L 270.714844 43.753906 C 304.039062 43.753906 331.175781 70.890625 331.175781 104.214844 L 331.175781 270.785156 Z M 277.089844 114.710938 L 216.019531 187.5 L 277.089844 260.289062 C 284.871094 269.519531 283.652344 283.347656 274.371094 291.082031 C 270.292969 294.503906 265.28125 296.191406 260.3125 296.191406 C 254.078125 296.191406 247.890625 293.519531 243.53125 288.363281 L 187.476562 221.527344 L 131.328125 288.410156 C 127.015625 293.566406 120.828125 296.238281 114.546875 296.238281 C 109.578125 296.238281 104.613281 294.550781 100.488281 291.128906 C 91.253906 283.347656 90.035156 269.566406 97.769531 260.335938 L 158.933594 187.5 L 97.863281 114.710938 C 90.082031 105.480469 91.300781 91.652344 100.582031 83.917969 C 109.8125 76.140625 123.640625 77.359375 131.375 86.636719 L 187.476562 153.472656 L 243.625 86.589844 C 251.40625 77.359375 265.1875 76.140625 274.417969 83.871094 C 283.652344 91.652344 284.871094 105.433594 277.089844 114.710938 Z M 277.089844 114.710938 "/></g></svg>