<svg xmlns="http://www.w3.org/2000/svg" xmlns:xlink="http://www.w3.org/1999/xlink" width="500" zoomAndPan="magnify" viewBox="0 0 375 374.999991" height="500" preserveAspectRatio="xMidYMid meet" version="1.2"><defs><clipPath id="082d6aadf0"><path d="M 38 355 L 100 355 L 100 374.25 L 38 374.25 Z M 38 355 "/></clipPath><clipPath id="df3bcb71d9"><path d="M 275 355 L 337 355 L 337 374.25 L 275 374.25 Z M 275 355 "/></clipPath></defs><g id="46d60472e8"><g clip-rule="nonzero" clip-path="url(#082d6aadf0)"><path style=" stroke:none;fill-rule:nonzero;fill:#01303f;fill-opacity:1;" d="M 38.839844 364.558594 C 38.839844 369.746094 43.144531 374.046875 48.332031 374.046875 L 86.285156 374.046875 C 90.335938 374.046875 94.003906 371.390625 95.269531 367.59375 L 99.445312 355.070312 L 38.839844 355.070312 Z M 38.839844 364.558594 "/></g><g clip-rule="nonzero" clip-path="url(#df3bcb71d9)"><path style=" stroke:none;fill-rule:nonzero;fill:#01303f;fill-opacity:1;" d="M 279.730469 367.59375 C 280.996094 371.390625 284.664062 374.046875 288.714844 374.046875 L 326.667969 374.046875 C 331.855469 374.046875 336.160156 369.746094 336.160156 364.558594 L 336.160156 355.070312 L 275.554688 355.070312 Z M 279.730469 367.59375 "/></g><path style=" stroke:none;fill-rule:nonzero;fill:#01303f;fill-opacity:1;" d="M 339.320312 219.0625 L 337.949219 219.0625 L 373.972656 11.933594 C 374.875 6.769531 371.414062 1.855469 366.25 0.960938 C 361.078125 -0.0078125 356.175781 3.511719 355.277344 8.683594 L 318.691406 219.0625 L 56.308594 219.0625 L 19.722656 8.683594 C 18.824219 3.519531 13.882812 0.0390625 8.75 0.960938 C 3.585938 1.855469 0.125 6.769531 1.027344 11.933594 L 37.050781 219.0625 L 35.679688 219.0625 C 16.492188 219.0625 0.886719 234.667969 0.886719 253.855469 L 0.886719 301.296875 C 0.886719 320.488281 16.492188 336.089844 35.679688 336.089844 L 339.320312 336.089844 C 358.507812 336.089844 374.113281 320.488281 374.113281 301.296875 L 374.113281 253.855469 C 374.113281 234.667969 358.507812 219.0625 339.320312 219.0625 Z M 57.820312 287.066406 C 52.578125 287.066406 48.332031 282.816406 48.332031 277.578125 C 48.332031 272.335938 52.578125 268.089844 57.820312 268.089844 C 63.058594 268.089844 67.308594 272.335938 67.308594 277.578125 C 67.308594 282.816406 63.058594 287.066406 57.820312 287.066406 Z M 95.773438 287.066406 C 90.535156 287.066406 86.285156 282.816406 86.285156 277.578125 C 86.285156 272.335938 90.535156 268.089844 95.773438 268.089844 C 101.015625 268.089844 105.261719 272.335938 105.261719 277.578125 C 105.261719 282.816406 101.015625 287.066406 95.773438 287.066406 Z M 133.730469 287.066406 C 128.488281 287.066406 124.242188 282.816406 124.242188 277.578125 C 124.242188 272.335938 128.488281 268.089844 133.730469 268.089844 C 138.972656 268.089844 143.21875 272.335938 143.21875 277.578125 C 143.21875 282.816406 138.972656 287.066406 133.730469 287.066406 Z M 276.0625 287.066406 L 238.105469 287.066406 C 232.867188 287.066406 228.617188 282.816406 228.617188 277.578125 C 228.617188 272.339844 232.867188 268.089844 238.105469 268.089844 L 276.0625 268.089844 C 281.300781 268.089844 285.550781 272.339844 285.550781 277.578125 C 285.550781 282.816406 281.300781 287.066406 276.0625 287.066406 Z M 326.667969 287.066406 L 314.019531 287.066406 C 308.777344 287.066406 304.527344 282.816406 304.527344 277.578125 C 304.527344 272.339844 308.777344 268.089844 314.019531 268.089844 L 326.667969 268.089844 C 331.90625 268.089844 336.160156 272.339844 336.160156 277.578125 C 336.160156 282.816406 331.90625 287.066406 326.667969 287.066406 Z M 326.667969 287.066406 "/><path style=" stroke:none;fill-rule:nonzero;fill:#01303f;fill-opacity:1;" d="M 95.800781 97.269531 C 146.371094 46.710938 228.628906 46.710938 279.199219 97.269531 C 287.628906 105.695312 301.292969 92.523438 292.617188 83.851562 C 234.660156 25.894531 140.339844 25.894531 82.382812 83.851562 C 73.777344 92.457031 87.105469 105.964844 95.800781 97.269531 Z M 95.800781 97.269531 "/><path style=" stroke:none;fill-rule:nonzero;fill:#01303f;fill-opacity:1;" d="M 250.125 135.734375 C 257.167969 135.28125 263.328125 126.132812 256.832031 119.632812 C 218.605469 81.40625 156.394531 81.40625 118.167969 119.632812 C 109.523438 128.277344 122.917969 141.71875 131.585938 133.050781 C 162.410156 102.226562 212.585938 102.226562 243.410156 133.050781 C 245.476562 135.113281 247.847656 135.878906 250.125 135.734375 Z M 250.125 135.734375 "/><path style=" stroke:none;fill-rule:nonzero;fill:#01303f;fill-opacity:1;" d="M 153.957031 155.421875 C 145.34375 164.03125 158.6875 177.523438 167.375 168.839844 C 178.46875 157.742188 196.53125 157.742188 207.625 168.835938 C 216.210938 177.421875 229.746094 164.121094 221.042969 155.421875 C 202.550781 136.925781 172.453125 136.925781 153.957031 155.421875 Z M 153.957031 155.421875 "/></g></svg>