<svg xmlns="http://www.w3.org/2000/svg" xmlns:xlink="http://www.w3.org/1999/xlink" width="500" zoomAndPan="magnify" viewBox="0 0 375 374.999991" height="500" preserveAspectRatio="xMidYMid meet" version="1.2"><defs><clipPath id="2d6be9454c"><path d="M 187.675781 0 L 375 0 L 375 375 L 187.675781 375 Z M 187.675781 0 "/></clipPath></defs><g id="4a898de61a"><path style=" stroke:none;fill-rule:nonzero;fill:#feb236;fill-opacity:1;" d="M 374.371094 142.246094 C 372.980469 138.082031 369.367188 135.046875 365.027344 134.378906 L 249.75 116.765625 L 198.097656 6.738281 C 196.164062 2.625 192.027344 0 187.488281 0 C 182.945312 0 178.816406 2.625 176.875 6.738281 L 125.226562 116.765625 L 9.949219 134.382812 C 5.609375 135.046875 2.003906 138.085938 0.605469 142.253906 C -0.789062 146.414062 0.257812 151.007812 3.328125 154.152344 L 87.082031 240.035156 L 67.289062 361.347656 C 66.5625 365.777344 68.433594 370.234375 72.105469 372.8125 C 74.121094 374.238281 76.480469 374.957031 78.847656 374.957031 C 80.792969 374.957031 82.753906 374.464844 84.523438 373.492188 L 187.484375 316.546875 L 290.441406 373.496094 C 292.210938 374.46875 294.171875 374.960938 296.113281 374.960938 C 298.480469 374.960938 300.847656 374.238281 302.859375 372.816406 C 306.53125 370.238281 308.402344 365.777344 307.675781 361.347656 L 287.882812 240.035156 L 371.636719 154.15625 C 374.710938 151 375.765625 146.40625 374.371094 142.246094 Z M 374.371094 142.246094 "/><g clip-rule="nonzero" clip-path="url(#2d6be9454c)"><path style=" stroke:none;fill-rule:nonzero;fill:#f5f5f5;fill-opacity:1;" d="M 374.371094 142.246094 C 372.980469 138.082031 369.367188 135.046875 365.027344 134.378906 L 249.75 116.765625 L 198.097656 6.738281 C 196.164062 2.625 192.027344 0 187.488281 0 C 182.945312 0 178.816406 2.625 176.875 6.738281 L 125.226562 116.765625 L 9.949219 134.382812 C 5.609375 135.046875 2.003906 138.085938 0.605469 142.253906 C -0.789062 146.414062 0.257812 151.007812 3.328125 154.152344 L 87.082031 240.035156 L 67.289062 361.347656 C 66.5625 365.777344 68.433594 370.234375 72.105469 372.8125 C 74.121094 374.238281 76.480469 374.957031 78.847656 374.957031 C 80.792969 374.957031 82.753906 374.464844 84.523438 373.492188 L 187.484375 316.546875 L 290.441406 373.496094 C 292.210938 374.46875 294.171875 374.960938 296.113281 374.960938 C 298.480469 374.960938 300.847656 374.238281 302.859375 372.816406 C 306.53125 370.238281 308.402344 365.777344 307.675781 361.347656 L 287.882812 240.035156 L 371.636719 154.15625 C 374.710938 151 375.765625 146.40625 374.371094 142.246094 Z M 374.371094 142.246094 "/></g></g></svg>