<svg xmlns="http://www.w3.org/2000/svg" xmlns:xlink="http://www.w3.org/1999/xlink" width="500" zoomAndPan="magnify" viewBox="0 0 375 374.999991" height="500" preserveAspectRatio="xMidYMid meet" version="1.2"><defs><clipPath id="cce4273cb8"><path d="M 2 10 L 375 10 L 375 367.871094 L 2 367.871094 Z M 2 10 "/></clipPath><clipPath id="8af43b7b38"><path d="M -2.789062 6.894531 L 375.203125 4.253906 L 377.742188 367.996094 L -0.25 370.632812 Z M -2.789062 6.894531 "/></clipPath><clipPath id="b9e98c2e11"><path d="M -61.03125 -64.691406 L 435.457031 -68.15625 L 438.921875 428.332031 L -57.5625 431.796875 Z M -61.03125 -64.691406 "/></clipPath></defs><g id="ceaebecfb5"><g clip-rule="nonzero" clip-path="url(#cce4273cb8)"><g clip-rule="nonzero" clip-path="url(#8af43b7b38)"><g clip-rule="nonzero" clip-path="url(#b9e98c2e11)"><path style=" stroke:none;fill-rule:evenodd;fill:#01303f;fill-opacity:1;" d="M 40.382812 12.183594 L 335.125 10.125 L 374.675781 115.707031 L 374.914062 149.492188 C 375.023438 165.039062 369.28125 179.457031 359.683594 190.285156 L 360.914062 366.8125 L 19.578125 369.195312 L 18.347656 192.667969 C 8.597656 181.972656 2.65625 167.640625 2.546875 152.089844 L 2.3125 118.304688 Z M 317.148438 209.742188 C 321.144531 209.714844 325.035156 209.277344 328.777344 208.472656 L 329.667969 336 L 252.089844 336.539062 L 251.441406 243.449219 L 127.320312 244.316406 L 127.96875 337.40625 L 50.394531 337.949219 L 49.503906 210.421875 C 53.257812 211.175781 57.148438 211.558594 61.148438 211.53125 C 78.1875 211.410156 93.222656 203.867188 103.679688 192.070312 C 114.300781 203.722656 129.4375 211.054688 146.480469 210.933594 C 163.523438 210.816406 178.558594 203.273438 189.015625 191.476562 C 199.632812 203.125 214.773438 210.457031 231.816406 210.339844 C 248.855469 210.21875 263.890625 202.675781 274.347656 190.878906 C 284.96875 202.53125 300.105469 209.859375 317.148438 209.742188 Z M 159 337.191406 L 221.058594 336.757812 L 220.628906 274.695312 L 158.566406 275.128906 Z M 343.773438 134.191406 L 343.882812 149.707031 C 343.996094 166.183594 331.375 178.609375 316.933594 178.710938 C 302.492188 178.8125 289.695312 166.5625 289.578125 150.085938 L 289.472656 134.570312 Z M 336.859375 103.207031 L 313.671875 41.304688 L 62.273438 43.0625 L 39.953125 105.28125 Z M 33.46875 136.359375 L 33.578125 151.875 C 33.691406 168.351562 46.488281 180.601562 60.929688 180.5 C 75.371094 180.398438 87.996094 167.972656 87.882812 151.496094 L 87.773438 135.980469 Z M 118.804688 135.761719 L 118.910156 151.277344 C 119.027344 167.753906 131.824219 180.003906 146.265625 179.902344 C 160.707031 179.800781 173.328125 167.375 173.214844 150.898438 L 173.105469 135.382812 Z M 204.136719 135.167969 L 204.246094 150.683594 C 204.359375 167.160156 217.15625 179.410156 231.597656 179.308594 C 246.039062 179.207031 258.664062 166.78125 258.546875 150.304688 L 258.441406 134.789062 Z M 204.136719 135.167969 "/></g></g></g></g></svg>