<svg xmlns="http://www.w3.org/2000/svg" xmlns:xlink="http://www.w3.org/1999/xlink" width="500" zoomAndPan="magnify" viewBox="0 0 375 225" height="300" preserveAspectRatio="xMidYMid meet" version="1.2"><defs><clipPath id="9591a92c30"><path d="M 116 41 L 241 41 L 241 152.941406 L 116 152.941406 Z M 116 41 "/></clipPath><clipPath id="676db183b5"><path d="M 238 2.25 L 256 2.25 L 256 20 L 238 20 Z M 238 2.25 "/></clipPath></defs><g id="ddfe0afa60"><g style="fill:#02a9f7;fill-opacity:1;"><g transform="translate(12.696196, 221.269872)"><path style="stroke:none" d="M 36.761719 -36.617188 L 36.761719 -47.519531 L 1.070312 -47.519531 L 1.070312 -36.617188 L 13.039062 -36.617188 L 13.039062 0 L 24.933594 0 L 24.933594 -36.617188 Z M 36.761719 -36.617188 "/></g></g><g style="fill:#02a9f7;fill-opacity:1;"><g transform="translate(50.525777, 221.269872)"><path style="stroke:none" d="M 37.402344 0 L 37.402344 -10.828125 L 13.75 -10.828125 L 13.75 -18.664062 L 37.402344 -18.664062 L 37.402344 -29.136719 L 13.75 -29.136719 L 13.75 -36.617188 L 37.402344 -36.617188 L 37.402344 -47.519531 L 1.851562 -47.519531 L 1.851562 0 Z M 37.402344 0 "/></g></g><g style="fill:#02a9f7;fill-opacity:1;"><g transform="translate(89.780213, 221.269872)"><path style="stroke:none" d="M 37.542969 0 L 37.542969 -10.828125 L 13.75 -10.828125 L 13.75 -36.617188 L 37.542969 -36.617188 L 37.542969 -47.519531 L 1.851562 -47.519531 L 1.851562 0 Z M 37.542969 0 "/></g></g><g style="fill:#02a9f7;fill-opacity:1;"><g transform="translate(128.749676, 221.269872)"><path style="stroke:none" d="M 37.542969 0 L 37.542969 -47.519531 L 25.648438 -47.519531 L 25.648438 -29.136719 L 13.75 -29.136719 L 13.75 -47.519531 L 1.851562 -47.519531 L 1.851562 0 L 13.75 0 L 13.75 -18.664062 L 25.648438 -18.664062 L 25.648438 0 Z M 37.542969 0 "/></g></g><g style="fill:#02a9f7;fill-opacity:1;"><g transform="translate(168.146593, 221.269872)"><path style="stroke:none" d="M 37.542969 0 L 37.542969 -29.136719 L 13.75 -29.136719 L 13.75 -36.617188 L 37.542969 -36.617188 L 37.542969 -47.519531 L 1.851562 -47.519531 L 1.851562 -18.664062 L 25.648438 -18.664062 L 25.648438 -10.828125 L 1.851562 -10.828125 L 1.851562 0 Z M 37.542969 0 "/></g></g><g style="fill:#02a9f7;fill-opacity:1;"><g transform="translate(207.472262, 221.269872)"><path style="stroke:none" d="M 36.761719 -36.617188 L 36.761719 -47.519531 L 1.070312 -47.519531 L 1.070312 -36.617188 L 13.039062 -36.617188 L 13.039062 0 L 24.933594 0 L 24.933594 -36.617188 Z M 36.761719 -36.617188 "/></g></g><g style="fill:#02a9f7;fill-opacity:1;"><g transform="translate(245.301843, 221.269872)"><path style="stroke:none" d="M 37.542969 0 L 37.542969 -47.519531 L 1.851562 -47.519531 L 1.851562 0 Z M 25.648438 -10.828125 L 13.75 -10.828125 L 13.75 -36.617188 L 25.648438 -36.617188 Z M 25.648438 -10.828125 "/></g></g><g style="fill:#02a9f7;fill-opacity:1;"><g transform="translate(284.698747, 221.269872)"><path style="stroke:none" d="M 37.542969 0 L 37.542969 -10.828125 L 13.75 -10.828125 L 13.75 -36.617188 L 37.542969 -36.617188 L 37.542969 -47.519531 L 1.851562 -47.519531 L 1.851562 0 Z M 37.542969 0 "/></g></g><g style="fill:#02a9f7;fill-opacity:1;"><g transform="translate(323.668222, 221.269872)"><path style="stroke:none" d="M 37.542969 -36.617188 L 37.542969 -47.519531 L 25.648438 -47.519531 L 25.648438 -29.136719 L 13.75 -29.136719 L 13.75 -47.519531 L 1.851562 -47.519531 L 1.851562 0 L 13.75 0 L 13.75 -18.664062 L 18.808594 -18.664062 L 26.074219 0 L 37.402344 0 L 29.851562 -18.664062 L 35.195312 -18.664062 L 35.195312 -36.617188 Z M 37.542969 -36.617188 "/></g></g><g clip-rule="nonzero" clip-path="url(#9591a92c30)"><path style=" stroke:none;fill-rule:nonzero;fill:#02a9f7;fill-opacity:1;" d="M 201.269531 76.964844 L 187.792969 76.964844 L 187.792969 63.484375 L 201.269531 63.484375 Z M 164.078125 133.265625 C 166.945312 133.265625 169.273438 135.59375 169.273438 138.460938 C 169.273438 141.332031 166.945312 143.660156 164.078125 143.660156 C 161.210938 143.660156 158.878906 141.332031 158.878906 138.460938 C 158.878906 135.59375 161.210938 133.265625 164.078125 133.265625 Z M 203.625 133.265625 C 206.492188 133.265625 208.820312 135.59375 208.820312 138.460938 C 208.820312 141.332031 206.492188 143.660156 203.625 143.660156 C 200.757812 143.660156 198.421875 141.332031 198.421875 138.460938 C 198.421875 135.59375 200.757812 133.265625 203.625 133.265625 Z M 230.875 70.113281 L 230.875 58.84375 L 224.292969 58.84375 L 224.292969 67.183594 L 207.226562 67.183594 L 207.226562 58.84375 L 146.695312 58.84375 L 141.25 44.441406 C 140.5625 42.636719 138.835938 41.445312 136.902344 41.445312 L 120.667969 41.445312 C 118.109375 41.445312 116.027344 43.523438 116.027344 46.082031 C 116.027344 48.644531 118.109375 50.722656 120.667969 50.722656 L 133.699219 50.722656 L 136.773438 58.84375 L 135.664062 58.84375 C 133.105469 58.84375 131.023438 60.921875 131.023438 63.484375 C 131.023438 66.046875 133.105469 68.125 135.664062 68.125 L 140.289062 68.125 L 155.152344 107.421875 L 149.535156 122.785156 C 149.015625 124.207031 149.21875 125.796875 150.085938 127.035156 C 150.816406 128.078125 151.933594 128.761719 153.171875 128.957031 C 150.949219 131.503906 149.601562 134.824219 149.601562 138.460938 C 149.601562 146.449219 156.089844 152.941406 164.078125 152.941406 C 172.058594 152.941406 178.554688 146.449219 178.554688 138.460938 C 178.554688 134.859375 177.226562 131.554688 175.035156 129.019531 L 192.664062 129.019531 C 190.472656 131.554688 189.144531 134.859375 189.144531 138.460938 C 189.144531 146.449219 195.640625 152.941406 203.625 152.941406 C 211.605469 152.941406 218.101562 146.449219 218.101562 138.460938 C 218.101562 134.859375 216.773438 131.554688 214.582031 129.019531 L 218.101562 129.019531 C 220.664062 129.019531 222.742188 126.941406 222.742188 124.378906 C 222.742188 121.8125 220.664062 119.742188 218.101562 119.742188 L 160.53125 119.742188 L 163.347656 112.03125 L 220.589844 112.03125 C 222.476562 112.03125 224.179688 110.886719 224.890625 109.136719 L 240.714844 70.113281 L 230.875 70.113281 "/></g><g clip-rule="nonzero" clip-path="url(#676db183b5)"><path style=" stroke:none;fill-rule:nonzero;fill:#02a9f7;fill-opacity:1;" d="M 255.503906 19.257812 L 238.4375 19.257812 L 238.4375 2.191406 L 255.503906 2.191406 L 255.503906 19.257812 "/></g><path style=" stroke:none;fill-rule:nonzero;fill:#02a9f7;fill-opacity:1;" d="M 230.34375 32.429688 L 218.238281 32.429688 L 218.238281 20.320312 L 230.34375 20.320312 L 230.34375 32.429688 "/><path style=" stroke:none;fill-rule:nonzero;fill:#89d6fb;fill-opacity:1;" d="M 211.597656 48.082031 L 194.53125 48.082031 L 194.53125 31.015625 L 211.597656 31.015625 L 211.597656 48.082031 "/><path style=" stroke:none;fill-rule:nonzero;fill:#89d6fb;fill-opacity:1;" d="M 258.894531 46.082031 L 243.824219 46.082031 L 243.824219 31.015625 L 258.894531 31.015625 L 258.894531 46.082031 "/></g></svg>