<svg xmlns="http://www.w3.org/2000/svg" xmlns:xlink="http://www.w3.org/1999/xlink" width="500" zoomAndPan="magnify" viewBox="0 0 375 86.249997" height="115" preserveAspectRatio="xMidYMid meet" version="1.2"><defs/><g id="8653f0b7b3"><g style="fill:#02a9f7;fill-opacity:1;"><g transform="translate(10.537129, 68.924782)"><path style="stroke:none" d="M 37.222656 -37.078125 L 37.222656 -48.113281 L 1.082031 -48.113281 L 1.082031 -37.078125 L 13.199219 -37.078125 L 13.199219 0 L 25.246094 0 L 25.246094 -37.078125 Z M 37.222656 -37.078125 "/></g></g><g style="fill:#02a9f7;fill-opacity:1;"><g transform="translate(48.834509, 68.924782)"><path style="stroke:none" d="M 37.871094 0 L 37.871094 -10.964844 L 13.921875 -10.964844 L 13.921875 -18.898438 L 37.871094 -18.898438 L 37.871094 -29.503906 L 13.921875 -29.503906 L 13.921875 -37.078125 L 37.871094 -37.078125 L 37.871094 -48.113281 L 1.875 -48.113281 L 1.875 0 Z M 37.871094 0 "/></g></g><g style="fill:#02a9f7;fill-opacity:1;"><g transform="translate(88.574356, 68.924782)"><path style="stroke:none" d="M 38.015625 0 L 38.015625 -10.964844 L 13.921875 -10.964844 L 13.921875 -37.078125 L 38.015625 -37.078125 L 38.015625 -48.113281 L 1.875 -48.113281 L 1.875 0 Z M 38.015625 0 "/></g></g><g style="fill:#02a9f7;fill-opacity:1;"><g transform="translate(128.025713, 68.924782)"><path style="stroke:none" d="M 38.015625 0 L 38.015625 -48.113281 L 25.96875 -48.113281 L 25.96875 -29.503906 L 13.921875 -29.503906 L 13.921875 -48.113281 L 1.875 -48.113281 L 1.875 0 L 13.921875 0 L 13.921875 -18.898438 L 25.96875 -18.898438 L 25.96875 0 Z M 38.015625 0 "/></g></g><g style="fill:#02a9f7;fill-opacity:1;"><g transform="translate(167.909812, 68.924782)"><path style="stroke:none" d="M 38.015625 0 L 38.015625 -29.503906 L 13.921875 -29.503906 L 13.921875 -37.078125 L 38.015625 -37.078125 L 38.015625 -48.113281 L 1.875 -48.113281 L 1.875 -18.898438 L 25.96875 -18.898438 L 25.96875 -10.964844 L 1.875 -10.964844 L 1.875 0 Z M 38.015625 0 "/></g></g><g style="fill:#02a9f7;fill-opacity:1;"><g transform="translate(207.721778, 68.924782)"><path style="stroke:none" d="M 37.222656 -37.078125 L 37.222656 -48.113281 L 1.082031 -48.113281 L 1.082031 -37.078125 L 13.199219 -37.078125 L 13.199219 0 L 25.246094 0 L 25.246094 -37.078125 Z M 37.222656 -37.078125 "/></g></g><g style="fill:#02a9f7;fill-opacity:1;"><g transform="translate(246.019158, 68.924782)"><path style="stroke:none" d="M 38.015625 0 L 38.015625 -48.113281 L 1.875 -48.113281 L 1.875 0 Z M 25.96875 -10.964844 L 13.921875 -10.964844 L 13.921875 -37.078125 L 25.96875 -37.078125 Z M 25.96875 -10.964844 "/></g></g><g style="fill:#02a9f7;fill-opacity:1;"><g transform="translate(285.903257, 68.924782)"><path style="stroke:none" d="M 38.015625 0 L 38.015625 -10.964844 L 13.921875 -10.964844 L 13.921875 -37.078125 L 38.015625 -37.078125 L 38.015625 -48.113281 L 1.875 -48.113281 L 1.875 0 Z M 38.015625 0 "/></g></g><g style="fill:#02a9f7;fill-opacity:1;"><g transform="translate(325.354614, 68.924782)"><path style="stroke:none" d="M 38.015625 -37.078125 L 38.015625 -48.113281 L 25.96875 -48.113281 L 25.96875 -29.503906 L 13.921875 -29.503906 L 13.921875 -48.113281 L 1.875 -48.113281 L 1.875 0 L 13.921875 0 L 13.921875 -18.898438 L 19.042969 -18.898438 L 26.402344 0 L 37.871094 0 L 30.226562 -18.898438 L 35.636719 -18.898438 L 35.636719 -37.078125 Z M 38.015625 -37.078125 "/></g></g></g></svg>