<svg xmlns="http://www.w3.org/2000/svg" xmlns:xlink="http://www.w3.org/1999/xlink" width="300" zoomAndPan="magnify" viewBox="0 0 224.87999 225" height="300" preserveAspectRatio="xMidYMid meet" version="1.2"><defs><clipPath id="13cf8eaa8a"><path d="M 7.796875 59 L 191 59 L 191 222.539062 L 7.796875 222.539062 Z M 7.796875 59 "/></clipPath><clipPath id="720ada9f6e"><path d="M 186 2.246094 L 212 2.246094 L 212 28 L 186 28 Z M 186 2.246094 "/></clipPath><clipPath id="38cc9c42bf"><path d="M 194 44 L 216.9375 44 L 216.9375 67 L 194 67 Z M 194 44 "/></clipPath></defs><g id="754de82e1c"><g clip-rule="nonzero" clip-path="url(#13cf8eaa8a)"><path style=" stroke:none;fill-rule:nonzero;fill:#02a9f7;fill-opacity:1;" d="M 132.488281 111.46875 L 112.78125 111.46875 L 112.78125 91.761719 L 132.488281 91.761719 Z M 78.113281 193.777344 C 82.304688 193.777344 85.710938 197.183594 85.710938 201.375 C 85.710938 205.566406 82.304688 208.972656 78.113281 208.972656 C 73.921875 208.972656 70.515625 205.566406 70.515625 201.375 C 70.515625 197.183594 73.921875 193.777344 78.113281 193.777344 Z M 135.925781 193.777344 C 140.121094 193.777344 143.523438 197.183594 143.523438 201.375 C 143.523438 205.566406 140.121094 208.972656 135.925781 208.972656 C 131.734375 208.972656 128.324219 205.566406 128.324219 201.375 C 128.324219 197.183594 131.734375 193.777344 135.925781 193.777344 Z M 175.765625 101.457031 L 175.765625 84.980469 L 166.140625 84.980469 L 166.140625 97.167969 L 141.191406 97.167969 L 141.191406 84.980469 L 52.703125 84.980469 L 44.738281 63.925781 C 43.734375 61.285156 41.210938 59.542969 38.390625 59.542969 L 14.65625 59.542969 C 10.910156 59.542969 7.871094 62.582031 7.871094 66.328125 C 7.871094 70.070312 10.910156 73.109375 14.65625 73.109375 L 33.703125 73.109375 L 38.199219 84.980469 L 36.578125 84.980469 C 32.832031 84.980469 29.792969 88.019531 29.792969 91.761719 C 29.792969 95.507812 32.832031 98.546875 36.578125 98.546875 L 43.335938 98.546875 L 65.070312 155.996094 L 56.851562 178.453125 C 56.09375 180.539062 56.390625 182.859375 57.660156 184.667969 C 58.726562 186.195312 60.359375 187.191406 62.171875 187.476562 C 58.921875 191.199219 56.949219 196.058594 56.949219 201.375 C 56.949219 213.050781 66.4375 222.539062 78.113281 222.539062 C 89.78125 222.539062 99.277344 213.050781 99.277344 201.375 C 99.277344 196.105469 97.335938 191.277344 94.132812 187.570312 L 119.90625 187.570312 C 116.703125 191.277344 114.757812 196.105469 114.757812 201.375 C 114.757812 213.050781 124.253906 222.539062 135.925781 222.539062 C 147.59375 222.539062 157.089844 213.050781 157.089844 201.375 C 157.089844 196.105469 155.152344 191.277344 151.949219 187.570312 L 157.089844 187.570312 C 160.835938 187.570312 163.875 184.53125 163.875 180.789062 C 163.875 177.035156 160.835938 174.003906 157.089844 174.003906 L 72.929688 174.003906 L 77.046875 162.738281 L 160.726562 162.738281 C 163.488281 162.738281 165.976562 161.0625 167.015625 158.503906 L 190.152344 101.457031 L 175.765625 101.457031 "/></g><g clip-rule="nonzero" clip-path="url(#720ada9f6e)"><path style=" stroke:none;fill-rule:nonzero;fill:#02a9f7;fill-opacity:1;" d="M 211.769531 27.105469 L 186.820312 27.105469 L 186.820312 2.15625 L 211.769531 2.15625 L 211.769531 27.105469 "/></g><path style=" stroke:none;fill-rule:nonzero;fill:#02a9f7;fill-opacity:1;" d="M 174.992188 46.363281 L 157.289062 46.363281 L 157.289062 28.660156 L 174.992188 28.660156 L 174.992188 46.363281 "/><path style=" stroke:none;fill-rule:nonzero;fill:#89d6fb;fill-opacity:1;" d="M 147.582031 69.246094 L 122.632812 69.246094 L 122.632812 44.296875 L 147.582031 44.296875 L 147.582031 69.246094 "/><g clip-rule="nonzero" clip-path="url(#38cc9c42bf)"><path style=" stroke:none;fill-rule:nonzero;fill:#89d6fb;fill-opacity:1;" d="M 216.726562 66.328125 L 194.695312 66.328125 L 194.695312 44.296875 L 216.726562 44.296875 L 216.726562 66.328125 "/></g></g></svg>